<svg width="42" height="32" viewBox="0 0 42 32" fill="none" xmlns="http://www.w3.org/2000/svg">
<path d="M13.5 27V15.2574L9.54581 11.9258L6 10.0769V24.9277C6 26.0743 7.00869 27 8.25005 27H13.5Z" fill="#4285F4"/>
<path d="M29.3333 27H34C35.1067 27 36 26.0709 36 24.9277V10.0769L32.4301 12.1945L29.3333 15.2573V27Z" fill="#34A853"/>
<path d="M13.1586 15.6923L12.6667 11.0936L13.1586 6.69231L21.3875 12.9231L29.6164 6.69231L30.1667 10.856L29.6164 15.6923L21.3875 21.9231L13.1586 15.6923Z" fill="#EA4335"/>
<path d="M29.3333 7.06722V16L36 10.8465V8.0979C36 5.54867 33.1767 4.09542 31.2001 5.62425L29.3333 7.06722Z" fill="#FBBC04"/>
<path d="M6 10.8465L13.5 16V7.06727L11.3999 5.6243C9.17237 4.09536 6 5.54872 6 8.09782V10.8465Z" fill="#C5221F"/>
</svg>
