<svg width="32" height="32" viewBox="0 0 32 32" fill="none" xmlns="http://www.w3.org/2000/svg">
<path d="M19.4844 7.9375V13.4145L21.4004 14.6195C21.4696 14.6344 21.5412 14.6344 21.6104 14.6195L29.8484 9.0655C29.8424 8.79595 29.7437 8.53668 29.5691 8.33127C29.3945 8.12585 29.1544 7.98681 28.8894 7.9375H19.4844Z" fill="#0072C6"/>
<path d="M19.4836 15.4553L21.2306 16.6553C21.3123 16.7054 21.4062 16.7318 21.5021 16.7318C21.5979 16.7318 21.6918 16.7054 21.7736 16.6553C21.4736 16.8363 29.8466 11.2773 29.8466 11.2773V21.3433C29.8684 21.5473 29.8454 21.7536 29.7792 21.9477C29.713 22.1419 29.6051 22.3192 29.4632 22.4674C29.3213 22.6155 29.1487 22.7308 28.9575 22.8052C28.7664 22.8797 28.5613 22.9115 28.3566 22.8983H19.4826L19.4836 15.4553ZM10.4396 12.9303C10.1493 12.9291 9.86411 13.0063 9.61415 13.1538C9.36418 13.3013 9.15874 13.5136 9.01956 13.7683C8.63963 14.4437 8.45735 15.2123 8.49356 15.9863C8.45408 16.7588 8.63661 17.5264 9.01956 18.1983C9.15807 18.4426 9.35843 18.6462 9.60052 18.7885C9.84261 18.9308 10.1179 19.0069 10.3987 19.0092C10.6795 19.0114 10.956 18.9397 11.2003 18.8012C11.4446 18.6627 11.6482 18.4624 11.7906 18.2203C12.1701 17.5517 12.3489 16.7879 12.3056 16.0203C12.3489 15.2287 12.176 14.4402 11.8056 13.7393C11.6728 13.4932 11.4755 13.2878 11.2348 13.1453C10.9942 13.0027 10.7193 12.9284 10.4396 12.9303Z" fill="#0072C6"/>
<path d="M2.15234 5.155V26.582L18.4523 30V2L2.15234 5.155ZM13.0603 19.491C12.7555 19.9209 12.3501 20.2697 11.8794 20.5069C11.4088 20.7442 10.8873 20.8626 10.3603 20.852C9.84669 20.8611 9.33843 20.7461 8.87879 20.5166C8.41916 20.2871 8.02174 19.95 7.72034 19.534C7.0056 18.536 6.64803 17.3262 6.70534 16.1C6.64469 14.8137 7.00872 13.5431 7.74134 12.484C8.0503 12.0461 8.46214 11.6909 8.94062 11.4496C9.41911 11.2082 9.94957 11.0882 10.4853 11.1C10.9952 11.0901 11.4997 11.2054 11.9548 11.4357C12.4098 11.666 12.8014 12.0043 13.0953 12.421C13.8029 13.4407 14.1544 14.6653 14.0953 15.905C14.1579 17.1821 13.7938 18.4437 13.0603 19.491Z" fill="#0072C6"/>
</svg>
