<svg width="10" height="7" viewBox="0 0 10 7" fill="none" xmlns="http://www.w3.org/2000/svg">
<path fill-rule="evenodd" clip-rule="evenodd" d="M5.65988 6.19659C5.48327 6.39087 5.24387 6.5 4.99426 6.5C4.74465 6.5 4.50525 6.39087 4.32864 6.19659L0.775746 2.28471C0.59913 2.09009 0.499941 1.82616 0.5 1.55099C0.500029 1.41474 0.524423 1.27983 0.57179 1.15396C0.619156 1.02809 0.688567 0.913736 0.77606 0.817414C0.863553 0.721093 0.967413 0.644695 1.08171 0.592583C1.19601 0.540472 1.31851 0.513666 1.44221 0.513699C1.56592 0.513731 1.68841 0.5406 1.80268 0.592771C1.91696 0.644941 2.02079 0.721393 2.10824 0.81776L4.99426 3.99582L7.88028 0.817068C7.96712 0.717937 8.07103 0.638848 8.18592 0.584417C8.30081 0.529987 8.4244 0.501305 8.54946 0.500043C8.67453 0.498782 8.79857 0.524967 8.91435 0.577071C9.03013 0.629175 9.13533 0.706153 9.22381 0.803516C9.31229 0.900878 9.38228 1.01667 9.42969 1.14415C9.47711 1.27162 9.501 1.40822 9.49997 1.54597C9.49894 1.68372 9.47302 1.81987 9.42371 1.94647C9.3744 2.07307 9.30269 2.18758 9.21277 2.28333L5.65988 6.19798V6.19659Z" fill="#0A0A0B"/>
</svg>
