<svg width="241" height="157" viewBox="0 0 241 157" fill="none" xmlns="http://www.w3.org/2000/svg">
<g clip-path="url(#clip0_10046_5267)">
<g filter="url(#filter0_d_10046_5267)">
<path d="M21.2517 62.4036L39.2655 129.632C39.8627 131.861 41.3259 133.76 43.3332 134.911C45.3405 136.062 47.7275 136.372 49.9691 135.771L100.68 122.183C102.922 121.582 104.834 120.121 105.997 118.12C107.16 116.119 107.478 113.743 106.88 111.515L93.755 62.5303C93.4549 61.4109 92.9329 60.363 92.2195 59.4482C91.5062 58.5334 90.6159 57.7703 89.601 57.2035L65.9494 43.9869C63.9591 42.8749 61.6083 42.5834 59.3999 43.1749L27.4519 51.7353C25.2103 52.336 23.2978 53.7974 22.135 55.798C20.9723 57.7987 20.6545 60.1748 21.2517 62.4036Z" fill="white" shape-rendering="crispEdges"/>
<path d="M21.2517 62.4036L39.2655 129.632C39.8627 131.861 41.3259 133.76 43.3332 134.911C45.3405 136.062 47.7275 136.372 49.9691 135.771L100.68 122.183C102.922 121.582 104.834 120.121 105.997 118.12C107.16 116.119 107.478 113.743 106.88 111.515L93.755 62.5303C93.4549 61.4109 92.9329 60.363 92.2195 59.4482C91.5062 58.5334 90.6159 57.7703 89.601 57.2035L65.9494 43.9869C63.9591 42.8749 61.6083 42.5834 59.3999 43.1749L27.4519 51.7353C25.2103 52.336 23.2978 53.7974 22.135 55.798C20.9723 57.7987 20.6545 60.1748 21.2517 62.4036Z" stroke="#D3D6DC" stroke-opacity="0.5" stroke-linecap="round" stroke-linejoin="round" shape-rendering="crispEdges"/>
</g>
<g filter="url(#filter1_d_10046_5267)">
<path d="M62 42.9688L66.4862 59.7115C67.0811 61.9317 68.5336 63.8246 70.5242 64.9739C72.5148 66.1232 74.8804 66.4346 77.1007 65.8397L93.8434 61.3535" fill="white"/>
</g>
<path d="M46.7109 94L71.825 87.2707L46.7109 94ZM51.1109 110.421L63.6679 107.056L51.1109 110.421Z" fill="white"/>
<path d="M46.7109 94L71.825 87.2707M51.1109 110.421L63.6679 107.056M48.9121 102.215L74.0262 95.4857" stroke="#2F76FF" stroke-width="2.49741" stroke-linecap="round" stroke-linejoin="round"/>
<path d="M38.8086 70.6937L38.3169 68.8588L46.9622 66.5423L47.4538 68.3772L44.2311 69.2407L46.56 77.9323L44.3602 78.5217L42.0313 69.8302L38.8086 70.6937ZM53.2492 67.6782L53.6899 69.323L48.9355 70.5969L48.4948 68.9522L53.2492 67.6782ZM49.0674 66.7715L51.257 66.1848L53.2291 73.5451C53.2833 73.7473 53.3564 73.8966 53.4484 73.9932C53.5394 74.0863 53.6457 74.1404 53.7673 74.1556C53.8923 74.1698 54.0285 74.1572 54.1759 74.1177C54.2787 74.0902 54.3792 74.0541 54.4774 74.0094C54.5747 73.9613 54.6493 73.9248 54.7014 73.8998L55.4824 75.4369C55.3819 75.5005 55.2383 75.5812 55.0515 75.679C54.8656 75.7803 54.6318 75.8741 54.3501 75.9606C53.828 76.1226 53.3465 76.1763 52.9059 76.1217C52.4687 76.0663 52.095 75.8983 51.7848 75.6178C51.4746 75.3373 51.2519 74.9379 51.1167 74.4196L49.0674 66.7715Z" fill="#2F76FF"/>
</g>
<g clip-path="url(#clip1_10046_5267)">
<g filter="url(#filter2_d_10046_5267)">
<path d="M153.748 49.4036L135.734 116.632C135.137 118.861 135.455 121.237 136.618 123.237C137.78 125.238 139.693 126.7 141.935 127.3L192.646 140.888C194.887 141.489 197.274 141.179 199.282 140.028C201.289 138.877 202.752 136.978 203.349 134.749L216.475 85.765C216.774 84.6454 216.846 83.4769 216.686 82.328C216.525 81.1792 216.136 80.0731 215.541 79.0748L201.666 55.8031C200.498 53.845 198.608 52.4171 196.4 51.8251L164.452 43.2647C162.21 42.664 159.823 42.9734 157.816 44.1246C155.809 45.2759 154.345 47.1748 153.748 49.4036Z" fill="white" shape-rendering="crispEdges"/>
<path d="M153.748 49.4036L135.734 116.632C135.137 118.861 135.455 121.237 136.618 123.237C137.78 125.238 139.693 126.7 141.935 127.3L192.646 140.888C194.887 141.489 197.274 141.179 199.282 140.028C201.289 138.877 202.752 136.978 203.349 134.749L216.475 85.765C216.774 84.6454 216.846 83.4769 216.686 82.328C216.525 81.1792 216.136 80.0731 215.541 79.0748L201.666 55.8031C200.498 53.845 198.608 52.4171 196.4 51.8251L164.452 43.2647C162.21 42.664 159.823 42.9734 157.816 44.1246C155.809 45.2759 154.345 47.1748 153.748 49.4036Z" stroke="#D3D6DC" stroke-opacity="0.5" stroke-linecap="round" stroke-linejoin="round" shape-rendering="crispEdges"/>
</g>
<g filter="url(#filter3_d_10046_5267)">
<path d="M198 52L193.514 68.7427C192.919 70.9629 193.23 73.3286 194.38 75.3191C195.529 77.3097 197.422 78.7623 199.642 79.3572L216.385 83.8434" fill="white" shape-rendering="crispEdges"/>
<path d="M198 52L193.514 68.7427C192.919 70.9629 193.23 73.3286 194.38 75.3191C195.529 77.3097 197.422 78.7623 199.642 79.3572L216.385 83.8434" stroke="#D3D6DC" stroke-opacity="0.5" stroke-linecap="round" stroke-linejoin="round" shape-rendering="crispEdges"/>
</g>
<path d="M172.775 106.566L181.961 98.27L186.441 112.129L160.647 105.217L168.981 97.6908L171.762 106.294L172.059 107.212L172.775 106.566Z" fill="#2F76FF" stroke="#2F76FF" stroke-width="1.2487"/>
<circle cx="171.475" cy="84.2866" r="3.5" transform="rotate(15 171.475 84.2866)" fill="#2F76FF"/>
</g>
<path d="M-3.28852e-07 102.5L7.5 102.5M15 102.5L7.5 102.5M7.5 102.5L7.5 110M7.5 102.5L7.5 95" stroke="white" stroke-width="1.86189"/>
<circle cx="236" cy="72" r="4.37565" stroke="white" stroke-width="1.2487"/>
<circle cx="17" cy="20" r="4.37565" stroke="white" stroke-width="1.2487"/>
<path d="M179.243 4.24264L175 8.48528M170.757 12.7279L175 8.48528M175 8.48528L170.757 4.24264M175 8.48528L179.243 12.7279" stroke="white" stroke-width="1.47608"/>
<g clip-path="url(#clip2_10046_5267)">
<g filter="url(#filter4_d_10046_5267)">
<path d="M87 39.8V110.2C87 112.534 87.9219 114.772 89.5628 116.423C91.2038 118.073 93.4294 119 95.75 119H148.25C150.571 119 152.796 118.073 154.437 116.423C156.078 114.772 157 112.534 157 110.2V58.9048C157 57.7325 156.767 56.572 156.315 55.4915C155.862 54.411 155.2 53.4323 154.366 52.6128L134.941 33.508C133.307 31.9005 131.111 31.0003 128.825 31H95.75C93.4294 31 91.2038 31.9271 89.5628 33.5775C87.9219 35.2278 87 37.4661 87 39.8Z" fill="white" shape-rendering="crispEdges"/>
<path d="M87 39.8V110.2C87 112.534 87.9219 114.772 89.5628 116.423C91.2038 118.073 93.4294 119 95.75 119H148.25C150.571 119 152.796 118.073 154.437 116.423C156.078 114.772 157 112.534 157 110.2V58.9048C157 57.7325 156.767 56.572 156.315 55.4915C155.862 54.411 155.2 53.4323 154.366 52.6128L134.941 33.508C133.307 31.9005 131.111 31.0003 128.825 31H95.75C93.4294 31 91.2038 31.9271 89.5628 33.5775C87.9219 35.2278 87 37.4661 87 39.8Z" stroke="#D3D6DC" stroke-opacity="0.5" stroke-linecap="round" stroke-linejoin="round" shape-rendering="crispEdges"/>
</g>
<g filter="url(#filter5_d_10046_5267)">
<path d="M130 31V48.3333C130 50.6319 130.948 52.8363 132.636 54.4616C134.324 56.0869 136.613 57 139 57H157" fill="white" shape-rendering="crispEdges"/>
<path d="M130 31V48.3333C130 50.6319 130.948 52.8363 132.636 54.4616C134.324 56.0869 136.613 57 139 57H157" stroke="#D3D6DC" stroke-opacity="0.5" stroke-linecap="round" stroke-linejoin="round" shape-rendering="crispEdges"/>
</g>
<path d="M132.083 70H112.917C112.408 70 111.921 70.1932 111.561 70.537C111.202 70.8808 111 71.3471 111 71.8333V90.1667C111 90.6529 111.202 91.1192 111.561 91.463C111.921 91.8068 112.408 92 112.917 92H132.083C132.592 92 133.079 91.8068 133.439 91.463C133.798 91.1192 134 90.6529 134 90.1667V71.8333C134 71.3471 133.798 70.8808 133.439 70.537C133.079 70.1932 132.592 70 132.083 70Z" fill="#2F76FF" stroke="#2F76FF" stroke-width="1.2487" stroke-linecap="round" stroke-linejoin="round"/>
<path d="M120 84V80L123.5 81.9993L127 84L123.5 86L120 88V84Z" fill="white"/>
<path d="M108.25 74.9961H135.75H108.25ZM128.875 68.7461L124.292 74.9961L128.875 68.7461ZM119.708 68.7461L115.125 74.9961L119.708 68.7461Z" fill="white"/>
<path d="M108.25 74.9961H135.75M128.875 68.7461L124.292 74.9961M119.708 68.7461L115.125 74.9961" stroke="white" stroke-width="1.2487" stroke-linecap="round" stroke-linejoin="round"/>
</g>
<defs>
<filter id="filter0_d_10046_5267" x="15.4622" y="42.375" width="97.2084" height="104.185" filterUnits="userSpaceOnUse" color-interpolation-filters="sRGB">
<feFlood flood-opacity="0" result="BackgroundImageFix"/>
<feColorMatrix in="SourceAlpha" type="matrix" values="0 0 0 0 0 0 0 0 0 0 0 0 0 0 0 0 0 0 127 0" result="hardAlpha"/>
<feOffset dy="4.99482"/>
<feGaussianBlur stdDeviation="2.49741"/>
<feComposite in2="hardAlpha" operator="out"/>
<feColorMatrix type="matrix" values="0 0 0 0 0 0 0 0 0 0 0 0 0 0 0 0 0 0 0.08 0"/>
<feBlend mode="normal" in2="BackgroundImageFix" result="effect1_dropShadow_10046_5267"/>
<feBlend mode="normal" in="SourceGraphic" in2="effect1_dropShadow_10046_5267" result="shape"/>
</filter>
<filter id="filter1_d_10046_5267" x="57.0052" y="42.9688" width="41.8334" height="33.1576" filterUnits="userSpaceOnUse" color-interpolation-filters="sRGB">
<feFlood flood-opacity="0" result="BackgroundImageFix"/>
<feColorMatrix in="SourceAlpha" type="matrix" values="0 0 0 0 0 0 0 0 0 0 0 0 0 0 0 0 0 0 127 0" result="hardAlpha"/>
<feOffset dy="4.99482"/>
<feGaussianBlur stdDeviation="2.49741"/>
<feComposite in2="hardAlpha" operator="out"/>
<feColorMatrix type="matrix" values="0 0 0 0 0 0 0 0 0 0 0 0 0 0 0 0 0 0 0.08 0"/>
<feBlend mode="normal" in2="BackgroundImageFix" result="effect1_dropShadow_10046_5267"/>
<feBlend mode="normal" in="SourceGraphic" in2="effect1_dropShadow_10046_5267" result="shape"/>
</filter>
<filter id="filter2_d_10046_5267" x="129.945" y="42.4648" width="92.3197" height="109.212" filterUnits="userSpaceOnUse" color-interpolation-filters="sRGB">
<feFlood flood-opacity="0" result="BackgroundImageFix"/>
<feColorMatrix in="SourceAlpha" type="matrix" values="0 0 0 0 0 0 0 0 0 0 0 0 0 0 0 0 0 0 127 0" result="hardAlpha"/>
<feOffset dy="4.99482"/>
<feGaussianBlur stdDeviation="2.49741"/>
<feComposite in2="hardAlpha" operator="out"/>
<feColorMatrix type="matrix" values="0 0 0 0 0 0 0 0 0 0 0 0 0 0 0 0 0 0 0.08 0"/>
<feBlend mode="normal" in2="BackgroundImageFix" result="effect1_dropShadow_10046_5267"/>
<feBlend mode="normal" in="SourceGraphic" in2="effect1_dropShadow_10046_5267" result="shape"/>
</filter>
<filter id="filter3_d_10046_5267" x="187.724" y="51.5" width="34.1557" height="42.8334" filterUnits="userSpaceOnUse" color-interpolation-filters="sRGB">
<feFlood flood-opacity="0" result="BackgroundImageFix"/>
<feColorMatrix in="SourceAlpha" type="matrix" values="0 0 0 0 0 0 0 0 0 0 0 0 0 0 0 0 0 0 127 0" result="hardAlpha"/>
<feOffset dy="4.99482"/>
<feGaussianBlur stdDeviation="2.49741"/>
<feComposite in2="hardAlpha" operator="out"/>
<feColorMatrix type="matrix" values="0 0 0 0 0 0 0 0 0 0 0 0 0 0 0 0 0 0 0.08 0"/>
<feBlend mode="normal" in2="BackgroundImageFix" result="effect1_dropShadow_10046_5267"/>
<feBlend mode="normal" in="SourceGraphic" in2="effect1_dropShadow_10046_5267" result="shape"/>
</filter>
<filter id="filter4_d_10046_5267" x="81.5052" y="30.5" width="80.9896" height="98.9896" filterUnits="userSpaceOnUse" color-interpolation-filters="sRGB">
<feFlood flood-opacity="0" result="BackgroundImageFix"/>
<feColorMatrix in="SourceAlpha" type="matrix" values="0 0 0 0 0 0 0 0 0 0 0 0 0 0 0 0 0 0 127 0" result="hardAlpha"/>
<feOffset dy="4.99482"/>
<feGaussianBlur stdDeviation="2.49741"/>
<feComposite in2="hardAlpha" operator="out"/>
<feColorMatrix type="matrix" values="0 0 0 0 0 0 0 0 0 0 0 0 0 0 0 0 0 0 0.08 0"/>
<feBlend mode="normal" in2="BackgroundImageFix" result="effect1_dropShadow_10046_5267"/>
<feBlend mode="normal" in="SourceGraphic" in2="effect1_dropShadow_10046_5267" result="shape"/>
</filter>
<filter id="filter5_d_10046_5267" x="124.505" y="30.5" width="37.9896" height="36.9896" filterUnits="userSpaceOnUse" color-interpolation-filters="sRGB">
<feFlood flood-opacity="0" result="BackgroundImageFix"/>
<feColorMatrix in="SourceAlpha" type="matrix" values="0 0 0 0 0 0 0 0 0 0 0 0 0 0 0 0 0 0 127 0" result="hardAlpha"/>
<feOffset dy="4.99482"/>
<feGaussianBlur stdDeviation="2.49741"/>
<feComposite in2="hardAlpha" operator="out"/>
<feColorMatrix type="matrix" values="0 0 0 0 0 0 0 0 0 0 0 0 0 0 0 0 0 0 0.08 0"/>
<feBlend mode="normal" in2="BackgroundImageFix" result="effect1_dropShadow_10046_5267"/>
<feBlend mode="normal" in="SourceGraphic" in2="effect1_dropShadow_10046_5267" result="shape"/>
</filter>
<clipPath id="clip0_10046_5267">
<rect width="105" height="105" fill="white" transform="translate(12 35)"/>
</clipPath>
<clipPath id="clip1_10046_5267">
<rect width="105" height="105" fill="white" transform="translate(126 40)"/>
</clipPath>
<clipPath id="clip2_10046_5267">
<rect width="105" height="105" fill="white" transform="translate(69 22)"/>
</clipPath>
</defs>
</svg>
