<svg width="139" height="78" viewBox="0 0 139 78" fill="none" xmlns="http://www.w3.org/2000/svg">
<g clip-path="url(#clip0_10932_9079)">
<g filter="url(#filter0_d_10932_9079)">
<path d="M5.86996 25.6088L17.2984 68.2602C17.6772 69.6741 18.6055 70.8788 19.879 71.6092C21.1525 72.3396 22.6669 72.5359 24.089 72.1548L56.2614 63.5343C57.6835 63.1532 58.8968 62.2261 59.6345 60.9568C60.3722 59.6875 60.5737 58.18 60.1949 56.7661L51.8678 25.6892C51.6774 24.979 51.3462 24.3142 50.8937 23.7338C50.4411 23.1535 49.8763 22.6693 49.2325 22.3097L34.2273 13.9248C32.9646 13.2193 31.4731 13.0344 30.0721 13.4096L9.80347 18.8406C8.38136 19.2216 7.16801 20.1488 6.43033 21.4181C5.69265 22.6873 5.49108 24.1948 5.86996 25.6088Z" fill="white" shape-rendering="crispEdges"/>
<path d="M5.86996 25.6088L17.2984 68.2602C17.6772 69.6741 18.6055 70.8788 19.879 71.6092C21.1525 72.3396 22.6669 72.5359 24.089 72.1548L56.2614 63.5343C57.6835 63.1532 58.8968 62.2261 59.6345 60.9568C60.3722 59.6875 60.5737 58.18 60.1949 56.7661L51.8678 25.6892C51.6774 24.979 51.3462 24.3142 50.8937 23.7338C50.4411 23.1535 49.8763 22.6693 49.2325 22.3097L34.2273 13.9248C32.9646 13.2193 31.4731 13.0344 30.0721 13.4096L9.80347 18.8406C8.38136 19.2216 7.16801 20.1488 6.43033 21.4181C5.69265 22.6873 5.49108 24.1948 5.86996 25.6088Z" stroke="#D3D6DC" stroke-opacity="0.5" stroke-width="0.634703" stroke-linecap="round" stroke-linejoin="round" shape-rendering="crispEdges"/>
</g>
<g filter="url(#filter1_d_10932_9079)">
<path d="M31.7207 13.2773L34.5669 23.8993C34.9443 25.3079 35.8658 26.5088 37.1287 27.238C38.3916 27.9671 39.8924 28.1647 41.3009 27.7873L51.9229 24.9411" fill="white"/>
</g>
<path d="M22.0234 45.6562L37.9564 41.387L22.0234 45.6562ZM24.8149 56.074L32.7814 53.9394L24.8149 56.074Z" fill="white"/>
<path d="M22.0234 45.6562L37.9564 41.387M24.8149 56.074L32.7814 53.9394M23.4199 50.868L39.3529 46.5988" stroke="#2F76FF" stroke-width="1.58511" stroke-linecap="round" stroke-linejoin="round"/>
<path d="M17.0388 30.98L16.7267 29.8154L22.2139 28.3451L22.526 29.5097L20.4805 30.0578L21.9586 35.5743L20.5624 35.9485L19.0842 30.4319L17.0388 30.98ZM26.2043 29.0661L26.484 30.11L23.4664 30.9186L23.1867 29.8746L26.2043 29.0661ZM23.5501 28.4906L24.9398 28.1182L26.1916 32.7898C26.2259 32.9181 26.2723 33.0129 26.3307 33.0742C26.3885 33.1333 26.456 33.1676 26.5332 33.1773C26.6125 33.1863 26.6989 33.1783 26.7924 33.1532C26.8577 33.1358 26.9215 33.1128 26.9838 33.0845C27.0456 33.054 27.093 33.0308 27.126 33.0149L27.6217 33.9905C27.5579 34.0309 27.4668 34.0821 27.3482 34.1442C27.2302 34.2085 27.0818 34.268 26.9031 34.3229C26.5716 34.4257 26.2661 34.4598 25.9864 34.4252C25.7089 34.39 25.4717 34.2834 25.2748 34.1053C25.0779 33.9273 24.9366 33.6738 24.8508 33.3448L23.5501 28.4906Z" fill="#2F76FF"/>
</g>
<g clip-path="url(#clip1_10932_9079)">
<g filter="url(#filter2_d_10932_9079)">
<path d="M89.9914 17.347L78.563 59.9984C78.1841 61.4124 78.3857 62.9199 79.1233 64.1891C79.861 65.4584 81.0744 66.3856 82.4965 66.7666L114.669 75.3872C116.091 75.7682 117.605 75.572 118.879 74.8416C120.152 74.1112 121.081 72.9065 121.459 71.4925L129.786 40.4157C129.977 39.7054 130.022 38.964 129.921 38.2352C129.819 37.5063 129.572 36.8046 129.194 36.1712L120.392 21.4071C119.651 20.1648 118.452 19.2589 117.051 18.8833L96.782 13.4524C95.3599 13.0713 93.8455 13.2676 92.572 13.998C91.2985 14.7284 90.3702 15.9331 89.9914 17.347Z" fill="white" shape-rendering="crispEdges"/>
<path d="M89.9914 17.347L78.563 59.9984C78.1841 61.4124 78.3857 62.9199 79.1233 64.1891C79.861 65.4584 81.0744 66.3856 82.4965 66.7666L114.669 75.3872C116.091 75.7682 117.605 75.572 118.879 74.8416C120.152 74.1112 121.081 72.9065 121.459 71.4925L129.786 40.4157C129.977 39.7054 130.022 38.964 129.921 38.2352C129.819 37.5063 129.572 36.8046 129.194 36.1712L120.392 21.4071C119.651 20.1648 118.452 19.2589 117.051 18.8833L96.782 13.4524C95.3599 13.0713 93.8455 13.2676 92.572 13.998C91.2985 14.7284 90.3702 15.9331 89.9914 17.347Z" stroke="#D3D6DC" stroke-opacity="0.5" stroke-width="0.634703" stroke-linecap="round" stroke-linejoin="round" shape-rendering="crispEdges"/>
</g>
<g filter="url(#filter3_d_10932_9079)">
<path d="M118.066 18.9961L115.22 29.6181C114.843 31.0266 115.04 32.5275 115.77 33.7903C116.499 35.0532 117.7 35.9747 119.108 36.3522L129.73 39.1983" fill="white" shape-rendering="crispEdges"/>
<path d="M118.066 18.9961L115.22 29.6181C114.843 31.0266 115.04 32.5275 115.77 33.7903C116.499 35.0532 117.7 35.9747 119.108 36.3522L129.73 39.1983" stroke="#D3D6DC" stroke-opacity="0.5" stroke-width="0.634703" stroke-linecap="round" stroke-linejoin="round" shape-rendering="crispEdges"/>
</g>
<path d="M110.73 57.1404L94.3678 52.7561L99.6537 47.982L101.418 53.4402L101.606 54.0223L102.061 53.6123L107.888 48.3494L110.73 57.1404Z" fill="#2F76FF" stroke="#2F76FF" stroke-width="0.792557"/>
<circle cx="101.238" cy="39.4773" r="2.22049" transform="rotate(15 101.238 39.4773)" fill="#2F76FF"/>
</g>
<g clip-path="url(#clip2_10932_9079)">
<g filter="url(#filter4_d_10932_9079)">
<path d="M47.6113 11.2978V55.9613C47.6113 57.442 48.1962 58.862 49.2372 59.909C50.2783 60.956 51.6903 61.5442 53.1625 61.5442H86.4698C87.9421 61.5442 89.3541 60.956 90.3951 59.909C91.4362 58.862 92.0211 57.442 92.0211 55.9613V23.4183C92.021 22.6746 91.8731 21.9383 91.5862 21.2528C91.2992 20.5673 90.879 19.9464 90.3501 19.4265L78.0264 7.30598C76.9894 6.28614 75.5966 5.71503 74.1461 5.71484L53.1625 5.71484C51.6903 5.71484 50.2783 6.30304 49.2372 7.35005C48.1962 8.39705 47.6113 9.81709 47.6113 11.2978Z" fill="white" shape-rendering="crispEdges"/>
<path d="M47.6113 11.2978V55.9613C47.6113 57.442 48.1962 58.862 49.2372 59.909C50.2783 60.956 51.6903 61.5442 53.1625 61.5442H86.4698C87.9421 61.5442 89.3541 60.956 90.3951 59.909C91.4362 58.862 92.0211 57.442 92.0211 55.9613V23.4183C92.021 22.6746 91.8731 21.9383 91.5862 21.2528C91.2992 20.5673 90.879 19.9464 90.3501 19.4265L78.0264 7.30598C76.9894 6.28614 75.5966 5.71503 74.1461 5.71484L53.1625 5.71484C51.6903 5.71484 50.2783 6.30304 49.2372 7.35005C48.1962 8.39705 47.6113 9.81709 47.6113 11.2978Z" stroke="#D3D6DC" stroke-opacity="0.5" stroke-width="0.634703" stroke-linecap="round" stroke-linejoin="round" shape-rendering="crispEdges"/>
</g>
<g filter="url(#filter5_d_10932_9079)">
<path d="M74.8906 5.71484V16.7115C74.8906 18.1698 75.4922 19.5683 76.563 20.5995C77.6338 21.6306 79.0861 22.2099 80.6004 22.2099H92.0201" fill="white" shape-rendering="crispEdges"/>
<path d="M74.8906 5.71484V16.7115C74.8906 18.1698 75.4922 19.5683 76.563 20.5995C77.6338 21.6306 79.0861 22.2099 80.6004 22.2099H92.0201" stroke="#D3D6DC" stroke-opacity="0.5" stroke-width="0.634703" stroke-linecap="round" stroke-linejoin="round" shape-rendering="crispEdges"/>
</g>
<g clip-path="url(#clip3_10932_9079)">
<path d="M76.2332 30.4609H64.0681C63.7454 30.4609 63.436 30.5835 63.2079 30.8018C62.9797 31.02 62.8516 31.3159 62.8516 31.6246V43.2608C62.8516 43.5694 62.9797 43.8654 63.2079 44.0836C63.436 44.3018 63.7454 44.4244 64.0681 44.4244H76.2332C76.5559 44.4244 76.8653 44.3018 77.0934 44.0836C77.3216 43.8654 77.4497 43.5694 77.4497 43.2608V31.6246C77.4497 31.3159 77.3216 31.02 77.0934 30.8018C76.8653 30.5835 76.5559 30.4609 76.2332 30.4609Z" fill="#2F76FF" stroke="#2F76FF" stroke-width="0.792557" stroke-linecap="round" stroke-linejoin="round"/>
<path d="M68.5645 39.3474V36.8086L70.7859 38.0776L73.0074 39.3474L70.7859 40.6168L68.5645 41.8862V39.3474Z" fill="white"/>
<path d="M61.1055 33.6349H78.5598H61.1055ZM74.1962 29.668L71.2872 33.6349L74.1962 29.668ZM68.3781 29.668L65.4691 33.6349L68.3781 29.668Z" fill="white"/>
<path d="M61.1055 33.6349H78.5598M74.1962 29.668L71.2872 33.6349M68.3781 29.668L65.4691 33.6349" stroke="white" stroke-width="0.792557" stroke-linecap="round" stroke-linejoin="round"/>
</g>
</g>
<defs>
<filter id="filter0_d_10932_9079" x="2.19501" y="12.9023" width="61.6744" height="66.1022" filterUnits="userSpaceOnUse" color-interpolation-filters="sRGB">
<feFlood flood-opacity="0" result="BackgroundImageFix"/>
<feColorMatrix in="SourceAlpha" type="matrix" values="0 0 0 0 0 0 0 0 0 0 0 0 0 0 0 0 0 0 127 0" result="hardAlpha"/>
<feOffset dy="3.17023"/>
<feGaussianBlur stdDeviation="1.58511"/>
<feComposite in2="hardAlpha" operator="out"/>
<feColorMatrix type="matrix" values="0 0 0 0 0 0 0 0 0 0 0 0 0 0 0 0 0 0 0.08 0"/>
<feBlend mode="normal" in2="BackgroundImageFix" result="effect1_dropShadow_10932_9079"/>
<feBlend mode="normal" in="SourceGraphic" in2="effect1_dropShadow_10932_9079" result="shape"/>
</filter>
<filter id="filter1_d_10932_9079" x="28.5505" y="13.2773" width="26.5436" height="21.0397" filterUnits="userSpaceOnUse" color-interpolation-filters="sRGB">
<feFlood flood-opacity="0" result="BackgroundImageFix"/>
<feColorMatrix in="SourceAlpha" type="matrix" values="0 0 0 0 0 0 0 0 0 0 0 0 0 0 0 0 0 0 127 0" result="hardAlpha"/>
<feOffset dy="3.17023"/>
<feGaussianBlur stdDeviation="1.58511"/>
<feComposite in2="hardAlpha" operator="out"/>
<feColorMatrix type="matrix" values="0 0 0 0 0 0 0 0 0 0 0 0 0 0 0 0 0 0 0.08 0"/>
<feBlend mode="normal" in2="BackgroundImageFix" result="effect1_dropShadow_10932_9079"/>
<feBlend mode="normal" in="SourceGraphic" in2="effect1_dropShadow_10932_9079" result="shape"/>
</filter>
<filter id="filter2_d_10932_9079" x="74.8884" y="12.9453" width="58.5729" height="69.2897" filterUnits="userSpaceOnUse" color-interpolation-filters="sRGB">
<feFlood flood-opacity="0" result="BackgroundImageFix"/>
<feColorMatrix in="SourceAlpha" type="matrix" values="0 0 0 0 0 0 0 0 0 0 0 0 0 0 0 0 0 0 127 0" result="hardAlpha"/>
<feOffset dy="3.17023"/>
<feGaussianBlur stdDeviation="1.58511"/>
<feComposite in2="hardAlpha" operator="out"/>
<feColorMatrix type="matrix" values="0 0 0 0 0 0 0 0 0 0 0 0 0 0 0 0 0 0 0.08 0"/>
<feBlend mode="normal" in2="BackgroundImageFix" result="effect1_dropShadow_10932_9079"/>
<feBlend mode="normal" in="SourceGraphic" in2="effect1_dropShadow_10932_9079" result="shape"/>
</filter>
<filter id="filter3_d_10932_9079" x="111.545" y="18.6797" width="21.6725" height="27.1764" filterUnits="userSpaceOnUse" color-interpolation-filters="sRGB">
<feFlood flood-opacity="0" result="BackgroundImageFix"/>
<feColorMatrix in="SourceAlpha" type="matrix" values="0 0 0 0 0 0 0 0 0 0 0 0 0 0 0 0 0 0 127 0" result="hardAlpha"/>
<feOffset dy="3.17023"/>
<feGaussianBlur stdDeviation="1.58511"/>
<feComposite in2="hardAlpha" operator="out"/>
<feColorMatrix type="matrix" values="0 0 0 0 0 0 0 0 0 0 0 0 0 0 0 0 0 0 0.08 0"/>
<feBlend mode="normal" in2="BackgroundImageFix" result="effect1_dropShadow_10932_9079"/>
<feBlend mode="normal" in="SourceGraphic" in2="effect1_dropShadow_10932_9079" result="shape"/>
</filter>
<filter id="filter4_d_10932_9079" x="44.1247" y="5.39844" width="51.3834" height="62.8053" filterUnits="userSpaceOnUse" color-interpolation-filters="sRGB">
<feFlood flood-opacity="0" result="BackgroundImageFix"/>
<feColorMatrix in="SourceAlpha" type="matrix" values="0 0 0 0 0 0 0 0 0 0 0 0 0 0 0 0 0 0 127 0" result="hardAlpha"/>
<feOffset dy="3.17023"/>
<feGaussianBlur stdDeviation="1.58511"/>
<feComposite in2="hardAlpha" operator="out"/>
<feColorMatrix type="matrix" values="0 0 0 0 0 0 0 0 0 0 0 0 0 0 0 0 0 0 0.08 0"/>
<feBlend mode="normal" in2="BackgroundImageFix" result="effect1_dropShadow_10932_9079"/>
<feBlend mode="normal" in="SourceGraphic" in2="effect1_dropShadow_10932_9079" result="shape"/>
</filter>
<filter id="filter5_d_10932_9079" x="71.404" y="5.39844" width="24.1041" height="23.4694" filterUnits="userSpaceOnUse" color-interpolation-filters="sRGB">
<feFlood flood-opacity="0" result="BackgroundImageFix"/>
<feColorMatrix in="SourceAlpha" type="matrix" values="0 0 0 0 0 0 0 0 0 0 0 0 0 0 0 0 0 0 127 0" result="hardAlpha"/>
<feOffset dy="3.17023"/>
<feGaussianBlur stdDeviation="1.58511"/>
<feComposite in2="hardAlpha" operator="out"/>
<feColorMatrix type="matrix" values="0 0 0 0 0 0 0 0 0 0 0 0 0 0 0 0 0 0 0.08 0"/>
<feBlend mode="normal" in2="BackgroundImageFix" result="effect1_dropShadow_10932_9079"/>
<feBlend mode="normal" in="SourceGraphic" in2="effect1_dropShadow_10932_9079" result="shape"/>
</filter>
<clipPath id="clip0_10932_9079">
<rect width="66.6146" height="66.6146" fill="white" transform="translate(0 8.22656)"/>
</clipPath>
<clipPath id="clip1_10932_9079">
<rect width="66.6146" height="66.6146" fill="white" transform="translate(72.3848 11.3867)"/>
</clipPath>
<clipPath id="clip2_10932_9079">
<rect width="66.6146" height="66.6146" fill="white" transform="translate(36.1914)"/>
</clipPath>
<clipPath id="clip3_10932_9079">
<rect width="19.0411" height="19.0411" fill="white" transform="translate(60.3105 27.293)"/>
</clipPath>
</defs>
</svg>
