<svg xmlns="http://www.w3.org/2000/svg" style="display: none;">
	<symbol id="icon-security" viewBox="0 0 24 25" fill="none">
		<path d="M10.7197 15.8809H10.7373C10.7728 15.8784 10.8066 15.8691 10.8359 15.8545C10.866 15.8395 10.8904 15.8202 10.9082 15.7988L16.1758 9.40234C16.2039 9.36462 16.2143 9.32437 16.209 9.28711C16.2034 9.24848 16.1811 9.20487 16.1357 9.1709C16.0894 9.13636 16.0254 9.1173 15.958 9.12402C15.8933 9.13051 15.8401 9.1595 15.8057 9.19629L11.1436 14.8555L10.6992 15.3945L10.1934 14.9121L8.17188 12.9844L8.1709 12.9834C8.13075 12.9451 8.06951 12.919 8 12.9189C7.93056 12.9189 7.86934 12.9451 7.8291 12.9834C7.79004 13.0207 7.77446 13.0647 7.77441 13.1035C7.77439 13.142 7.78977 13.1855 7.82812 13.2227L10.5488 15.8164H10.5479C10.5885 15.8551 10.6499 15.8804 10.7197 15.8809ZM21.6504 9.63184C21.6504 14.5524 18.5761 20.5198 12.3857 22.5879L12.3799 22.5898C12.1331 22.6697 11.8669 22.6697 11.6201 22.5898L11.6143 22.5879C5.4239 20.5198 2.34961 14.5524 2.34961 9.63184V7.06543H2.35059C2.35446 6.84262 2.42472 6.62764 2.55078 6.44727L2.6543 6.32031C2.76465 6.20303 2.89849 6.11086 3.0459 6.04883L11.5459 2.44434V2.44531C11.6896 2.38277 11.8441 2.34961 12 2.34961L12.1201 2.35645C12.2347 2.36855 12.3467 2.39909 12.4531 2.44531L12.4541 2.44434L20.9541 6.04883H20.9531C21.1009 6.11087 21.2351 6.20281 21.3457 6.32031L21.4492 6.44727L21.5332 6.58887C21.6065 6.73565 21.6465 6.89841 21.6494 7.06543L21.6504 7.07617V9.63184Z" stroke="currentColor" stroke-width="1.3"/>
	</symbol>
	<symbol id="icon-lock-filled" viewBox="0 0 20 20" fill="none">
		<path fill-rule="evenodd" clip-rule="evenodd" d="M2.5 10C2.5 9.33696 2.76339 8.70107 3.23223 8.23223C3.70107 7.76339 4.33696 7.5 5 7.5H15C15.663 7.5 16.2989 7.76339 16.7678 8.23223C17.2366 8.70107 17.5 9.33696 17.5 10V15.8333C17.5 16.4964 17.2366 17.1323 16.7678 17.6011C16.2989 18.0699 15.663 18.3333 15 18.3333H5C4.33696 18.3333 3.70107 18.0699 3.23223 17.6011C2.76339 17.1323 2.5 16.4964 2.5 15.8333V10ZM10.8333 11.6667C10.8333 11.4457 10.7455 11.2337 10.5893 11.0774C10.433 10.9211 10.221 10.8333 10 10.8333C9.77899 10.8333 9.56702 10.9211 9.41074 11.0774C9.25446 11.2337 9.16667 11.4457 9.16667 11.6667V14.1667C9.16667 14.3877 9.25446 14.5996 9.41074 14.7559C9.56702 14.9122 9.77899 15 10 15C10.221 15 10.433 14.9122 10.5893 14.7559C10.7455 14.5996 10.8333 14.3877 10.8333 14.1667V11.6667Z" fill="currentColor"/>
		<path d="M6.66797 8.33333V5.83333C6.66797 4.94928 7.01916 4.10143 7.64428 3.47631C8.2694 2.85119 9.11725 2.5 10.0013 2.5C10.8854 2.5 11.7332 2.85119 12.3583 3.47631C12.9834 4.10143 13.3346 4.94928 13.3346 5.83333V8.33333" stroke="currentColor" stroke-width="1.66667" stroke-linecap="round" stroke-linejoin="round"/>
	</symbol>
	<symbol id="icon-envelope"  width="24" height="25" viewBox="0 0 24 25" fill="none" xmlns="http://www.w3.org/2000/svg">
		<g clip-path="url(#clip0_12857_1244)">
			<path d="M20.1219 5.5H3.20812C2.88771 5.5 2.58042 5.62728 2.35385 5.85385C2.12728 6.08042 2 6.38771 2 6.70812V18.7894C2 19.1098 2.12728 19.4171 2.35385 19.6436C2.58042 19.8702 2.88771 19.9975 3.20812 19.9975H20.1219C20.4423 19.9975 20.7496 19.8702 20.9761 19.6436C21.2027 19.4171 21.33 19.1098 21.33 18.7894V6.70812C21.33 6.38771 21.2027 6.08042 20.9761 5.85385C20.7496 5.62728 20.4423 5.5 20.1219 5.5ZM19.1916 18.7894H4.21087L8.43931 14.416L7.56946 13.5763L3.20812 18.0887V7.6263L10.7166 15.0986C10.943 15.3236 11.2492 15.4499 11.5683 15.4499C11.8875 15.4499 12.1937 15.3236 12.4201 15.0986L20.1219 7.43904V18.0101L15.676 13.5642L14.8242 14.416L19.1916 18.7894ZM3.99945 6.70812H19.1433L11.5683 14.2408L3.99945 6.70812Z" fill="currentColor"/>
		</g>
		<defs>
		<clipPath id="clip0_12857_1244">
		<rect width="24" height="24" fill="white" transform="translate(0 0.5)"/>
		</clipPath>
		</defs>
	</symbol>
	<symbol id="icon-smartphone" width="24" height="25" viewBox="0 0 24 25" fill="none" xmlns="http://www.w3.org/2000/svg">
		<path d="M10.5 6.5H13.5M16.286 3.5H7.714C6.768 3.5 6 4.306 6 5.3V19.7C6 20.694 6.768 21.5 7.714 21.5H16.286C17.233 21.5 18 20.694 18 19.7V5.3C18 4.306 17.233 3.5 16.286 3.5Z" stroke="currentColor" stroke-width="1.5" stroke-linecap="round" stroke-linejoin="round"/>
	</symbol>
	<symbol id="icon-key" fill="none">
		<g clip-path="url(#clip0_12861_11307)">
			<path
				d="M2.25841 12.5046C2.24419 11.5202 2.48988 10.5495 2.97069 9.69036C3.4515 8.83125 4.15042 8.11417 4.99691 7.61149C5.8434 7.1088 6.80752 6.8383 7.79196 6.82728C8.7764 6.81626 9.74633 7.0651 10.6039 7.54871C11.7539 8.19598 12.6391 9.22776 13.104 10.4628L20.9783 10.4744L23 12.4961L20.9521 14.5439L19.9343 13.1389L18.939 14.536L16.9112 14.5415L15.8934 13.1365L14.884 14.533L13.0931 14.5318C12.6295 15.7661 11.745 16.7971 10.5955 17.4429C9.44604 18.0888 8.10542 18.308 6.81009 18.0619C5.51395 17.8159 4.34591 17.1211 3.511 16.0996C2.67608 15.0781 2.22765 13.7952 2.24441 12.476L2.25841 12.5046Z"
				stroke="black"
				stroke-width="1.3"
				stroke-linecap="round"
				stroke-linejoin="round"
			/>
			<path
				d="M7.31862 14.465C7.80326 14.468 8.27154 14.2898 8.63163 13.9654C8.99172 13.6411 9.21766 13.1939 9.26514 12.7115C9.31261 12.2292 9.17821 11.7466 8.88828 11.3582C8.59835 10.9698 8.1738 10.7038 7.69788 10.6122C7.4157 10.5564 7.12467 10.5639 6.84573 10.6341C6.5668 10.7043 6.30689 10.8354 6.08473 11.0181C5.86256 11.2008 5.68367 11.4305 5.56092 11.6906C5.43817 11.9507 5.37463 12.2348 5.37486 12.5225C5.37889 13.0366 5.58491 13.5285 5.94845 13.892C6.31199 14.2556 6.80451 14.461 7.31862 14.465Z"
				stroke="black"
				stroke-width="1.3"
				stroke-linecap="round"
				stroke-linejoin="round"
			/>
		</g>
		<defs>
			<clipPath id="clip0_12861_11307">
				<rect
					width="24"
					height="24"
					fill="white"
					transform="translate(0 0.5)"
				/>
			</clipPath>
		</defs>
	</symbol>
	<symbol id="icon-light-theme" width="24" height="24" viewBox="0 0 24 24" fill="none">
		<path d="M12 15.5C13.933 15.5 15.5 13.933 15.5 12C15.5 10.067 13.933 8.5 12 8.5C10.067 8.5 8.5 10.067 8.5 12C8.5 13.933 10.067 15.5 12 15.5Z" stroke="currentColor" stroke-width="1.3"/>
		<path d="M12 5V3M12 21V19M16.95 7.05L18.364 5.636M5.636 18.364L7.05 16.95M19 12H21M3 12H5M16.95 16.95L18.364 18.364M5.636 5.636L7.05 7.05" stroke="currentColor" stroke-width="1.3" stroke-linecap="round"/>
	</symbol>
	<symbol id="icon-dark-theme" viewBox="0 0 24 24" fill="none">
		<path d="M12.741 20.9141C12.2741 20.9138 11.8078 20.8787 11.346 20.8091C9.32387 20.4893 7.4676 19.4999 6.07468 17.9995C4.68176 16.4991 3.83285 14.5746 3.66397 12.5343C3.4951 10.494 4.01605 8.45602 5.14333 6.74704C6.27061 5.03805 7.93896 3.75696 9.88103 3.10907C10.0889 3.03877 10.3123 3.02782 10.526 3.07746C10.7397 3.1271 10.9354 3.23536 11.091 3.39007C11.2597 3.55429 11.3795 3.76217 11.4368 3.99049C11.4942 4.21882 11.487 4.4586 11.416 4.68307C11.1491 5.55033 11.0298 6.45627 11.063 7.36307C11.1388 8.78522 11.5805 10.1637 12.3454 11.365C13.1103 12.5664 14.1725 13.5498 15.429 14.2201C16.5606 14.8634 17.8384 15.2053 19.14 15.2131C19.3667 15.2162 19.5881 15.2813 19.7804 15.4013C19.9727 15.5213 20.1285 15.6917 20.2309 15.8939C20.3333 16.0961 20.3784 16.3225 20.3613 16.5485C20.3442 16.7745 20.2656 16.9915 20.134 17.1761C19.2826 18.3367 18.1694 19.2802 16.8848 19.9297C15.6002 20.5792 14.1805 20.9165 12.741 20.9141ZM10.261 4.04707C10.2389 4.04712 10.2169 4.05083 10.196 4.05807C8.98034 4.4615 7.87705 5.14624 6.97595 6.05656C6.07484 6.96688 5.40137 8.07708 5.01034 9.29682C4.6193 10.5166 4.52174 11.8114 4.72559 13.0759C4.92945 14.3405 5.42896 15.5391 6.18349 16.5742C6.93802 17.6092 7.92624 18.4515 9.06776 19.0326C10.2093 19.6136 11.4719 19.917 12.7527 19.9179C14.0336 19.9189 15.2967 19.6175 16.4391 19.0381C17.5814 18.4588 18.5709 17.618 19.327 16.5841C19.3512 16.5502 19.3653 16.5101 19.3676 16.4685C19.3699 16.4269 19.3603 16.3855 19.34 16.3491C19.3222 16.3092 19.2933 16.2752 19.2568 16.2511C19.2203 16.227 19.1777 16.2138 19.134 16.2131C17.6657 16.2047 16.2239 15.8205 14.946 15.0971C13.5376 14.3431 12.348 13.238 11.4924 11.8889C10.6369 10.5398 10.1445 8.9925 10.063 7.39707C10.0271 6.37908 10.1623 5.36228 10.463 4.38907C10.4779 4.33972 10.4793 4.2873 10.4672 4.23721C10.4551 4.18711 10.4298 4.14116 10.394 4.10407C10.377 4.08589 10.3564 4.07143 10.3335 4.06162C10.3106 4.05181 10.2859 4.04685 10.261 4.04707Z" fill="#0A0A0B"/>
	</symbol>
	<symbol id="icon-trash-lite" width="24" height="24" viewBox="0 0 24 24" fill="none" xmlns="http://www.w3.org/2000/svg">
		<path d="M7.61601 19.9966C7.17134 19.9966 6.79101 19.8382 6.47501 19.5216C6.15901 19.2049 6.00067 18.8252 6.00001 18.3826V5.99656H5.50001C5.35801 5.99656 5.23934 5.94856 5.14401 5.85256C5.04867 5.75656 5.00067 5.63756 5.00001 5.49556C4.99934 5.35356 5.04734 5.2349 5.14401 5.13956C5.24067 5.04423 5.35934 4.99656 5.50001 4.99656H9.00001C9.00001 4.7899 9.07667 4.6099 9.23001 4.45656C9.38334 4.30323 9.56334 4.22656 9.77001 4.22656H14.23C14.4367 4.22656 14.6167 4.30323 14.77 4.45656C14.9233 4.6099 15 4.7899 15 4.99656H18.5C18.642 4.99656 18.7607 5.04456 18.856 5.14056C18.9513 5.23656 18.9993 5.35556 19 5.49756C19.0007 5.63956 18.9527 5.75823 18.856 5.85356C18.7593 5.9489 18.6407 5.99656 18.5 5.99656H18V18.3816C18 18.8256 17.8417 19.2056 17.525 19.5216C17.2083 19.8376 16.8283 19.9959 16.385 19.9966H7.61601ZM17 5.99656H7.00001V18.3816C7.00001 18.5609 7.05767 18.7082 7.17301 18.8236C7.28834 18.9389 7.43601 18.9966 7.61601 18.9966H16.385C16.5643 18.9966 16.7117 18.9389 16.827 18.8236C16.9423 18.7082 17 18.5609 17 18.3816V5.99656ZM10.308 16.9966C10.45 16.9966 10.569 16.9486 10.665 16.8526C10.761 16.7566 10.8087 16.6379 10.808 16.4966V8.49656C10.808 8.35456 10.76 8.2359 10.664 8.14056C10.568 8.04523 10.449 7.99723 10.307 7.99656C10.165 7.9959 10.0463 8.0439 9.95101 8.14056C9.85567 8.23723 9.80801 8.3559 9.80801 8.49656V16.4966C9.80801 16.6386 9.85601 16.7572 9.95201 16.8526C10.048 16.9486 10.1667 16.9966 10.308 16.9966ZM13.693 16.9966C13.835 16.9966 13.9537 16.9486 14.049 16.8526C14.1443 16.7566 14.192 16.6379 14.192 16.4966V8.49656C14.192 8.35456 14.144 8.2359 14.048 8.14056C13.952 8.04456 13.8333 7.99656 13.692 7.99656C13.55 7.99656 13.431 8.04456 13.335 8.14056C13.239 8.23656 13.1913 8.35523 13.192 8.49656V16.4966C13.192 16.6386 13.24 16.7572 13.336 16.8526C13.432 16.9479 13.551 16.9959 13.693 16.9966Z" fill="#E61320"/>
	</symbol>
	<symbol id="icon-disable-outline" viewBox="0 0 24 24" fill="none">
		<path d="M6.46154 6.46154L17.5385 17.5385M20 12C20 14.1217 19.1571 16.1566 17.6569 17.6569C16.1566 19.1571 14.1217 20 12 20C9.87827 20 7.84344 19.1571 6.34315 17.6569C4.84285 16.1566 4 14.1217 4 12C4 9.87827 4.84285 7.84344 6.34315 6.34315C7.84344 4.84285 9.87827 4 12 4C14.1217 4 16.1566 4.84285 17.6569 6.34315C19.1571 7.84344 20 9.87827 20 12Z" stroke="currentColor" stroke-width="1.5" stroke-linejoin="round"/>
	</symbol>
	<symbol id="icon-team" viewBox="0 0 24 24" fill="none">
		<path d="M8.5 21.25V5.5C8.5 5.03587 8.68437 4.59075 9.01256 4.26256C9.34075 3.93437 9.78587 3.75 10.25 3.75H17.25C17.7141 3.75 18.1592 3.93437 18.4874 4.26256C18.8156 4.59075 19 5.03587 19 5.5V21.25H8.5ZM8.5 21.25H6.75C6.28587 21.25 5.84075 21.0656 5.51256 20.7374C5.18437 20.4092 5 19.9641 5 19.5V14.25C5 13.7859 5.18437 13.3408 5.51256 13.0126C5.84075 12.6844 6.28587 12.5 6.75 12.5H8.5M12 7.25H15.5M12 10.75H15.5M12 14.25H15.5M12 17.75H15.5" stroke="currentColor" stroke-width="1.4" stroke-linecap="round" stroke-linejoin="round"/>
	</symbol>
	<symbol id="icon-embed-code" viewBox="0 0 18 18" fill="none">
		<path d="M4.10352 5.22949L4.89453 6.02051L1.92383 9L4.89453 11.9795L4.10352 12.7705L0.324219 9L4.10352 5.22949ZM13.8945 5.22949L17.6738 9L13.8945 12.7705L13.1035 11.9795L16.0742 9L13.1035 6.02051L13.8945 5.22949ZM6.16016 15.75L10.6602 2.25H11.8379L7.33789 15.75H6.16016Z" fill="black"/>
	</symbol>
	<symbol id="icon-thumbnail" viewBox="0 0 18 18" fill="none">
		<path d="M3.414 16C3.01092 16 2.67462 15.8652 2.40512 15.5957C2.13562 15.3262 2.00058 14.9897 2 14.586V3.414C2 3.01092 2.13504 2.67462 2.40512 2.40512C2.67521 2.13562 3.0115 2.00058 3.414 2H14.5869C14.9894 2 15.3257 2.13504 15.5957 2.40512C15.8658 2.67521 16.0006 3.0115 16 3.414V14.5869C16 14.9894 15.8652 15.3257 15.5957 15.5957C15.3262 15.8658 14.9897 16.0006 14.586 16H3.414ZM3.414 15.125H14.5869C14.721 15.125 14.8444 15.069 14.957 14.957C15.0696 14.845 15.1256 14.7213 15.125 14.586V3.414C15.125 3.27925 15.069 3.15558 14.957 3.043C14.845 2.93042 14.7213 2.87442 14.586 2.875H3.414C3.27925 2.875 3.15558 2.931 3.043 3.043C2.93042 3.155 2.87442 3.27867 2.875 3.414V14.5869C2.875 14.721 2.931 14.8444 3.043 14.957C3.155 15.0696 3.27925 15.1256 3.414 15.125Z" fill="black"/>
		<path d="M4 13H14L10.9117 9L8.05506 12.5098L6.14333 10.2658L4 13Z" fill="black"/>
	</symbol>
	<symbol id="icon-qr-code" viewBox="0 0 24 24" fill="none">
		<path d="M4 10.192V4.808C4 4.57934 4.07734 4.38734 4.232 4.232C4.38667 4.07667 4.57867 3.99934 4.808 4H10.192C10.4207 4 10.6127 4.07734 10.768 4.232C10.9233 4.38667 11.0007 4.57867 11 4.808V10.192C11 10.4213 10.9227 10.6133 10.768 10.768C10.6133 10.9227 10.4213 11 10.192 11H4.808C4.57934 11 4.38734 10.9227 4.232 10.768C4.07667 10.6133 3.99934 10.4213 4 10.192ZM5 10H10V5H5V10ZM4 19.192V13.808C4 13.5787 4.07734 13.3867 4.232 13.232C4.38667 13.0773 4.57867 13 4.808 13H10.192C10.4207 13 10.6127 13.0773 10.768 13.232C10.9233 13.3867 11.0007 13.5787 11 13.808V19.192C11 19.4207 10.9227 19.6127 10.768 19.768C10.6133 19.9233 10.4213 20.0007 10.192 20H4.808C4.57934 20 4.38734 19.9227 4.232 19.768C4.07667 19.6133 3.99934 19.4213 4 19.192ZM5 19H10V14H5V19ZM13 10.192V4.808C13 4.57934 13.0773 4.38734 13.232 4.232C13.3867 4.07667 13.5787 3.99934 13.808 4H19.192C19.4213 4 19.6133 4.07734 19.768 4.232C19.9227 4.38667 20 4.57867 20 4.808V10.192C20 10.4213 19.9227 10.6133 19.768 10.768C19.6133 10.9227 19.4213 11 19.192 11H13.808C13.5787 11 13.3867 10.9227 13.232 10.768C13.0773 10.6133 13 10.4213 13 10.192ZM14 10H19V5H14V10ZM18.25 20V18.25H20V20H18.25ZM13 14.75V13H14.75V14.75H13ZM14.75 16.5V14.75H16.5V16.5H14.75ZM13 18.25V16.5H14.75V18.25H13ZM14.75 20V18.25H16.5V20H14.75ZM16.5 18.25V16.5H18.25V18.25H16.5ZM16.5 14.75V13H18.25V14.75H16.5ZM18.25 16.5V14.75H20V16.5H18.25Z" fill="currentColor"/>
	</symbol>
	<symbol id="icon-alert-filled" viewBox="0 0 14 14" fill="none">
		<g opacity="0.5">
		<path d="M7.0013 9.91406C7.16658 9.91406 7.30522 9.85806 7.41722 9.74606C7.52922 9.63406 7.58502 9.49562 7.58464 9.33073V6.9974C7.58464 6.83212 7.52864 6.69367 7.41664 6.58206C7.30464 6.47045 7.16619 6.41445 7.0013 6.41406C6.83641 6.41367 6.69797 6.46967 6.58597 6.58206C6.47397 6.69445 6.41797 6.8329 6.41797 6.9974V9.33073C6.41797 9.49601 6.47397 9.63465 6.58597 9.74665C6.69797 9.85865 6.83641 9.91445 7.0013 9.91406ZM7.0013 5.2474C7.16658 5.2474 7.30522 5.1914 7.41722 5.0794C7.52922 4.9674 7.58502 4.82895 7.58464 4.66406C7.58425 4.49917 7.52825 4.36073 7.41664 4.24873C7.30502 4.13673 7.16658 4.08073 7.0013 4.08073C6.83602 4.08073 6.69758 4.13673 6.58597 4.24873C6.47436 4.36073 6.41836 4.49917 6.41797 4.66406C6.41758 4.82895 6.47358 4.96759 6.58597 5.07998C6.69836 5.19237 6.8368 5.24817 7.0013 5.2474ZM7.0013 12.8307C6.19436 12.8307 5.43603 12.6775 4.7263 12.3711C4.01658 12.0646 3.39922 11.6491 2.87422 11.1245C2.34922 10.5999 1.93369 9.98251 1.62764 9.2724C1.32158 8.56228 1.16836 7.80395 1.16797 6.9974C1.16758 6.19084 1.3208 5.43251 1.62764 4.7224C1.93447 4.01229 2.35 3.39492 2.87422 2.87031C3.39844 2.3457 4.0158 1.93017 4.7263 1.62373C5.4368 1.31728 6.19514 1.16406 7.0013 1.16406C7.80747 1.16406 8.5658 1.31728 9.2763 1.62373C9.9868 1.93017 10.6042 2.3457 11.1284 2.87031C11.6526 3.39492 12.0683 4.01229 12.3756 4.7224C12.6828 5.43251 12.8358 6.19084 12.8346 6.9974C12.8335 7.80395 12.6802 8.56228 12.375 9.2724C12.0697 9.98251 11.6542 10.5999 11.1284 11.1245C10.6026 11.6491 9.98525 12.0648 9.2763 12.3716C8.56736 12.6785 7.80902 12.8315 7.0013 12.8307Z" fill="currentColor"/>
		</g>
	</symbol>
	<symbol id="icon-alert" viewBox="0 0 18 18" fill="none" >
		<path d="M9 12.75C9.2125 12.75 9.39075 12.678 9.53475 12.534C9.67875 12.39 9.7505 12.212 9.75 12V9C9.75 8.7875 9.678 8.6095 9.534 8.466C9.39 8.3225 9.212 8.2505 9 8.25C8.788 8.2495 8.61 8.3215 8.466 8.466C8.322 8.6105 8.25 8.7885 8.25 9V12C8.25 12.2125 8.322 12.3907 8.466 12.5347C8.61 12.6787 8.788 12.7505 9 12.75ZM9 6.75C9.2125 6.75 9.39075 6.678 9.53475 6.534C9.67875 6.39 9.7505 6.212 9.75 6C9.7495 5.788 9.6775 5.61 9.534 5.466C9.3905 5.322 9.2125 5.25 9 5.25C8.7875 5.25 8.6095 5.322 8.466 5.466C8.3225 5.61 8.2505 5.788 8.25 6C8.2495 6.212 8.3215 6.39025 8.466 6.53475C8.6105 6.67925 8.7885 6.751 9 6.75ZM9 16.5C7.9625 16.5 6.9875 16.303 6.075 15.909C5.1625 15.515 4.36875 14.9808 3.69375 14.3063C3.01875 13.6318 2.4845 12.838 2.091 11.925C1.6975 11.012 1.5005 10.037 1.5 9C1.4995 7.963 1.6965 6.988 2.091 6.075C2.4855 5.162 3.01975 4.36825 3.69375 3.69375C4.36775 3.01925 5.1615 2.485 6.075 2.091C6.9885 1.697 7.9635 1.5 9 1.5C10.0365 1.5 11.0115 1.697 11.925 2.091C12.8385 2.485 13.6323 3.01925 14.3063 3.69375C14.9803 4.36825 15.5148 5.162 15.9098 6.075C16.3048 6.988 16.5015 7.963 16.5 9C16.4985 10.037 16.3015 11.012 15.909 11.925C15.5165 12.838 14.9823 13.6318 14.3063 14.3063C13.6303 14.9808 12.8365 15.5152 11.925 15.9097C11.0135 16.3042 10.0385 16.501 9 16.5ZM9 15C10.675 15 12.0938 14.4187 13.2563 13.2562C14.4187 12.0937 15 10.675 15 9C15 7.325 14.4187 5.90625 13.2563 4.74375C12.0938 3.58125 10.675 3 9 3C7.325 3 5.90625 3.58125 4.74375 4.74375C3.58125 5.90625 3 7.325 3 9C3 10.675 3.58125 12.0937 4.74375 13.2562C5.90625 14.4187 7.325 15 9 15Z" fill="currentColor"/>
	</symbol>
	<symbol id="icon-chevron-left" viewBox="0 0 24 24" fill="none">
		<path d="M15 18L9 12L15 6" stroke="currentColor" stroke-width="2" stroke-linecap="round" stroke-linejoin="round"/>
	</symbol>
	<symbol id="icon-chevron-right" viewBox="0 0 18 18" fill="none">
		<path fill-rule="evenodd" clip-rule="evenodd" d="M11.7822 9.53222C11.9228 9.39157 12.0018 9.20084 12.0018 9.00197C12.0018 8.80309 11.9228 8.61236 11.7822 8.47172L7.53947 4.22897C7.47028 4.15733 7.38752 4.1002 7.29602 4.06089C7.20452 4.02158 7.1061 4.00089 7.00652 4.00003C6.90693 3.99916 6.80817 4.01814 6.716 4.05585C6.62383 4.09356 6.54009 4.14925 6.46967 4.21967C6.39925 4.29009 6.34356 4.37383 6.30585 4.466C6.26814 4.55817 6.24916 4.65693 6.25003 4.75652C6.25089 4.8561 6.27158 4.95452 6.31089 5.04602C6.3502 5.13752 6.40733 5.22028 6.47897 5.28947L10.1915 9.00197L6.47897 12.7145C6.34235 12.8559 6.26675 13.0454 6.26846 13.242C6.27017 13.4387 6.34905 13.6268 6.4881 13.7658C6.62716 13.9049 6.81527 13.9838 7.01192 13.9855C7.20856 13.9872 7.39801 13.9116 7.53947 13.775L11.7822 9.53222Z" fill="currentColor"/>
	</symbol>
	<symbol id="icon-chevron-down" viewBox="0 0 18 18">
		<g clip-path="url(#clip0_11641_7194)">
		<path fill-rule="evenodd" clip-rule="evenodd" d="M9.53222 11.7822C9.39157 11.9228 9.20084 12.0018 9.00197 12.0018C8.80309 12.0018 8.61236 11.9228 8.47172 11.7822L4.22897 7.53947C4.15733 7.47028 4.1002 7.38752 4.06089 7.29602C4.02158 7.20452 4.00089 7.1061 4.00003 7.00652C3.99916 6.90693 4.01814 6.80817 4.05585 6.716C4.09356 6.62383 4.14925 6.54009 4.21967 6.46967C4.29009 6.39925 4.37383 6.34356 4.466 6.30585C4.55817 6.26814 4.65693 6.24916 4.75652 6.25003C4.8561 6.25089 4.95452 6.27158 5.04602 6.31089C5.13752 6.3502 5.22028 6.40733 5.28947 6.47897L9.00197 10.1915L12.7145 6.47897C12.8559 6.34235 13.0454 6.26675 13.242 6.26846C13.4387 6.27017 13.6268 6.34905 13.7658 6.4881C13.9049 6.62716 13.9838 6.81527 13.9855 7.01192C13.9872 7.20856 13.9116 7.39801 13.775 7.53947L9.53222 11.7822Z" fill="currentColor"/>
		</g>
	</symbol>
	<symbol id="icon-world" viewBox="0 0 24 24" fill="none">
		<path d="M4.53333 9.33333H19.4667M4.53333 14.6667H19.4667M4 12C4 13.0506 4.20693 14.0909 4.60896 15.0615C5.011 16.0321 5.60028 16.914 6.34315 17.6569C7.08601 18.3997 7.96793 18.989 8.93853 19.391C9.90914 19.7931 10.9494 20 12 20C13.0506 20 14.0909 19.7931 15.0615 19.391C16.0321 18.989 16.914 18.3997 17.6569 17.6569C18.3997 16.914 18.989 16.0321 19.391 15.0615C19.7931 14.0909 20 13.0506 20 12C20 9.87827 19.1571 7.84344 17.6569 6.34315C16.1566 4.84285 14.1217 4 12 4C9.87827 4 7.84344 4.84285 6.34315 6.34315C4.84285 7.84344 4 9.87827 4 12Z" stroke="black" stroke-width="1.2" stroke-linecap="round" stroke-linejoin="round"/>
		<path d="M11.557 4C10.0595 6.39966 9.26563 9.17144 9.26562 12C9.26563 14.8286 10.0595 17.6003 11.557 20M12.4459 4C13.9434 6.39966 14.7373 9.17144 14.7373 12C14.7373 14.8286 13.9434 17.6003 12.4459 20" stroke="black" stroke-width="1.2" stroke-linecap="round" stroke-linejoin="round"/>
	</symbol>
	<symbol id="icon-large-grid" viewBox="0 0 24 24">
		<rect x="5.6" y="5.6" width="4.8" height="4.8" fill="none" stroke="currentColor" stroke-width="1.2"/>
		<rect x="13.6" y="5.6" width="4.8" height="4.8" fill="none" stroke="currentColor" stroke-width="1.2"/>
		<rect x="5.6" y="13.6" width="4.8" height="4.8" fill="none" stroke="currentColor" stroke-width="1.2"/>
		<rect x="13.6" y="13.6" width="4.8" height="4.8" fill="none" stroke="currentColor" stroke-width="1.2"/>
	</symbol>
	<symbol id="icon-small-grid" viewBox="0 0 24 24">
		<path d="M8 8H4V4H8V8ZM14 4H10V8H14V4ZM20 4H16V8H20V4ZM8 10H4V14H8V10ZM14 10H10V14H14V10ZM20 10H16V14H20V10ZM8 16H4V20H8V16ZM14 16H10V20H14V16ZM20 16H16V20H20V16Z" fill="currentColor"/>
	</symbol>
	<symbol id="icon-list" viewBox="0 0 24 24">
		<path d="M4 6V6.00999M4 11.995V12.005M4 17.99V18" stroke="currentColor" stroke-width="3" stroke-linecap="round" stroke-linejoin="round"/>
		<path d="M9 6H20M9 12H20M9 18H20" stroke="currentColor" stroke-width="2" stroke-linecap="round" stroke-linejoin="round"/>
	</symbol>
	<symbol id="icon-check" viewBox="0 0 24 24" fill="none">
		<path d="M19 8.05145L10.0857 17L6 12.8986L7.04743 11.8471L10.0857 14.8896L17.9526 7L19 8.05145Z" fill="currentColor"/>
	</symbol>
	<symbol id="icon-copy" viewBox="0 0 24 24" fill="none">
		<path d="M5.33464 15.3346C4.41797 15.3346 3.66797 14.5846 3.66797 13.668V5.33464C3.66797 4.41797 4.41797 3.66797 5.33464 3.66797H13.668C14.5846 3.66797 15.3346 4.41797 15.3346 5.33464M10.3346 8.66797H18.668C19.5884 8.66797 20.3346 9.41416 20.3346 10.3346V18.668C20.3346 19.5884 19.5884 20.3346 18.668 20.3346H10.3346C9.41416 20.3346 8.66797 19.5884 8.66797 18.668V10.3346C8.66797 9.41416 9.41416 8.66797 10.3346 8.66797Z" stroke="currentColor" stroke-width="1.25" stroke-linecap="round" stroke-linejoin="round"/>
	</symbol>
	<symbol id="icon-share" viewBox="0 0 24 24" fill="none">
		<path fill-rule="evenodd" clip-rule="evenodd" d="M13.8001 6.59982C13.8001 5.99236 14.0129 5.40409 14.4014 4.93712C14.7899 4.47015 15.3297 4.15395 15.927 4.04341C16.5243 3.93288 17.1415 4.03497 17.6714 4.33199C18.2013 4.629 18.6105 5.10218 18.8279 5.66939C19.0454 6.23661 19.0573 6.86206 18.8617 7.43718C18.6662 8.01229 18.2754 8.50078 17.7572 8.81785C17.2391 9.13492 16.6263 9.26055 16.0252 9.17295C15.424 9.08535 14.8726 8.79003 14.4665 8.33827L12.2928 9.52389L9.86077 10.9135C10.2011 11.5119 10.2903 12.2208 10.1088 12.8848L14.4665 15.2616C14.8928 14.788 15.4783 14.4873 16.1117 14.4169C16.745 14.3465 17.3822 14.5111 17.9022 14.8795C18.4222 15.248 18.7888 15.7946 18.9323 16.4155C19.0758 17.0364 18.9863 17.6884 18.6808 18.2477C18.3752 18.8069 17.8749 19.2345 17.2748 19.4492C16.6748 19.6638 16.0168 19.6506 15.4258 19.4121C14.8349 19.1736 14.3521 18.7263 14.0692 18.1552C13.7863 17.5842 13.723 16.9291 13.8913 16.3145L9.53356 13.9384C9.20145 14.3078 8.77048 14.5743 8.29164 14.7064C7.8128 14.8386 7.30614 14.8308 6.8316 14.6839C6.35706 14.5371 5.9345 14.2575 5.61393 13.878C5.29336 13.4986 5.08819 13.0352 5.0227 12.5428C4.95721 12.0504 5.03413 11.5496 5.24438 11.0995C5.45462 10.6495 5.78938 10.2691 6.20905 10.0034C6.62872 9.7376 7.11572 9.59763 7.61245 9.6C8.10918 9.60237 8.59483 9.74697 9.01195 10.0167L11.708 8.47587L13.8913 7.28464C13.831 7.06135 13.8003 6.83111 13.8001 6.59982ZM16.4001 5.19979C16.0288 5.19979 15.6727 5.34729 15.4102 5.60985C15.1476 5.87241 15.0001 6.22851 15.0001 6.59982C15.0001 6.97114 15.1476 7.32724 15.4102 7.5898C15.6727 7.85235 16.0288 7.99986 16.4001 7.99986C16.7714 7.99986 17.1275 7.85235 17.3901 7.5898C17.6527 7.32724 17.8002 6.97114 17.8002 6.59982C17.8002 6.22851 17.6527 5.87241 17.3901 5.60985C17.1275 5.34729 16.7714 5.19979 16.4001 5.19979ZM7.59991 10.7999C7.2286 10.7999 6.8725 10.9474 6.60994 11.21C6.34738 11.4725 6.19988 11.8286 6.19988 12.2C6.19988 12.5713 6.34738 12.9274 6.60994 13.1899C6.8725 13.4525 7.2286 13.6 7.59991 13.6C7.97122 13.6 8.32733 13.4525 8.58989 13.1899C8.85244 12.9274 8.99995 12.5713 8.99995 12.2C8.99995 11.8286 8.85244 11.4725 8.58989 11.21C8.32733 10.9474 7.97122 10.7999 7.59991 10.7999ZM15.0001 17.0001C15.0001 16.6288 15.1476 16.2727 15.4102 16.0101C15.6727 15.7475 16.0288 15.6 16.4001 15.6C16.7714 15.6 17.1275 15.7475 17.3901 16.0101C17.6527 16.2727 17.8002 16.6288 17.8002 17.0001C17.8002 17.3714 17.6527 17.7275 17.3901 17.99C17.1275 18.2526 16.7714 18.4001 16.4001 18.4001C16.0288 18.4001 15.6727 18.2526 15.4102 17.99C15.1476 17.7275 15.0001 17.3714 15.0001 17.0001Z" fill="currentColor"/>
	</symbol>
	<symbol id="icon-lock" viewBox="0 0 24 24" fill="none">
		<path d="M8.11111 10.4449V8.11155C8.11111 7.08015 8.52083 6.09099 9.25014 5.36169C9.97945 4.63238 10.9686 4.22266 12 4.22266C13.0314 4.22266 14.0206 4.63238 14.7499 5.36169C15.4792 6.09099 15.8889 7.08015 15.8889 8.11155V10.4449M12.7778 15.1115C12.7778 15.5411 12.4296 15.8893 12 15.8893C11.5704 15.8893 11.2222 15.5411 11.2222 15.1115C11.2222 14.682 11.5704 14.3338 12 14.3338C12.4296 14.3338 12.7778 14.682 12.7778 15.1115ZM6.55556 10.4449H17.4444C18.3036 10.4449 19 11.1413 19 12.0004V18.2227C19 19.0818 18.3036 19.7782 17.4444 19.7782H6.55556C5.69645 19.7782 5 19.0818 5 18.2227V12.0004C5 11.1413 5.69645 10.4449 6.55556 10.4449Z" stroke="currentColor" stroke-width="1.2" stroke-linecap="round" stroke-linejoin="round"/>
	</symbol>
	<symbol id="icon-trash-with-clock" viewBox="0 0 24 24" fill="none">
		<path d="M5.25391 7.53822H19.0314M17.5005 7.53822V18.254C17.5005 19.0194 16.7351 19.7848 15.9697 19.7848H8.31556C7.55015 19.7848 6.78473 19.0194 6.78473 18.254V7.53822M9.08098 7.53822V6.00739C9.08098 5.24198 9.84639 4.47656 10.6118 4.47656H13.6735C14.4389 4.47656 15.2043 5.24198 15.2043 6.00739V7.53822" stroke="currentColor" stroke-width="1.25" stroke-linecap="round" stroke-linejoin="round"/>
		<path fill-rule="evenodd" clip-rule="evenodd" d="M22.2471 16.7241C22.2471 20.0215 19.5742 22.6944 16.2769 22.6944C12.9795 22.6944 10.3066 20.0215 10.3066 16.7241C10.3066 13.4268 12.9795 10.7539 16.2769 10.7539C19.5742 10.7539 22.2471 13.4268 22.2471 16.7241ZM16.2769 21.5003C17.5436 21.5003 18.7584 20.9971 19.6541 20.1014C20.5498 19.2057 21.0531 17.9909 21.0531 16.7241C21.0531 15.4574 20.5498 14.2426 19.6541 13.3469C18.7584 12.4512 17.5436 11.948 16.2769 11.948C15.0101 11.948 13.7953 12.4512 12.8996 13.3469C12.0039 14.2426 11.5007 15.4574 11.5007 16.7241C11.5007 17.9909 12.0039 19.2057 12.8996 20.1014C13.7953 20.9971 15.0101 21.5003 16.2769 21.5003Z" fill="currentColor"/>
		<path d="M16.2769 21.5003C17.5436 21.5003 18.7584 20.9971 19.6541 20.1014C20.5498 19.2057 21.0531 17.9909 21.0531 16.7241C21.0531 15.4574 20.5498 14.2426 19.6541 13.3469C18.7584 12.4512 17.5436 11.948 16.2769 11.948C15.0101 11.948 13.7953 12.4512 12.8996 13.3469C12.0039 14.2426 11.5007 15.4574 11.5007 16.7241C11.5007 17.9909 12.0039 19.2057 12.8996 20.1014C13.7953 20.9971 15.0101 21.5003 16.2769 21.5003Z" fill="white"/>
		<path fill-rule="evenodd" clip-rule="evenodd" d="M16.2748 13.1445C16.4331 13.1445 16.585 13.2074 16.6969 13.3194C16.8089 13.4314 16.8718 13.5832 16.8718 13.7416V16.3643L18.5315 17.2264C18.6011 17.2625 18.6629 17.312 18.7133 17.372C18.7638 17.4321 18.8019 17.5014 18.8256 17.5762C18.8492 17.6509 18.8579 17.7296 18.8511 17.8077C18.8444 17.8859 18.8223 17.9619 18.7861 18.0315C18.75 18.101 18.7005 18.1628 18.6405 18.2133C18.5805 18.2637 18.5111 18.3019 18.4363 18.3255C18.2853 18.3733 18.1216 18.3591 17.981 18.2861L16.2568 17.3906C16.0822 17.2998 15.9359 17.1628 15.8337 16.9946C15.7316 16.8264 15.6776 16.6333 15.6777 16.4365V13.7416C15.6777 13.5832 15.7406 13.4314 15.8526 13.3194C15.9646 13.2074 16.1164 13.1445 16.2748 13.1445Z" fill="currentColor"/>
	</symbol>
	<symbol id="icon-stats" viewBox="0 0 24 24" fill="none">
		<path d="M20.3346 7.83203L13.2513 14.9154L9.08464 10.7487L3.66797 16.1654M20.3346 7.83203H15.3346M20.3346 7.83203V12.832" stroke="currentColor" stroke-width="1.25" stroke-linecap="round" stroke-linejoin="round"/>
	</symbol>
	<symbol id="icon-pencil" viewBox="0 0 24 24" fill="none">
		<path d="M14.4 6.40036L17.6001 9.60043M19.3393 7.84999C19.7623 7.42712 19.9999 6.85354 20 6.25544C20.0001 5.65733 19.7626 5.0837 19.3397 4.66072C18.9168 4.23774 18.3433 4.00008 17.7452 4C17.1471 3.99992 16.5734 4.23745 16.1505 4.66032L5.47356 15.3398C5.28781 15.525 5.15045 15.753 5.07356 16.0038L4.01675 19.4855C3.99607 19.5546 3.99451 19.6281 4.01223 19.6981C4.02995 19.7681 4.06628 19.832 4.11739 19.8831C4.16849 19.9341 4.23245 19.9703 4.30248 19.9879C4.37251 20.0055 4.446 20.0039 4.51515 19.9831L7.99758 18.927C8.24812 18.8508 8.47613 18.7143 8.66159 18.5294L19.3393 7.84999Z" stroke="currentColor" stroke-width="1.25" stroke-linecap="round" stroke-linejoin="round"/>
	</symbol>
	<symbol id="icon-star" viewBox="0 0 24 24" fill="none">
		<path d="M11.607 3.91371C11.6435 3.83993 11.6999 3.77782 11.7698 3.7344C11.8398 3.69098 11.9205 3.66797 12.0028 3.66797C12.0851 3.66797 12.1658 3.69098 12.2358 3.7344C12.3057 3.77782 12.3621 3.83993 12.3986 3.91371L14.3236 7.81288C14.4504 8.06952 14.6376 8.29155 14.8692 8.45992C15.1007 8.6283 15.3696 8.73797 15.6528 8.77955L19.9578 9.40955C20.0394 9.42137 20.116 9.45577 20.179 9.50888C20.2421 9.56199 20.289 9.63167 20.3145 9.71005C20.34 9.78843 20.343 9.87239 20.3233 9.95241C20.3036 10.0324 20.2618 10.1053 20.2028 10.1629L17.0895 13.1945C16.8841 13.3946 16.7305 13.6416 16.6418 13.9142C16.5531 14.1869 16.532 14.477 16.5803 14.7595L17.3153 19.0429C17.3297 19.1244 17.3209 19.2084 17.2899 19.2851C17.2589 19.3619 17.2069 19.4284 17.1399 19.477C17.0729 19.5257 16.9936 19.5545 16.911 19.5603C16.8284 19.566 16.7459 19.5485 16.6728 19.5095L12.8245 17.4862C12.5709 17.3531 12.2888 17.2835 12.0024 17.2835C11.716 17.2835 11.4339 17.3531 11.1803 17.4862L7.3328 19.5095C7.25974 19.5482 7.1773 19.5656 7.09484 19.5598C7.01239 19.5539 6.93323 19.525 6.86638 19.4764C6.79953 19.4278 6.74766 19.3614 6.71668 19.2847C6.6857 19.2081 6.67685 19.1243 6.69114 19.0429L7.4253 14.7604C7.4738 14.4777 7.45279 14.1874 7.36408 13.9146C7.27538 13.6418 7.12164 13.3947 6.91614 13.1945L3.8028 10.1637C3.7433 10.1062 3.70113 10.0332 3.6811 9.95294C3.66108 9.87267 3.664 9.7884 3.68953 9.70971C3.71507 9.63102 3.76219 9.56108 3.82553 9.50787C3.88887 9.45465 3.96589 9.4203 4.0478 9.40871L8.35197 8.77955C8.63552 8.7383 8.90479 8.62876 9.13662 8.46037C9.36845 8.29198 9.55589 8.06977 9.6828 7.81288L11.607 3.91371Z" stroke="currentColor" stroke-width="1.25" stroke-linecap="round" stroke-linejoin="round"/>
	</symbol>
	<symbol id="icon-download" viewBox="0 0 24 24" fill="none">
		<path d="M19.5 14.5V17.8333C19.5 18.2754 19.3244 18.6993 19.0118 19.0118C18.6993 19.3244 18.2754 19.5 17.8333 19.5H6.16667C5.72464 19.5 5.30072 19.3244 4.98816 19.0118C4.67559 18.6993 4.5 18.2754 4.5 17.8333V14.5M7.83333 10.3333L12 14.5M12 14.5L16.1667 10.3333M12 14.5V4.5" stroke="currentColor" stroke-width="1.16667" stroke-linecap="round" stroke-linejoin="round"/>
	</symbol>
	<symbol id="icon-clock" viewBox="0 0 24 24" fill="none">
		<path d="M5 12C5 13.3845 5.41054 14.7378 6.17971 15.889C6.94888 17.0401 8.04213 17.9373 9.32121 18.4671C10.6003 18.997 12.0078 19.1356 13.3656 18.8655C14.7235 18.5954 15.9708 17.9287 16.9497 16.9497C17.9287 15.9708 18.5954 14.7235 18.8655 13.3656C19.1356 12.0078 18.997 10.6003 18.4671 9.32121C17.9373 8.04213 17.0401 6.94888 15.889 6.17971C14.7378 5.41054 13.3845 5 12 5C10.0431 5.00736 8.16475 5.77095 6.75778 7.13111L5 8.88889M5 8.88889V5M5 8.88889H8.88889M12 8.11111V12L15.1111 13.5555" stroke="currentColor" stroke-width="1.2" stroke-linecap="round" stroke-linejoin="round"/>
	</symbol>
	<symbol id="icon-check-right" viewBox="0 0 24 24" fill="none">
		<g clip-path="url(#clip0_9688_1420)">
		<path fill-rule="evenodd" clip-rule="evenodd" d="M16.728 11.4598C16.8746 11.6006 16.957 11.7916 16.957 11.9908C16.957 12.1899 16.8746 12.3809 16.728 12.5218L12.3021 16.7707C12.23 16.8424 12.1436 16.8997 12.0482 16.939C11.9527 16.9784 11.8501 16.9991 11.7462 17C11.6423 17.0008 11.5393 16.9818 11.4431 16.9441C11.347 16.9063 11.2596 16.8505 11.1862 16.78C11.1127 16.7095 11.0546 16.6256 11.0153 16.5333C10.976 16.441 10.9562 16.3421 10.9571 16.2424C10.958 16.1427 10.9795 16.0441 11.0205 15.9525C11.0616 15.8608 11.1212 15.7779 11.1959 15.7087L15.0686 11.9908L11.1959 8.27288C11.0534 8.13122 10.9745 7.9415 10.9763 7.74456C10.9781 7.54763 11.0604 7.35925 11.2054 7.21999C11.3505 7.08073 11.5467 7.00174 11.7518 7.00003C11.957 6.99832 12.1546 7.07402 12.3021 7.21084L16.728 11.4598Z" fill="currentColor"/>
		</g>
	</symbol>
	<symbol id="icon-check-bottom" viewBox="0 0 14 14" fill="none">
		<path d="M3.5 5.25L7 8.75L10.5 5.25" stroke="currentColor" stroke-width="1.75" stroke-linecap="round" stroke-linejoin="round"/>
	</symbol>
	<symbol id="icon-tick" viewBox="0 0 24 24" fill="none">
		<path d="M19 8.05145L10.0857 17L6 12.8986L7.04743 11.8471L10.0857 14.8896L17.9526 7L19 8.05145Z" fill="currentColor"/>
	</symbol>
	<symbol id="icon-link" viewBox="0 0 24 24" fill="none">
		<path d="M10.4554 12.5089C10.7504 12.9032 11.1267 13.2295 11.5588 13.4655C11.9909 13.7016 12.4687 13.842 12.9599 13.8772C13.451 13.9124 13.944 13.8415 14.4053 13.6694C14.8667 13.4973 15.2856 13.228 15.6337 12.8798L17.6941 10.8194C18.3196 10.1718 18.6657 9.3044 18.6579 8.40404C18.65 7.50369 18.2889 6.64243 17.6522 6.00576C17.0156 5.36909 16.1543 5.00795 15.254 5.00013C14.3536 4.99231 13.4862 5.33842 12.8386 5.96393L11.6573 7.13832M13.2026 11.1354C12.9076 10.7411 12.5313 10.4148 12.0992 10.1787C11.6671 9.94263 11.1893 9.80224 10.6981 9.76707C10.207 9.7319 9.71401 9.80276 9.25267 9.97486C8.79132 10.147 8.37238 10.4163 8.02426 10.7645L5.96393 12.8248C5.33842 13.4725 4.99231 14.3399 5.00013 15.2402C5.00795 16.1406 5.36909 17.0018 6.00576 17.6385C6.64243 18.2752 7.50369 18.6363 8.40404 18.6441C9.3044 18.652 10.1718 18.3058 10.8194 17.6803L11.9938 16.5059" stroke="currentColor" stroke-width="1.37355" stroke-linecap="round" stroke-linejoin="round"/>
	</symbol>
	<symbol id="icon-link-2" width="18" height="18" viewBox="0 0 18 18" fill="none" xmlns="http://www.w3.org/2000/svg">
		<g opacity="0.4">
			<path d="M12.5812 10.9861L11.7859 10.1907L13.3766 8.59887C14.6951 7.28149 14.8729 5.32287 13.7749 4.22374C12.6757 3.12574 10.7171 3.30349 9.3986 4.62199L7.80898 6.21274L7.01361 5.41737L8.60435 3.82662C10.3627 2.06937 13.0335 1.89162 14.5714 3.42837C16.1092 4.96624 15.9304 7.63699 14.1731 9.39537L12.5824 10.9861H12.5812ZM10.9905 12.5769L9.39973 14.1676C7.64136 15.9249 4.97061 16.1026 3.43273 14.5659C1.89486 13.028 2.07373 10.3572 3.83098 8.59887L5.42173 7.00812L6.21711 7.80349L4.62636 9.39537C3.30786 10.7127 3.13011 12.6714 4.22811 13.7705C5.32723 14.8685 7.28585 14.6907 8.60435 13.3722L10.1951 11.7815L10.9905 12.5769ZM10.9905 6.21274L11.7859 7.00812L7.01248 11.7815L6.21711 10.9861L10.9905 6.21274Z" fill="#0A0A0B"/>
		</g>
	</symbol>
	<symbol id="icon-crossed-eye" viewBox="0 0 24 24" fill="none">
		<path d="M8.67812 6.92459C9.72392 6.46942 10.8558 6.23457 12.0004 6.23529C14.4871 6.23529 16.468 7.31824 17.9415 8.59388C19.4192 9.87282 20.3532 11.3173 20.7244 11.9539C20.7333 11.9674 20.7379 11.9831 20.7378 11.9992C20.7386 12.0167 20.7335 12.034 20.7235 12.0486C20.3444 12.6898 19.9139 13.3006 19.436 13.8752C19.3804 13.9377 19.3382 14.0105 19.312 14.0892C19.2857 14.168 19.276 14.2511 19.2832 14.3337C19.2905 14.4162 19.3146 14.4965 19.3542 14.5697C19.3938 14.6429 19.4481 14.7076 19.5138 14.7599C19.5794 14.8122 19.6552 14.851 19.7365 14.874C19.8178 14.897 19.9031 14.9038 19.9871 14.894C20.0712 14.8841 20.1523 14.8578 20.2258 14.8166C20.2992 14.7754 20.3635 14.7202 20.4147 14.6542C20.9379 14.0285 21.4079 13.362 21.82 12.6613C21.9378 12.4606 21.9999 12.2332 22 12.0018C22.0001 11.7703 21.9384 11.5428 21.8208 11.342C21.4127 10.642 20.3987 9.07153 18.7779 7.66906C17.1538 6.26329 14.8885 5 12.0004 5C10.574 5 9.29494 5.308 8.16984 5.79306C8.01746 5.85955 7.89817 5.98238 7.83807 6.1347C7.77797 6.28702 7.78195 6.45643 7.84913 6.60589C7.91632 6.75535 8.04124 6.87269 8.19659 6.93226C8.35194 6.99183 8.52506 6.9896 8.67812 6.92459ZM18.0307 16.9305C16.484 18.0776 14.4686 19 12.0004 19C9.11234 19 6.84615 17.7367 5.22287 16.3318C3.60212 14.9285 2.58726 13.3572 2.17997 12.6572C2.06192 12.4568 1.99985 12.2295 2 11.9982C2.00015 11.7669 2.06251 11.5398 2.18081 11.3395C2.93383 10.0624 3.87428 8.90042 4.9721 7.89059L3.01054 6.53341C2.94025 6.48766 2.88006 6.42858 2.83352 6.35966C2.78698 6.29074 2.75504 6.21339 2.73959 6.13217C2.72414 6.05096 2.7255 5.96754 2.74358 5.88685C2.76166 5.80616 2.79609 5.72983 2.84485 5.6624C2.8936 5.59496 2.95568 5.53778 3.02742 5.49424C3.09916 5.4507 3.17909 5.42169 3.26248 5.40891C3.34588 5.39614 3.43105 5.39987 3.51295 5.41988C3.59485 5.43989 3.67181 5.47578 3.73929 5.52541L20.9903 17.4666C21.0606 17.5123 21.1208 17.5714 21.1673 17.6403C21.2138 17.7093 21.2458 17.7866 21.2612 17.8678C21.2767 17.949 21.2753 18.0325 21.2572 18.1132C21.2392 18.1938 21.2047 18.2702 21.156 18.3376C21.1072 18.405 21.0451 18.4622 20.9734 18.5058C20.9017 18.5493 20.8217 18.5783 20.7383 18.5911C20.6549 18.6039 20.5698 18.6001 20.4879 18.5801C20.406 18.5601 20.329 18.5242 20.2615 18.4746L18.0307 16.9305ZM6.02736 8.62188C4.57154 9.89094 3.64756 11.3173 3.2773 11.9522C3.26744 11.9666 3.26243 11.9836 3.26299 12.0008C3.26187 12.0135 3.26636 12.0285 3.27645 12.0461C3.64756 12.6835 4.58164 14.1272 6.05933 15.4061C7.53198 16.6818 9.51374 17.7647 12.0004 17.7647C13.9645 17.7647 15.6105 17.0894 16.9434 16.1778L13.9847 14.1296C13.4885 14.5729 12.8524 14.8369 12.1818 14.8777C11.5113 14.9186 10.8466 14.7338 10.2981 14.3541C9.74957 13.9745 9.35019 13.4227 9.1662 12.7903C8.98221 12.1579 9.02467 11.483 9.28653 10.8775L6.02736 8.62271V8.62188Z" fill="currentColor"/>
	</symbol>
	<symbol id="icon-arrow-left" viewBox="0 0 24 24" fill="none">
		<path d="M18 11.25H8.8725L13.065 7.0575L12 6L6 12L12 18L13.0575 16.9425L8.8725 12.75H18V11.25Z" fill="currentColor"/>
	</symbol>
	<symbol id="icon-upload" viewBox="0 0 24 24" fill="none">
		<path d="M19 14.3333V17.4444C19 17.857 18.8361 18.2527 18.5444 18.5444C18.2527 18.8361 17.857 19 17.4444 19H6.55556C6.143 19 5.74733 18.8361 5.45561 18.5444C5.16389 18.2527 5 17.857 5 17.4444V14.3333M15.8889 8.88889L12 5M12 5L8.11111 8.88889M12 5V14.3333" stroke="currentColor" stroke-width="1.25" stroke-linecap="round" stroke-linejoin="round"/>
	</symbol>
	<symbol id="icon-upload-medium" viewBox="0 0 19 18" fill="none">
		<path d="M3.5 12.75V14.25C3.5 14.6478 3.65804 15.0294 3.93934 15.3107C4.22064 15.592 4.60218 15.75 5 15.75H14C14.3978 15.75 14.7794 15.592 15.0607 15.3107C15.342 15.0294 15.5 14.6478 15.5 14.25V12.75M5.75 6.75L9.5 3M9.5 3L13.25 6.75M9.5 3V12" stroke="currentColor" stroke-width="1.5" stroke-linecap="round" stroke-linejoin="round"/>
	</symbol>
	<symbol id="icon-trash" viewBox="0 0 24 24" fill="none">
		<path d="M4.5 7.0013H19.5M17.8333 7.0013V18.668C17.8333 19.5013 17 20.3346 16.1667 20.3346H7.83333C7 20.3346 6.16667 19.5013 6.16667 18.668V7.0013M8.66667 7.0013V5.33464C8.66667 4.5013 9.5 3.66797 10.3333 3.66797H13.6667C14.5 3.66797 15.3333 4.5013 15.3333 5.33464V7.0013M10.3333 11.168V16.168M13.6667 11.168V16.168" stroke="currentColor" stroke-width="1.25" stroke-linecap="round" stroke-linejoin="round"/>
	</symbol>
	<symbol id="icon-info" viewBox="0 0 18 18" fill="none">
		<path d="M9 11.4V9M9 6.6H9.006M15 9C15 12.3137 12.3137 15 9 15C5.68629 15 3 12.3137 3 9C3 5.68629 5.68629 3 9 3C12.3137 3 15 5.68629 15 9Z" stroke="currentColor" stroke-width="1.125" stroke-linecap="round" stroke-linejoin="round"/>
	</symbol>
	<symbol id="icon-browser" viewBox="0 0 24 24" fill="none">
		<path d="M19.9994 11.9997C19.9994 14.1214 19.1566 16.1561 17.6564 17.6564C16.1561 19.1566 14.1214 19.9994 11.9997 19.9994C9.87806 19.9994 7.8433 19.1566 6.34306 17.6564C4.84283 16.1561 4 14.1214 4 11.9997M19.9994 11.9997C19.9994 9.87806 19.1566 7.8433 17.6564 6.34306C16.1561 4.84283 14.1214 4 11.9997 4C9.87806 4 7.8433 4.84283 6.34306 6.34306C4.84283 7.8433 4 9.87806 4 11.9997M19.9994 11.9997H4" stroke="currentColor" stroke-width="1.4" stroke-linecap="round" stroke-linejoin="round"/>
		<path d="M15.0775 11.9997C14.9263 14.9251 13.8488 17.7267 12.0006 19.9994C10.1525 17.7267 9.07496 14.9251 8.92383 11.9997C9.07496 9.0743 10.1525 6.27272 12.0006 4C13.8488 6.27272 14.9263 9.0743 15.0775 11.9997Z" stroke="currentColor" stroke-width="1.4" stroke-linecap="round" stroke-linejoin="round"/>
	</symbol>
	<symbol id="icon-screen" viewBox="0 0 24 24" fill="none">
		<path d="M5 9.375V6.75C5 6.28587 5.18437 5.84075 5.51256 5.51256C5.84075 5.18437 6.28587 5 6.75 5H9.375M19 14.625V17.25C19 17.7141 18.8156 18.1592 18.4874 18.4874C18.1592 18.8156 17.7141 19 17.25 19H14.625M14.625 5H17.25C17.7141 5 18.1592 5.18437 18.4874 5.51256C18.8156 5.84075 19 6.28587 19 6.75V9.375M9.375 19H6.75C6.28587 19 5.84075 18.8156 5.51256 18.4874C5.18437 18.1592 5 17.7141 5 17.25V14.625" stroke="currentColor" stroke-width="1.5" stroke-linecap="round" stroke-linejoin="round"/>
	</symbol>
	<symbol id="icon-close" viewBox="0 0 14 14" fill="none">
		<path d="M3 3L11 11M3 11L11 3" stroke="currentColor" stroke-width="1.5" stroke-linecap="round" stroke-linejoin="round"/>
	</symbol>
	<symbol id="icon-ip" viewBox="0 0 24 24" fill="none">
		<path d="M17.5455 7C18.0977 7 18.5455 7.44772 18.5455 8V16C18.5455 16.5523 18.0977 17 17.5455 17H6.45455C5.90226 17 5.45455 16.5523 5.45455 16V8C5.45455 7.44772 5.90226 7 6.45455 7H17.5455ZM18.5455 5H5.45455C5.06878 5 4.69881 5.24583 4.42603 5.68342C4.15325 6.121 4 6.71449 4 7.33333V16.6667C4 17.2855 4.15325 17.879 4.42603 18.3166C4.69881 18.7542 5.06878 19 5.45455 19H18.5455C18.9312 19 19.3012 18.7542 19.574 18.3166C19.8468 17.879 20 17.2855 20 16.6667V7.33333C20 6.71449 19.8468 6.121 19.574 5.68342C19.3012 5.24583 18.9312 5 18.5455 5Z" fill="currentColor"/>
		<path d="M9 10.0002H10.3333V14H9V10.0002ZM14.9999 10.0002H12.3333V14H13.6666V12.6667H14.9999C15.1318 12.6692 15.263 12.645 15.3854 12.5956C15.5078 12.5462 15.619 12.4726 15.7124 12.3793C15.8057 12.2859 15.8793 12.1747 15.9287 12.0523C15.9781 11.9299 16.0023 11.7988 15.9998 11.6668V11.0001C16.0023 10.8681 15.9781 10.737 15.9287 10.6146C15.8793 10.4922 15.8057 10.381 15.7124 10.2876C15.619 10.1943 15.5078 10.1207 15.3854 10.0713C15.263 10.0219 15.1318 9.99773 14.9999 10.0002ZM14.9999 12.0001H13.6666V10.6668H14.9999V12.0001Z" fill="currentColor"/>
	</symbol>
	<symbol id="icon-dots-horizontal" viewBox="0 0 24 17" fill="none">
		<rect width="15" height="4" transform="translate(5 6.5)" fill="none"/>
		<circle cx="7.5" cy="8.5" r="1.5" fill="currentColor"/>
		<circle cx="12.5" cy="8.5" r="1.5" fill="currentColor"/>
		<circle cx="17.5" cy="8.5" r="1.5" fill="currentColor"/>
	</symbol>
	<symbol id="icon-dots-horizontal-big" viewBox="0 024 24" fill="none">
		<circle cx="5.5" cy="12.5" r="2" fill="#0A0A0B"/>
		<circle cx="12.5" cy="12.5" r="2" fill="#0A0A0B"/>
		<circle cx="19.5" cy="12.5" r="2" fill="#0A0A0B"/>
	</symbol>
	<symbol id="icon-folder" viewBox="0 0 24 26" fill="none">
		<path d="M13.8333 7.4H20C21.6569 7.4 23 8.74314 23 10.4V18C23 19.6569 21.6569 21 20 21H4C2.34315 21 1 19.6569 1 18L1 7.4M13.8333 7.4L12.2867 5.24876C11.723 4.46477 10.8165 4 9.85088 4H4C2.34315 4 1 5.34315 1 7V7.4M13.8333 7.4H1" stroke="currentColor"/>
	</symbol>
	<symbol id="icon-search" viewBox="0 0 17 17" fill="none">
		<path d="M7.96365 0.214844C12.3618 0.214844 15.9273 3.70154 15.9273 8.00261C15.9273 10.0324 15.1332 11.8808 13.8323 13.267L16.3908 15.7614C16.6306 15.9954 16.6311 16.3751 16.3919 16.6096C16.1745 16.8228 15.8338 16.8426 15.5935 16.6687L15.5246 16.6107L12.9359 14.0862C11.5733 15.1526 9.84464 15.7904 7.96365 15.7904C3.56545 15.7904 0 12.3037 0 8.00261C0 3.70154 3.56545 0.214844 7.96365 0.214844ZM7.96365 1.41437C4.24289 1.41437 1.22662 4.36402 1.22662 8.00261C1.22662 11.6412 4.24289 14.5908 7.96365 14.5908C11.6844 14.5908 14.7007 11.6412 14.7007 8.00261C14.7007 4.36402 11.6844 1.41437 7.96365 1.41437Z" fill="currentColor"/>
	</symbol>
	<symbol id="icon-bell" viewBox="0 0 20 21" fill="none">
		<path d="M14 16C14 17.1046 12.2091 19.5 10 19.5C7.79086 19.5 6 17.1046 6 16M4 7C4 5.4087 4.63214 3.88258 5.75736 2.75736C6.88258 1.63214 8.4087 1 10 1C11.5913 1 13.1174 1.63214 14.2426 2.75736C15.3679 3.88258 16 5.4087 16 7C16 14 19 16 19 16H1C1 16 4 14 4 7Z" stroke="currentColor" stroke-width="1.65" stroke-linecap="round" stroke-linejoin="round"/>
	</symbol>
	<symbol id="icon-user" viewBox="0 0 24 24" fill="none">
		<path d="M12 4C11.2309 4 10.479 4.23151 9.83945 4.66525C9.19992 5.09899 8.70148 5.71549 8.40714 6.43678C8.11279 7.15806 8.03578 7.95175 8.18584 8.71746C8.33589 9.48318 8.70627 10.1865 9.25014 10.7386C9.79401 11.2906 10.4869 11.6666 11.2413 11.8189C11.9957 11.9712 12.7776 11.893 13.4882 11.5943C14.1988 11.2955 14.8062 10.7896 15.2335 10.1404C15.6608 9.49127 15.8889 8.72808 15.8889 7.94737C15.8889 6.90046 15.4792 5.89643 14.7499 5.15616C14.0206 4.41588 13.0314 4 12 4ZM12 10.3158C11.5385 10.3158 11.0874 10.1769 10.7037 9.91664C10.32 9.65639 10.0209 9.2865 9.84428 8.85372C9.66768 8.42095 9.62147 7.94474 9.7115 7.48531C9.80153 7.02588 10.0238 6.60387 10.3501 6.27264C10.6764 5.94141 11.0922 5.71584 11.5448 5.62446C11.9974 5.53307 12.4666 5.57997 12.8929 5.75923C13.3193 5.93849 13.6837 6.24206 13.9401 6.63154C14.1965 7.02103 14.3333 7.47894 14.3333 7.94737C14.3333 8.57551 14.0875 9.17793 13.6499 9.6221C13.2123 10.0663 12.6188 10.3158 12 10.3158ZM19 19V18.2105C19 16.7449 18.4264 15.3392 17.4054 14.3028C16.3843 13.2664 14.9995 12.6842 13.5556 12.6842H10.4444C9.00049 12.6842 7.61567 13.2664 6.59464 14.3028C5.57361 15.3392 5 16.7449 5 18.2105V19H6.55556V18.2105C6.55556 17.1636 6.96528 16.1596 7.69458 15.4193C8.42389 14.679 9.41305 14.2632 10.4444 14.2632H13.5556C14.587 14.2632 15.5761 14.679 16.3054 15.4193C17.0347 16.1596 17.4444 17.1636 17.4444 18.2105V19H19Z" fill="currentColor"/>
	</symbol>
	<symbol id="icon-workspace" viewBox="0 0 24 24" fill="none">
		<path d="M12.8889 9.33333V4H20V9.33333H12.8889ZM4 12.8889V4H11.1111V12.8889H4ZM12.8889 20V11.1111H20V20H12.8889ZM4 20V14.6667H11.1111V20H4ZM5.77778 11.1111H9.33333V5.77778H5.77778V11.1111ZM14.6667 18.2222H18.2222V12.8889H14.6667V18.2222ZM14.6667 7.55556H18.2222V5.77778H14.6667V7.55556ZM5.77778 18.2222H9.33333V16.4444H5.77778V18.2222Z" fill="currentColor"/>
	</symbol>
	<symbol id="icon-help" viewBox="0 0 24 24" fill="none">
		<path d="M9.672 9.6C9.86008 9.06533 10.2313 8.61449 10.72 8.32731C11.2086 8.04013 11.7831 7.93515 12.3417 8.03097C12.9004 8.12679 13.4071 8.41722 13.7721 8.85082C14.1371 9.28443 14.3368 9.83322 14.336 10.4C14.336 12 11.936 12.8 11.936 12.8M12 16H12.008M20 12C20 16.4183 16.4183 20 12 20C7.58172 20 4 16.4183 4 12C4 7.58172 7.58172 4 12 4C16.4183 4 20 7.58172 20 12Z" stroke="currentColor" stroke-width="1.2" stroke-linecap="round" stroke-linejoin="round"/>
	</symbol>
	<symbol id="icon-message-alert" viewBox="0 0 24 24" fill="none">
		<path d="M12 7.55556V9.33333M12 12.8889H12.0089M20 14.6667C20 15.1382 19.8127 15.5903 19.4793 15.9237C19.1459 16.2571 18.6937 16.4444 18.2222 16.4444H7.55556L4 20V5.77778C4 5.30628 4.1873 4.8541 4.5207 4.5207C4.8541 4.1873 5.30628 4 5.77778 4H18.2222C18.6937 4 19.1459 4.1873 19.4793 4.5207C19.8127 4.8541 20 5.30628 20 5.77778V14.6667Z" stroke="currentColor" stroke-width="1.2" stroke-linecap="round" stroke-linejoin="round"/>
	</symbol>
	<symbol id="icon-sign-out" viewBox="0 0 24 24" fill="none">
		<path d="M9.33333 20H5.77778C5.30628 20 4.8541 19.8127 4.5207 19.4793C4.1873 19.1459 4 18.6937 4 18.2222V5.77778C4 5.30628 4.1873 4.8541 4.5207 4.5207C4.8541 4.1873 5.30628 4 5.77778 4H9.33333M15.5556 16.4444L20 12M20 12L15.5556 7.55556M20 12H9.33333" stroke="currentColor" stroke-width="1.2" stroke-linecap="round" stroke-linejoin="round"/>
	</symbol>
	<symbol id="icon-merge" viewBox="0 0 24 24" fill="none">
		<path d="M7.175 15.8258L5.75 14.4258L7.175 13.0008H2V11.0008H7.175L5.75 9.57578L7.175 8.17578L11 12.0008L7.175 15.8258ZM16.825 15.8258L13 12.0008L16.825 8.17578L18.25 9.57578L16.825 11.0008H22V13.0008H16.825L18.25 14.4258L16.825 15.8258Z" fill="currentColor"/>
	</symbol>
	<symbol id="icon-check-bold" viewBox="0 0 9 7" fill="none">
		<path fill-rule="evenodd" clip-rule="evenodd" d="M8.49392 1.43274C8.57351 1.35587 8.637 1.26391 8.68067 1.16224C8.72434 1.06057 8.74733 0.951224 8.74829 0.840574C8.74926 0.729925 8.72817 0.620192 8.68627 0.517779C8.64437 0.415365 8.58249 0.322321 8.50425 0.244077C8.426 0.165833 8.33296 0.103956 8.23055 0.0620551C8.12813 0.0201544 8.0184 -0.000930049 7.90775 3.14644e-05C7.7971 0.000992978 7.68775 0.0239814 7.58608 0.0676556C7.48441 0.11133 7.39246 0.174815 7.31559 0.254406L3.19059 4.37941L1.42309 2.61191C1.34572 2.53448 1.25385 2.47305 1.15274 2.43113C1.05163 2.38921 0.943254 2.36761 0.833797 2.36757C0.612738 2.36749 0.400703 2.45523 0.244335 2.61149C0.0879682 2.76775 7.81923e-05 2.97972 5.21481e-08 3.20078C-7.8088e-05 3.42184 0.0876622 3.63387 0.243919 3.79024L2.54225 6.08857C2.62738 6.17374 2.72845 6.2413 2.83969 6.28739C2.95094 6.33349 3.07017 6.35721 3.19059 6.35721C3.311 6.35721 3.43023 6.33349 3.54148 6.28739C3.65272 6.2413 3.75379 6.17374 3.83892 6.08857L8.49392 1.43274Z" fill="currentColor"></path>
	</symbol>
	<symbol id="icon-play" viewBox="0 0 48 48">
		<path d="M24 48C37.2552 48 48 37.2552 48 24C48 10.7448 37.2552 0 24 0C10.7448 0 0 10.7448 0 24C0 37.2552 10.7448 48 24 48Z" fill="currentColor" fill-opacity="0.8"/>
		<path d="M19.1992 24.0011V17.6266C19.1992 16.7647 20.1322 16.2261 20.8785 16.657L26.3992 19.8443L31.9199 23.0315C32.6662 23.4625 32.6662 24.5397 31.9199 24.9707L26.3992 28.1579L20.8785 31.3452C20.1322 31.7761 19.1992 31.2374 19.1992 30.3756V24.0011Z" fill="white"/>
	</symbol>
	<symbol id="icon-laptop" viewBox="0 0 24 24" fill="none">
		<path d="M6.75 6C6.15326 6 5.58097 6.23705 5.15901 6.65901C4.73705 7.08097 4.5 7.65326 4.5 8.25V14.25C4.5 14.8467 4.73705 15.419 5.15901 15.841C5.58097 16.2629 6.15326 16.5 6.75 16.5H17.25C17.8467 16.5 18.419 16.2629 18.841 15.841C19.2629 15.419 19.5 14.8467 19.5 14.25V8.25C19.5 7.65326 19.2629 7.08097 18.841 6.65901C18.419 6.23705 17.8467 6 17.25 6H6.75ZM6 8.25C6 8.05109 6.07902 7.86032 6.21967 7.71967C6.36032 7.57902 6.55109 7.5 6.75 7.5H17.25C17.4489 7.5 17.6397 7.57902 17.7803 7.71967C17.921 7.86032 18 8.05109 18 8.25V14.25C18 14.4489 17.921 14.6397 17.7803 14.7803C17.6397 14.921 17.4489 15 17.25 15H6.75C6.55109 15 6.36032 14.921 6.21967 14.7803C6.07902 14.6397 6 14.4489 6 14.25V8.25ZM3.75 18C3.55109 18 3.36032 18.079 3.21967 18.2197C3.07902 18.3603 3 18.5511 3 18.75C3 18.9489 3.07902 19.1397 3.21967 19.2803C3.36032 19.421 3.55109 19.5 3.75 19.5H20.25C20.4489 19.5 20.6397 19.421 20.7803 19.2803C20.921 19.1397 21 18.9489 21 18.75C21 18.5511 20.921 18.3603 20.7803 18.2197C20.6397 18.079 20.4489 18 20.25 18H3.75Z" fill="#091329"/>
	</symbol>
	<symbol id="icon-folder-with-plus" viewBox="0 0 24 24" fill="none">
		<path d="M11.1126 6.8H17C18.1046 6.8 19 7.69543 19 8.8V9.6M11.1126 6.8L9.96345 4.94624C9.59875 4.35792 8.95577 4 8.26358 4H4C2.89543 4 2 4.89543 2 6V6.8M11.1126 6.8H2M2 6.8L2 16C2 17.1046 2.89543 18 4 18H10.5H12" stroke="currentColor" stroke-width="1.3" stroke-linecap="round"/>
		<path d="M18.3333 17.6667H15.6667C15.4773 17.6667 15.3191 17.6027 15.192 17.4747C15.0649 17.3467 15.0009 17.188 15 16.9987C14.9991 16.8093 15.0631 16.6511 15.192 16.524C15.3209 16.3969 15.4791 16.3333 15.6667 16.3333H18.3333V13.6667C18.3333 13.4773 18.3973 13.3191 18.5253 13.192C18.6533 13.0649 18.812 13.0009 19.0013 13C19.1907 12.9991 19.3489 13.0631 19.476 13.192C19.6031 13.3209 19.6667 13.4791 19.6667 13.6667V16.3333H22.3333C22.5227 16.3333 22.6809 16.3973 22.808 16.5253C22.9351 16.6533 22.9991 16.812 23 17.0013C23.0009 17.1907 22.9369 17.3489 22.808 17.476C22.6791 17.6031 22.5209 17.6667 22.3333 17.6667H19.6667V20.3333C19.6667 20.5227 19.6027 20.6809 19.4747 20.808C19.3467 20.9351 19.188 20.9991 18.9987 21C18.8093 21.0009 18.6511 20.9369 18.524 20.808C18.3969 20.6791 18.3333 20.5209 18.3333 20.3333V17.6667Z" fill="currentColor"/>
	</symbol>
	<symbol id="icon-file-upload" viewBox="0 0 24 24" fill="none">
		<path d="M14.3158 3.83594L18 8.29048V12M18 9.18139H15.0526C14.6618 9.18139 14.2869 8.99367 14.0106 8.65951C13.7342 8.32535 13.5789 7.87214 13.5789 7.39957V3.83594H6.33333C5.04467 3.83594 4 4.88061 4 6.16927V17.8359C4 19.1246 5.04467 20.1693 6.33333 20.1693H12" stroke="currentColor" stroke-width="1.3" stroke-linecap="round" stroke-linejoin="round"/>
		<path d="M18.4316 15.173C18.3189 15.0622 18.1661 15 18.0068 15C17.8474 15 17.6946 15.0622 17.582 15.173L14.3866 18.3074C14.3292 18.3619 14.2834 18.4272 14.2519 18.4993C14.2204 18.5714 14.2038 18.6489 14.2031 18.7274C14.2025 18.8059 14.2177 18.8837 14.2479 18.9563C14.2781 19.029 14.3227 19.095 14.3791 19.1505C14.4355 19.206 14.5026 19.2498 14.5765 19.2796C14.6503 19.3093 14.7294 19.3242 14.8092 19.3236C14.889 19.3229 14.9678 19.3066 15.0412 19.2756C15.1145 19.2446 15.1808 19.1996 15.2362 19.1431L17.4059 17.0177L17.4058 22.409C17.4058 22.5657 17.4691 22.716 17.5818 22.8269C17.6945 22.9377 17.8473 23 18.0067 23C18.1661 23 18.3189 22.9377 18.4316 22.8269C18.5443 22.716 18.6076 22.5657 18.6076 22.409L18.6076 17.0177L20.7853 18.7274C20.8986 18.8351 21.0504 18.8946 21.208 18.8933C21.3655 18.8919 21.5162 18.8298 21.6276 18.7202C21.739 18.6106 21.8022 18.4624 21.8036 18.3074C21.8049 18.1524 21.7444 18.0031 21.6349 17.8917L18.4316 15.173Z" fill="currentColor"/>
	</symbol>
	<symbol id="icon-folder-upload" viewBox="0 0 24 24" fill="none">
		<path d="M12.1126 8.6H18C19.1046 8.6 20 9.49543 20 10.6V11.5M12.1126 8.6L10.9707 6.88954C10.5997 6.33375 9.97558 6 9.30733 6H5C3.89543 6 3 6.89543 3 8V8.6M12.1126 8.6H3M3 8.6L3 17C3 18.1046 3.89543 19 5 19H14" stroke="currentColor" stroke-width="1.3" stroke-linecap="round"/>
		<path d="M20.4316 14.173C20.3189 14.0622 20.1661 14 20.0068 14C19.8474 14 19.6946 14.0622 19.582 14.173L16.3866 17.3074C16.3292 17.3619 16.2834 17.4272 16.2519 17.4993C16.2204 17.5714 16.2038 17.6489 16.2031 17.7274C16.2025 17.8059 16.2177 17.8837 16.2479 17.9563C16.2781 18.029 16.3227 18.095 16.3791 18.1505C16.4355 18.206 16.5026 18.2498 16.5765 18.2796C16.6503 18.3093 16.7294 18.3242 16.8092 18.3236C16.889 18.3229 16.9678 18.3066 17.0412 18.2756C17.1145 18.2446 17.1808 18.1996 17.2362 18.1431L19.4059 16.0177L19.4058 21.409C19.4058 21.5657 19.4691 21.716 19.5818 21.8269C19.6945 21.9377 19.8473 22 20.0067 22C20.1661 22 20.3189 21.9377 20.4316 21.8269C20.5443 21.716 20.6076 21.5657 20.6076 21.409L20.6076 16.0177L22.7853 17.7274C22.8986 17.8351 23.0504 17.8946 23.208 17.8933C23.3655 17.8919 23.5162 17.8298 23.6276 17.7202C23.739 17.6106 23.8022 17.4624 23.8036 17.3074C23.8049 17.1524 23.7444 17.0031 23.6349 16.8917L20.4316 14.173Z" fill="currentColor"/>
	</symbol>
	<symbol id="icon-record-video" viewBox="0 0 24 24" fill="none">
		<path fill-rule="evenodd" clip-rule="evenodd" d="M4.99403 6.80078H14.3704C16.1383 6.80078 17.5715 8.23394 17.5715 10.0018V16.005C17.5715 17.7729 16.1383 19.2061 14.3704 19.2061H4.99403C3.22613 19.2061 1.79297 17.7729 1.79297 16.005V10.0018C1.79297 8.23395 3.22613 6.80078 4.99403 6.80078ZM4.99403 8.00078C3.88887 8.00078 2.99297 8.89669 2.99297 10.0018V16.005C2.99297 17.1102 3.88887 18.0061 4.99403 18.0061H14.3704C15.4756 18.0061 16.3715 17.1102 16.3715 16.005V10.0018C16.3715 8.89669 15.4756 8.00078 14.3704 8.00078H4.99403Z" fill="currentColor"/>
		<path fill-rule="evenodd" clip-rule="evenodd" d="M13.4557 7.72679H5.91016V6.50105C5.91016 5.56201 6.67139 4.80078 7.61042 4.80078H11.7555C12.6945 4.80078 13.4557 5.56202 13.4557 6.50105V7.72679ZM12.2557 7.00131V6.50105C12.2557 6.22476 12.0318 6.00078 11.7555 6.00078H7.61042C7.33413 6.00078 7.11016 6.22476 7.11016 6.50105V7.00131H12.2557Z" fill="currentColor"/>
		<path fill-rule="evenodd" clip-rule="evenodd" d="M20.4007 9.37368L17.8065 11.7758C17.5633 12.0009 17.1837 11.9863 16.9586 11.7432C16.7334 11.5 16.748 11.1204 16.9912 10.8953L19.7529 8.33808C20.4573 7.68587 21.6007 8.18544 21.6007 9.14541V16.8607C21.6007 17.8207 20.4573 18.3203 19.7529 17.6681L16.9912 15.1109C16.748 14.8857 16.7334 14.5061 16.9586 14.263C17.1837 14.0198 17.5633 14.0052 17.8065 14.2304L20.4007 16.6325V9.37368Z" fill="currentColor"/>
	</symbol>
	<symbol id="icon-capture-screenshot" viewBox="0 0 24 22" fill="none">
		<path d="M4 5C4 3.89543 4.89543 3 6 3H17C18.1046 3 19 3.89543 19 5V16C19 17.1046 18.1046 18 17 18H6C4.89543 18 4 17.1046 4 16V5Z" fill="none"/>
		<path fill-rule="evenodd" clip-rule="evenodd" d="M6 18C4.89543 18 4 17.1046 4 16V12.7357C4.71797 12.7357 5.3 13.3177 5.3 14.0357V16C5.3 16.3866 5.6134 16.7 6 16.7H7.96429C8.68226 16.7 9.26429 17.282 9.26429 18H6ZM13.7357 3C13.7357 3.71797 14.3177 4.3 15.0357 4.3H17C17.3866 4.3 17.7 4.6134 17.7 5V6.96429C17.7 7.68226 18.282 8.26429 19 8.26429V5C19 3.89543 18.1046 3 17 3H13.7357ZM9.26429 3C9.26429 3.71797 8.68226 4.3 7.96429 4.3H6C5.6134 4.3 5.3 4.6134 5.3 5V6.96429C5.3 7.68226 4.71797 8.26429 4 8.26429V5C4 3.89543 4.89543 3 6 3H9.26429Z" fill="currentColor"/>
		<path d="M16.6229 16.6721H14.5246C14.3756 16.6721 14.2511 16.6217 14.1511 16.521C14.0511 16.4203 14.0007 16.2954 14 16.1464C13.9993 15.9975 14.0497 15.873 14.1511 15.7729C14.2525 15.6729 14.377 15.6229 14.5246 15.6229H16.6229V13.5246C16.6229 13.3756 16.6733 13.2511 16.774 13.1511C16.8747 13.0511 16.9996 13.0007 17.1485 13C17.2975 12.9993 17.422 13.0497 17.522 13.1511C17.6221 13.2525 17.6721 13.377 17.6721 13.5246V15.6229H19.7704C19.9194 15.6229 20.0439 15.6733 20.1439 15.774C20.2439 15.8747 20.2943 15.9996 20.295 16.1485C20.2957 16.2975 20.2453 16.422 20.1439 16.522C20.0425 16.6221 19.918 16.6721 19.7704 16.6721H17.6721V18.7704C17.6721 18.9194 17.6217 19.0439 17.521 19.1439C17.4203 19.2439 17.2954 19.2943 17.1464 19.295C16.9975 19.2957 16.873 19.2453 16.7729 19.1439C16.6729 19.0425 16.6229 18.918 16.6229 18.7704V16.6721Z" fill="currentColor"/>
	</symbol>
	<symbol id="icon-swap" viewBox="0 0 24 24" fill="none">
		<path d="M8.57143 18.8549V10.2835M8.57143 18.8549L6 16.2835M8.57143 18.8549L11.1429 16.2835M15.4286 5.14062V13.7121M15.4286 5.14062L18 7.71205M15.4286 5.14062L12.8571 7.71205" stroke="currentColor" stroke-width="1.2" stroke-linecap="round" stroke-linejoin="round"/>
	</symbol>
	<symbol id="icon-disable" viewBox="0 0 24 24" fill="none">
		<path d="M6.46154 6.46154L17.5385 17.5385M20 12C20 14.1217 19.1571 16.1566 17.6569 17.6569C16.1566 19.1571 14.1217 20 12 20C9.87827 20 7.84344 19.1571 6.34315 17.6569C4.84285 16.1566 4 14.1217 4 12C4 9.87827 4.84285 7.84344 6.34315 6.34315C7.84344 4.84285 9.87827 4 12 4C14.1217 4 16.1566 4.84285 17.6569 6.34315C19.1571 7.84344 20 9.87827 20 12Z" stroke="currentColor" stroke-width="1.06667" stroke-linejoin="round"/>
	</symbol>
	<symbol id="icon-note" viewBox="0 0 24 24" fill="none">
		<path d="M14.5789 4L19 8.45455V18.2545V18.2545C19 19.4026 18.0693 20.3333 16.9212 20.3333H7.33333C6.04467 20.3333 5 19.2887 5 18V6.33333C5 5.04467 6.04467 4 7.33333 4H14.5789ZM14.5789 4V7.56364C14.5789 8.0362 14.7342 8.48942 15.0106 8.82357C15.2869 9.15773 15.6618 9.34545 16.0526 9.34545H19" stroke="currentColor" stroke-width="1.3" stroke-linecap="round" stroke-linejoin="round"/>
		<path d="M8.4375 13.25C8.32147 13.25 8.21019 13.1842 8.12814 13.0669C8.04609 12.9497 8 12.7908 8 12.625C8 12.4592 8.04609 12.3003 8.12814 12.1831C8.21019 12.0658 8.32147 12 8.4375 12H14.5625C14.6785 12 14.7898 12.0658 14.8719 12.1831C14.9539 12.3003 15 12.4592 15 12.625C15 12.7908 14.9539 12.9497 14.8719 13.0669C14.7898 13.1842 14.6785 13.25 14.5625 13.25H8.4375ZM8.4375 17C8.32147 17 8.21019 16.9342 8.12814 16.8169C8.04609 16.6997 8 16.5408 8 16.375C8 16.2092 8.04609 16.0503 8.12814 15.9331C8.21019 15.8158 8.32147 15.75 8.4375 15.75H14.5625C14.6785 15.75 14.7898 15.8158 14.8719 15.9331C14.9539 16.0503 15 16.2092 15 16.375C15 16.5408 14.9539 16.6997 14.8719 16.8169C14.7898 16.9342 14.6785 17 14.5625 17H8.4375Z" fill="currentColor"/>
	</symbol>
	<symbol id="icon-plus" viewBox="0 0 18 18" fill="none">
		<path d="M15 9.85714H9.85714V15H8.14286V9.85714H3V8.14286H8.14286V3H9.85714V8.14286H15V9.85714Z" fill="white"/>
	</symbol>
	<symbol id="icon-message" viewBox="0 0 18 18" fill="none">
		<path d="M15.9376 9C15.9388 9.91085 15.7602 10.813 15.412 11.6547C15.0639 12.4964 14.5531 13.2611 13.9089 13.905C13.2643 14.5497 12.499 15.061 11.6568 15.4098C10.8145 15.7585 9.91173 15.9378 9.00011 15.9375C8.01896 15.9397 7.04863 15.7326 6.15386 15.33L3.25361 15.759C3.10961 15.7825 2.96205 15.7705 2.82374 15.724C2.68543 15.6776 2.56055 15.598 2.45996 15.4924C2.35937 15.3867 2.28611 15.258 2.24653 15.1176C2.20695 14.9771 2.20226 14.8292 2.23286 14.6865L2.63561 11.7443C2.2525 10.8804 2.0572 9.945 2.06261 9C2.06144 8.08915 2.24005 7.18702 2.58818 6.34533C2.93631 5.50363 3.44713 4.73891 4.09136 4.095C4.7359 3.45031 5.50118 2.93898 6.34346 2.59023C7.18574 2.24148 8.08849 2.06215 9.00011 2.0625C10.8411 2.06262 12.6067 2.79368 13.9089 4.095C14.5528 4.73916 15.0634 5.50392 15.4115 6.34556C15.7596 7.1872 15.9384 8.08921 15.9376 9Z" stroke="currentColor" stroke-width="1.2" stroke-linecap="round" stroke-linejoin="round"/>
		<path d="M9.00231 9.45872C9.12375 9.45872 9.24021 9.41048 9.32608 9.32461C9.41195 9.23874 9.46019 9.12228 9.46019 9.00084C9.46019 8.87941 9.41195 8.76295 9.32608 8.67708C9.24021 8.59121 9.12375 8.54297 9.00231 8.54297C8.88088 8.54297 8.76441 8.59121 8.67855 8.67708C8.59268 8.76295 8.54444 8.87941 8.54444 9.00084C8.54444 9.12228 8.59268 9.23874 8.67855 9.32461C8.76441 9.41048 8.88088 9.45872 9.00231 9.45872ZM12.2116 9.45872C12.333 9.45872 12.4495 9.41048 12.5353 9.32461C12.6212 9.23874 12.6694 9.12228 12.6694 9.00084C12.6694 8.87941 12.6212 8.76295 12.5353 8.67708C12.4495 8.59121 12.333 8.54297 12.2116 8.54297C12.0901 8.54297 11.9737 8.59121 11.8878 8.67708C11.8019 8.76295 11.7537 8.87941 11.7537 9.00084C11.7537 9.12228 11.8019 9.23874 11.8878 9.32461C11.9737 9.41048 12.0901 9.45872 12.2116 9.45872ZM5.79306 9.45872C5.85319 9.45877 5.91274 9.44697 5.96831 9.42401C6.02388 9.40104 6.07439 9.36736 6.11694 9.32488C6.15949 9.28239 6.19326 9.23194 6.21632 9.17641C6.23937 9.12088 6.25126 9.06135 6.25131 9.00122C6.25136 8.94109 6.23957 8.88154 6.2166 8.82597C6.19364 8.7704 6.15995 8.71989 6.11747 8.67734C6.07499 8.63479 6.02454 8.60102 5.96901 8.57797C5.91347 8.55491 5.85394 8.54302 5.79381 8.54297C5.67238 8.54297 5.55591 8.59121 5.47005 8.67708C5.38418 8.76295 5.33594 8.87941 5.33594 9.00084C5.33594 9.12228 5.38418 9.23874 5.47005 9.32461C5.55591 9.41048 5.67163 9.45872 5.79306 9.45872Z" stroke="currentColor" stroke-width="1.2" stroke-linecap="round" stroke-linejoin="round"/>
	</symbol>

	<!-- Icons Medium -->
	<symbol id="icon-home-medium" viewBox="0 0 18 18" fill="none">
		<path fill-rule="evenodd" clip-rule="evenodd" d="M2.38934 6.8679C2.2975 7.06583 2.24995 7.28141 2.25 7.49961V14.2496C2.25 14.6474 2.40804 15.029 2.68934 15.3103C2.97064 15.5916 3.35218 15.7496 3.75 15.7496H6.75V9.74961C6.75 9.5507 6.82902 9.35993 6.96967 9.21928C7.11032 9.07863 7.30109 8.99961 7.5 8.99961H10.5C10.6989 8.99961 10.8897 9.07863 11.0303 9.21928C11.171 9.35993 11.25 9.5507 11.25 9.74961V15.7496H14.25C14.6478 15.7496 15.0294 15.5916 15.3107 15.3103C15.592 15.029 15.75 14.6474 15.75 14.2496V7.49961C15.7501 7.28141 15.7025 7.06583 15.6107 6.8679C15.5188 6.66997 15.3849 6.49446 15.2183 6.35361L9.96825 1.85436C9.69751 1.62554 9.35448 1.5 9 1.5C8.64552 1.5 8.30249 1.62554 8.03175 1.85436L2.78175 6.35361C2.6151 6.49446 2.48118 6.66997 2.38934 6.8679Z" stroke="currentColor" stroke-width="1.3" stroke-linecap="round" stroke-linejoin="round"/>
	</symbol>
	<symbol id="icon-members-medium" viewBox="0 0 18 18" fill="none">
		<path d="M12 15.75V14.25C12 13.4544 11.6839 12.6913 11.1213 12.1287C10.5587 11.5661 9.79565 11.25 9 11.25H4.5C3.70435 11.25 2.94129 11.5661 2.37868 12.1287C1.81607 12.6913 1.5 13.4544 1.5 14.25V15.75M16.5 15.75V14.25C16.4995 13.5853 16.2783 12.9396 15.871 12.4142C15.4638 11.8889 14.8936 11.5137 14.25 11.3475M12 2.3475C12.6453 2.51273 13.2173 2.88803 13.6257 3.41423C14.0342 3.94044 14.2559 4.58762 14.2559 5.25375C14.2559 5.91988 14.0342 6.56706 13.6257 7.09327C13.2173 7.61947 12.6453 7.99477 12 8.16M9.75 5.25C9.75 6.90685 8.40685 8.25 6.75 8.25C5.09315 8.25 3.75 6.90685 3.75 5.25C3.75 3.59315 5.09315 2.25 6.75 2.25C8.40685 2.25 9.75 3.59315 9.75 5.25Z" stroke="currentColor" stroke-width="1.3" stroke-linecap="round" stroke-linejoin="round"/>
	</symbol>
	<symbol id="icon-members-semibold-2" viewBox="0 0 16 16" fill="none">
		<path d="M10.6654 14V12.6667C10.6654 11.9594 10.3844 11.2811 9.88432 10.781C9.38422 10.281 8.70594 10 7.9987 10H3.9987C3.29145 10 2.61318 10.281 2.11308 10.781C1.61298 11.2811 1.33203 11.9594 1.33203 12.6667V14M14.6654 14V12.6667C14.6649 12.0758 14.4683 11.5018 14.1063 11.0349C13.7443 10.5679 13.2375 10.2344 12.6654 10.0867M10.6654 2.08667C11.239 2.23353 11.7474 2.56713 12.1105 3.03487C12.4735 3.50261 12.6706 4.07789 12.6706 4.67C12.6706 5.26211 12.4735 5.83739 12.1105 6.30513C11.7474 6.77287 11.239 7.10647 10.6654 7.25333M8.66536 4.66667C8.66536 6.13943 7.47146 7.33333 5.9987 7.33333C4.52594 7.33333 3.33203 6.13943 3.33203 4.66667C3.33203 3.19391 4.52594 2 5.9987 2C7.47146 2 8.66536 3.19391 8.66536 4.66667Z" stroke="white" stroke-width="1.5" stroke-linecap="round" stroke-linejoin="round"/>
	</symbol>
	<symbol id="icon-team-medium" viewBox="0 0 18 18" fill="none">
		<path d="M4.5 16.5V3C4.5 2.60218 4.65804 2.22064 4.93934 1.93934C5.22064 1.65804 5.60218 1.5 6 1.5H12C12.3978 1.5 12.7794 1.65804 13.0607 1.93934C13.342 2.22064 13.5 2.60218 13.5 3V16.5H4.5ZM4.5 16.5H3C2.60218 16.5 2.22064 16.342 1.93934 16.0607C1.65804 15.7794 1.5 15.3978 1.5 15V10.5C1.5 10.1022 1.65804 9.72064 1.93934 9.43934C2.22064 9.15804 2.60218 9 3 9H4.5M7.5 4.5H10.5M7.5 7.5H10.5M7.5 10.5H10.5M7.5 13.5H10.5" stroke="currentColor" stroke-width="1.3" stroke-linecap="round" stroke-linejoin="round"/>
	</symbol>
	<symbol id="icon-star-medium" viewBox="0 0 18 18" fill="none">
		<path d="M8.6451 1.72508C8.67797 1.65867 8.72874 1.60278 8.79169 1.5637C8.85464 1.52461 8.92726 1.50391 9.00135 1.50391C9.07544 1.50391 9.14806 1.52461 9.21101 1.5637C9.27396 1.60278 9.32473 1.65867 9.3576 1.72508L11.0901 5.23433C11.2042 5.4653 11.3727 5.66513 11.5811 5.81667C11.7894 5.9682 12.0314 6.06691 12.2863 6.10433L16.1609 6.67133C16.2343 6.68196 16.3032 6.71293 16.36 6.76073C16.4167 6.80852 16.4589 6.87124 16.4819 6.94178C16.5048 7.01233 16.5076 7.08788 16.4898 7.1599C16.472 7.23193 16.4345 7.29754 16.3814 7.34933L13.5794 10.0778C13.3946 10.2579 13.2563 10.4802 13.1765 10.7255C13.0966 10.9709 13.0776 11.232 13.1211 11.4863L13.7826 15.3413C13.7956 15.4147 13.7876 15.4902 13.7597 15.5593C13.7318 15.6284 13.685 15.6883 13.6248 15.7321C13.5645 15.7759 13.4931 15.8018 13.4187 15.807C13.3444 15.8122 13.2701 15.7963 13.2043 15.7613L9.74085 13.9403C9.51264 13.8205 9.25873 13.7579 9.00097 13.7579C8.74322 13.7579 8.48931 13.8205 8.2611 13.9403L4.79835 15.7613C4.7326 15.7961 4.6584 15.8118 4.58419 15.8065C4.50998 15.8012 4.43874 15.7752 4.37857 15.7315C4.3184 15.6877 4.27172 15.628 4.24384 15.559C4.21596 15.49 4.20799 15.4146 4.22085 15.3413L4.8816 11.4871C4.92525 11.2326 4.90634 10.9714 4.8265 10.7259C4.74667 10.4803 4.60831 10.2579 4.42335 10.0778L1.62135 7.35008C1.5678 7.29835 1.52984 7.23262 1.51182 7.16038C1.4938 7.08814 1.49643 7.01229 1.51941 6.94147C1.54239 6.87065 1.5848 6.80771 1.64181 6.75981C1.69881 6.71192 1.76813 6.681 1.84185 6.67058L5.7156 6.10433C5.97079 6.0672 6.21314 5.96862 6.42179 5.81707C6.63043 5.66551 6.79913 5.46553 6.91335 5.23433L8.6451 1.72508Z" stroke="currentColor" stroke-width="1.33333" stroke-linecap="round" stroke-linejoin="round"/>
	</symbol>
	<symbol id="icon-analytics-medium" viewBox="0 0 18 18" fill="none">
		<path d="M13.5 14.9961V7.49609M9 14.9961V2.99609M4.5 14.9961V10.4961" stroke="currentColor" stroke-width="1.5" stroke-linecap="round" stroke-linejoin="round"/>
	</symbol>
	<symbol id="icon-inbox-medium" viewBox="0 0 18 18" fill="none">
		<path d="M1.6875 10.125H4.5825C4.89585 10.1251 5.20299 10.2124 5.46951 10.3772C5.73602 10.542 5.9514 10.7777 6.0915 11.058L6.2835 11.442C6.42366 11.7224 6.63915 11.9582 6.90581 12.123C7.17248 12.2878 7.47977 12.3751 7.79325 12.375H10.2068C10.5202 12.3751 10.8275 12.2878 11.0942 12.123C11.3609 11.9582 11.5763 11.7224 11.7165 11.442L11.9085 11.058C12.0487 10.7776 12.2641 10.5418 12.5308 10.377C12.7975 10.2122 13.1048 10.1249 13.4183 10.125H16.3125M1.6875 10.3785V13.5C1.6875 13.9476 1.86529 14.3768 2.18176 14.6932C2.49822 15.0097 2.92745 15.1875 3.375 15.1875H14.625C15.0726 15.1875 15.5018 15.0097 15.8182 14.6932C16.1347 14.3768 16.3125 13.9476 16.3125 13.5V10.3785C16.3125 10.2095 16.2875 10.0443 16.2375 9.88275L14.43 4.0035C14.3238 3.65868 14.11 3.35696 13.8198 3.14261C13.5296 2.92826 13.1783 2.81257 12.8175 2.8125H5.18325C4.82246 2.81257 4.47119 2.92826 4.18098 3.14261C3.89077 3.35696 3.6769 3.65868 3.57075 4.0035L1.7625 9.88275C1.71349 10.0435 1.68822 10.2105 1.6875 10.3785Z" stroke="currentColor" stroke-width="1.2" stroke-linecap="round" stroke-linejoin="round"/>
	</symbol>
	<symbol id="icon-trash-medium" viewBox="0 0 18 18" fill="none">
		<path d="M2.25 4.5H15.75M14.25 4.5V15C14.25 15.75 13.5 16.5 12.75 16.5H5.25C4.5 16.5 3.75 15.75 3.75 15V4.5M6 4.5V3C6 2.25 6.75 1.5 7.5 1.5H10.5C11.25 1.5 12 2.25 12 3V4.5M7.5 8.25V12.75M10.5 8.25V12.75" stroke="currentColor" stroke-width="1.33333" stroke-linecap="round" stroke-linejoin="round"/>
	</symbol>
	<symbol id="icon-cog-medium" viewBox="0 0 18 18" fill="none">
		<path d="M9.16647 1.5H8.83647C8.43864 1.5 8.05711 1.65804 7.77581 1.93934C7.4945 2.22064 7.33647 2.60218 7.33647 3V3.135C7.3362 3.39804 7.26676 3.65639 7.13512 3.88413C7.00348 4.11186 6.81427 4.30098 6.58647 4.4325L6.26397 4.62C6.03594 4.75165 5.77727 4.82096 5.51397 4.82096C5.25066 4.82096 4.992 4.75165 4.76397 4.62L4.65147 4.56C4.30726 4.36145 3.89834 4.30758 3.51447 4.41023C3.13059 4.51288 2.80313 4.76365 2.60397 5.1075L2.43897 5.3925C2.24041 5.7367 2.18655 6.14562 2.2892 6.5295C2.39185 6.91338 2.64262 7.24084 2.98647 7.44L3.09897 7.515C3.32567 7.64588 3.51418 7.83382 3.64575 8.06012C3.77733 8.28643 3.84739 8.54323 3.84897 8.805V9.1875C3.85002 9.45182 3.7812 9.71171 3.6495 9.94088C3.51779 10.17 3.32787 10.3603 3.09897 10.4925L2.98647 10.56C2.64262 10.7592 2.39185 11.0866 2.2892 11.4705C2.18655 11.8544 2.24041 12.2633 2.43897 12.6075L2.60397 12.8925C2.80313 13.2363 3.13059 13.4871 3.51447 13.5898C3.89834 13.6924 4.30726 13.6386 4.65147 13.44L4.76397 13.38C4.992 13.2483 5.25066 13.179 5.51397 13.179C5.77727 13.179 6.03594 13.2483 6.26397 13.38L6.58647 13.5675C6.81427 13.699 7.00348 13.8881 7.13512 14.1159C7.26676 14.3436 7.3362 14.602 7.33647 14.865V15C7.33647 15.3978 7.4945 15.7794 7.77581 16.0607C8.05711 16.342 8.43864 16.5 8.83647 16.5H9.16647C9.56429 16.5 9.94582 16.342 10.2271 16.0607C10.5084 15.7794 10.6665 15.3978 10.6665 15V14.865C10.6667 14.602 10.7362 14.3436 10.8678 14.1159C10.9995 13.8881 11.1887 13.699 11.4165 13.5675L11.739 13.38C11.967 13.2483 12.2257 13.179 12.489 13.179C12.7523 13.179 13.0109 13.2483 13.239 13.38L13.3515 13.44C13.6957 13.6386 14.1046 13.6924 14.4885 13.5898C14.8723 13.4871 15.1998 13.2363 15.399 12.8925L15.564 12.6C15.7625 12.2558 15.8164 11.8469 15.7137 11.463C15.6111 11.0791 15.3603 10.7517 15.0165 10.5525L14.904 10.4925C14.6751 10.3603 14.4851 10.17 14.3534 9.94088C14.2217 9.71171 14.1529 9.45182 14.154 9.1875V8.8125C14.1529 8.54818 14.2217 8.28829 14.3534 8.05912C14.4851 7.82995 14.6751 7.63966 14.904 7.5075L15.0165 7.44C15.3603 7.24084 15.6111 6.91338 15.7137 6.5295C15.8164 6.14562 15.7625 5.7367 15.564 5.3925L15.399 5.1075C15.1998 4.76365 14.8723 4.51288 14.4885 4.41023C14.1046 4.30758 13.6957 4.36145 13.3515 4.56L13.239 4.62C13.0109 4.75165 12.7523 4.82096 12.489 4.82096C12.2257 4.82096 11.967 4.75165 11.739 4.62L11.4165 4.4325C11.1887 4.30098 10.9995 4.11186 10.8678 3.88413C10.7362 3.65639 10.6667 3.39804 10.6665 3.135V3C10.6665 2.60218 10.5084 2.22064 10.2271 1.93934C9.94582 1.65804 9.56429 1.5 9.16647 1.5Z" stroke="currentColor" stroke-width="1.33333" stroke-linecap="round" stroke-linejoin="round"/>
		<path d="M9.00147 11.25C10.2441 11.25 11.2515 10.2426 11.2515 9C11.2515 7.75736 10.2441 6.75 9.00147 6.75C7.75883 6.75 6.75147 7.75736 6.75147 9C6.75147 10.2426 7.75883 11.25 9.00147 11.25Z" stroke="currentColor" stroke-width="1.33333" stroke-linecap="round" stroke-linejoin="round"/>
	</symbol>
	<symbol id="icon-members-semibold" viewBox="0 0 16 16" fill="none">
		<path d="M10.6654 14V12.6667C10.6654 11.9594 10.3844 11.2811 9.88432 10.781C9.38422 10.281 8.70594 10 7.9987 10H3.9987C3.29145 10 2.61318 10.281 2.11308 10.781C1.61298 11.2811 1.33203 11.9594 1.33203 12.6667V14M14.6654 14V12.6667C14.6649 12.0758 14.4683 11.5018 14.1063 11.0349C13.7443 10.5679 13.2375 10.2344 12.6654 10.0867M10.6654 2.08667C11.239 2.23353 11.7474 2.56713 12.1105 3.03487C12.4735 3.50261 12.6706 4.07789 12.6706 4.67C12.6706 5.26211 12.4735 5.83739 12.1105 6.30513C11.7474 6.77287 11.239 7.10647 10.6654 7.25333M8.66536 4.66667C8.66536 6.13943 7.47146 7.33333 5.9987 7.33333C4.52594 7.33333 3.33203 6.13943 3.33203 4.66667C3.33203 3.19391 4.52594 2 5.9987 2C7.47146 2 8.66536 3.19391 8.66536 4.66667Z" stroke="currentColor" stroke-width="1.5" stroke-linecap="round" stroke-linejoin="round"/>
	</symbol>
</svg>