<svg xmlns="http://www.w3.org/2000/svg" style="display: none;">
	<symbol id="icon-integrations" viewBox="0 0 18 18" fill="none">
		<path d="M5.25 8.25V11.25C5.25 11.6478 5.40804 12.0294 5.68934 12.3107C5.97064 12.592 6.35218 12.75 6.75 12.75H9.75M3.75 2.25H6.75C7.57843 2.25 8.25 2.92157 8.25 3.75V6.75C8.25 7.57843 7.57843 8.25 6.75 8.25H3.75C2.92157 8.25 2.25 7.57843 2.25 6.75V3.75C2.25 2.92157 2.92157 2.25 3.75 2.25ZM11.25 9.75H14.25C15.0784 9.75 15.75 10.4216 15.75 11.25V14.25C15.75 15.0784 15.0784 15.75 14.25 15.75H11.25C10.4216 15.75 9.75 15.0784 9.75 14.25V11.25C9.75 10.4216 10.4216 9.75 11.25 9.75Z" stroke="currentColor" stroke-width="1.5" stroke-linecap="round" stroke-linejoin="round"/>
	</symbol>
	<symbol id="icon-data" viewBox="0 0 18 18" fill="none">
		<path d="M10.17 1.5C10.5619 1.50005 10.9383 1.65349 11.2185 1.9275L14.5485 5.184C14.6914 5.32368 14.805 5.49051 14.8825 5.67468C14.96 5.85886 15 6.05667 15 6.2565V15C15 15.3978 14.842 15.7794 14.5607 16.0607C14.2794 16.342 13.8978 16.5 13.5 16.5H4.5C4.10218 16.5 3.72064 16.342 3.43934 16.0607C3.15804 15.7794 3 15.3978 3 15V3C3 2.60218 3.15804 2.22064 3.43934 1.93934C3.72064 1.65804 4.10218 1.5 4.5 1.5H10.17ZM10.17 1.5V5C10.17 5.55228 10.6177 6 11.17 6H15M6.75 9.75H11.25M6.75 12.75H9" stroke="currentColor" stroke-width="1.3" stroke-linecap="round" stroke-linejoin="round"/>
	</symbol>
	<symbol id="icon-sso" viewBox="0 0 18 18" fill="none">
		<path d="M7.0575 15H4.875C3.75 15 2.76 14.625 1.9575 13.8225C1.155 13.035 0.75 12.0675 0.75 10.935C0.75 9.96 1.0425 9.09 1.6275 8.325C2.1981 7.57724 3.01753 7.05844 3.9375 6.8625C4.2525 5.715 4.875 4.785 5.8125 4.0725C6.75 3.375 7.815 3 9 3C10.4625 3 11.7075 3.51 12.72 4.53C13.74 5.5425 14.25 6.7875 14.25 8.25C15.1125 8.3475 15.8325 8.7225 16.395 9.375C16.875 9.9225 17.145 10.545 17.22 11.25H15.72C15.645 10.875 15.48 10.5675 15.2025 10.2975C14.8425 9.93 14.4 9.75 13.875 9.75H12.75V8.25C12.75 7.215 12.375 6.33 11.655 5.595C10.9275 4.875 10.0425 4.5 9 4.5C7.965 4.5 7.08 4.875 6.345 5.595C5.625 6.33 5.25 7.215 5.25 8.25H4.875C4.1475 8.25 3.5325 8.505 3.0225 9.0225C2.505 9.5325 2.25 10.1475 2.25 10.875C2.25 11.6025 2.505 12.225 3.0225 12.75C3.5325 13.2525 4.1475 13.5 4.875 13.5H6.75C6.75 14.04 6.8625 14.5425 7.0575 15ZM17.25 12.75V14.25H15.75V15.75H14.25V14.25H12.6C12.3 15.15 11.475 15.75 10.5 15.75C9.225 15.75 8.25 14.775 8.25 13.5C8.25 12.225 9.225 11.25 10.5 11.25C11.475 11.25 12.3 11.85 12.6 12.75H17.25ZM11.25 13.5C11.25 13.125 10.95 12.75 10.5 12.75C10.05 12.75 9.75 13.125 9.75 13.5C9.75 13.875 10.05 14.25 10.5 14.25C10.95 14.25 11.25 13.875 11.25 13.5Z" fill="currentColor"/>
	</symbol>
	<symbol id="icon-billing" viewBox="0 0 18 18" fill="none">
		<path d="M7.6 12H4.8M10.4 12H9.35M2 7H16M1.5 9C1.5 6.17175 1.5 4.75725 2.379 3.879C3.258 3.00075 4.67175 3 7.5 3H10.5C13.3282 3 14.7427 3 15.621 3.879C16.4992 4.758 16.5 6.17175 16.5 9C16.5 11.8282 16.5 13.2427 15.621 14.121C14.742 14.9992 13.3282 15 10.5 15H7.5C4.67175 15 3.25725 15 2.379 14.121C1.50075 13.242 1.5 11.8282 1.5 9Z" stroke="currentColor" stroke-width="1.3" stroke-linecap="round"/>
	</symbol>
	<symbol id="icon-branding" viewBox="0 0 18 18" fill="none">
		<path d="M8.25134 7.4998L10.5013 9.7498M7.47809 12.7731L16.0348 4.2178C16.3334 3.91923 16.5011 3.51429 16.5011 3.09205C16.5011 2.66981 16.3334 2.26487 16.0348 1.9663C15.7363 1.66773 15.3313 1.5 14.9091 1.5C14.4869 1.5 14.0819 1.66773 13.7833 1.9663L5.22659 10.5231M4.87634 15.7498C5.39552 15.7498 5.90304 15.5958 6.33471 15.3074C6.76639 15.019 7.10285 14.609 7.30153 14.1293C7.50021 13.6497 7.55219 13.1219 7.4509 12.6127C7.34962 12.1035 7.09961 11.6358 6.7325 11.2686C6.36538 10.9015 5.89765 10.6515 5.38845 10.5502C4.87925 10.449 4.35145 10.5009 3.8718 10.6996C3.39214 10.8983 2.98217 11.2348 2.69373 11.6664C2.4053 12.0981 2.25134 12.6056 2.25134 13.1248C2.25148 13.624 2.06163 14.1045 1.72034 14.4688C1.61518 14.5737 1.54354 14.7075 1.51448 14.8531C1.48543 14.9988 1.50029 15.1498 1.55717 15.287C1.61404 15.4242 1.71038 15.5414 1.83396 15.6238C1.95755 15.7062 2.10281 15.7501 2.25134 15.7498H4.87634Z" stroke="currentColor" stroke-width="1.2" stroke-linecap="round" stroke-linejoin="round"/>
	</symbol>
	<symbol id="icon-activity" viewBox="0 0 18 18" fill="none">
		<path d="M15.75 8.9999H13.5285C13.371 8.9999 13.2915 8.9999 13.2247 9.0314C13.1637 9.06029 13.1117 9.10512 13.074 9.16115C13.0282 9.22715 13.005 9.3149 12.9578 9.49115L11.595 14.6257C11.4203 15.2819 11.3332 15.6104 11.202 15.6952C11.1481 15.731 11.0847 15.7501 11.0199 15.7498C10.9551 15.7495 10.8919 15.73 10.8383 15.6937C10.707 15.6074 10.6223 15.2782 10.4528 14.6212L7.548 3.37865C7.37775 2.72165 7.293 2.3924 7.16175 2.30615C7.10812 2.26982 7.04488 2.25027 6.9801 2.25C6.91532 2.24974 6.85193 2.26876 6.798 2.30465C6.66675 2.3894 6.57975 2.71715 6.405 3.37415L5.04225 8.5079C4.995 8.6849 4.97175 8.77265 4.92675 8.8379C4.88899 8.89431 4.83663 8.93942 4.77525 8.9684C4.7085 8.9999 4.62975 8.9999 4.4715 8.9999H2.25" stroke="currentColor" stroke-width="1.3" stroke-linecap="round" stroke-linejoin="round"/>
	</symbol>
	<symbol id="icon-general-settings" viewBox="0 0 18 18" fill="none">
		<path d="M6.15332 8.25C6.24407 8.25 6.39377 8.24972 6.53027 8.26172C6.69896 8.27671 6.98665 8.31918 7.29102 8.48926C7.5928 8.65823 7.84273 8.90721 8.01172 9.20898C8.18122 9.51273 8.22328 9.80098 8.23828 9.96973C8.25103 10.107 8.25 10.2559 8.25 10.3467V14.4033C8.25 14.4941 8.25028 14.6438 8.23828 14.7803C8.22329 14.949 8.18157 15.2367 8.01074 15.541C7.84177 15.8428 7.59279 16.0927 7.29102 16.2617C7.05658 16.3906 6.79703 16.4679 6.53027 16.4883C6.39302 16.5003 6.24407 16.5 6.15332 16.5H3.59668C3.50668 16.5 3.35623 16.5003 3.21973 16.4883C2.95292 16.4677 2.69336 16.3899 2.45898 16.2607C2.15733 16.0918 1.90821 15.8427 1.73926 15.541C1.61011 15.3066 1.53233 15.0471 1.51172 14.7803C1.49972 14.643 1.5 14.4941 1.5 14.4033V10.3467C1.5 10.2567 1.49972 10.1062 1.51172 9.96973C1.52672 9.80098 1.56901 9.51273 1.73926 9.20898C1.90821 8.90733 2.15733 8.65821 2.45898 8.48926C2.69336 8.36011 2.95292 8.28233 3.21973 8.26172C3.35698 8.24972 3.50593 8.25 3.59668 8.25H6.15332ZM14.4033 10.5C14.4941 10.5 14.643 10.4997 14.7803 10.5117C15.0471 10.5323 15.3066 10.6101 15.541 10.7393C15.8427 10.9082 16.0918 11.1573 16.2607 11.459C16.3899 11.6934 16.4677 11.9529 16.4883 12.2197C16.5003 12.3562 16.5 12.5067 16.5 12.5967V14.4033C16.5 14.4941 16.5003 14.643 16.4883 14.7803C16.4733 14.949 16.432 15.2373 16.2617 15.541C16.0927 15.8428 15.8428 16.0918 15.541 16.2607C15.2367 16.4308 14.949 16.4733 14.7803 16.4883C14.6438 16.5003 14.4941 16.5 14.4033 16.5H11.8467C11.7559 16.5 11.607 16.5003 11.4697 16.4883C11.301 16.4733 11.0127 16.432 10.709 16.2617C10.4072 16.0927 10.1582 15.8428 9.98926 15.541C9.81918 15.2367 9.77671 14.949 9.76172 14.7803C9.74972 14.6438 9.75 14.4941 9.75 14.4033V12.5967C9.75 12.5059 9.74972 12.357 9.76172 12.2197C9.78233 11.9529 9.86011 11.6934 9.98926 11.459C10.1582 11.1573 10.4073 10.9082 10.709 10.7393C11.0127 10.569 11.301 10.5267 11.4697 10.5117C11.6062 10.4997 11.7567 10.5 11.8467 10.5H14.4033ZM3.61914 9.75C3.3913 9.75 3.27763 9.74995 3.19141 9.79785C3.13132 9.83176 3.08145 9.88212 3.04785 9.94238C3.00008 10.0278 3 10.1402 3 10.3691V14.3818C3 14.6088 3.00005 14.7229 3.04785 14.8076C3.08165 14.868 3.13202 14.9184 3.19238 14.9521C3.27784 14.9999 3.39146 15 3.61914 15H6.13086C6.3587 15 6.47311 15 6.55859 14.9521C6.61868 14.9182 6.66855 14.8679 6.70215 14.8076C6.74995 14.7229 6.75 14.6093 6.75 14.3809V10.3691C6.75 10.1413 6.75005 10.0276 6.70215 9.94141C6.66824 9.88132 6.61788 9.83145 6.55762 9.79785C6.47291 9.75005 6.35929 9.75 6.13086 9.75H3.61914ZM11.8691 12C11.6409 12 11.5278 12.0001 11.4424 12.0479C11.3821 12.0814 11.3318 12.1313 11.2979 12.1914C11.25 12.2776 11.25 12.3913 11.25 12.6191V14.3809C11.25 14.6093 11.2501 14.7229 11.2979 14.8076C11.3314 14.8679 11.3813 14.9182 11.4414 14.9521C11.5276 15 11.6413 15 11.8691 15H14.3809C14.6085 15 14.7229 14.9999 14.8076 14.9521C14.868 14.9184 14.9184 14.868 14.9521 14.8076C14.9999 14.7229 15 14.6088 15 14.3818V12.6191C15 12.3909 14.9999 12.2778 14.9521 12.1924C14.9184 12.1316 14.8676 12.0816 14.8076 12.0479C14.7229 12.0001 14.6088 12 14.3818 12H11.8691ZM14.4033 1.5C14.4941 1.5 14.643 1.49972 14.7803 1.51172C15.0471 1.53233 15.3066 1.61011 15.541 1.73926C15.8427 1.90821 16.0918 2.15733 16.2607 2.45898C16.3899 2.69336 16.4677 2.95292 16.4883 3.21973C16.5003 3.35623 16.5 3.50668 16.5 3.59668V7.65332C16.5 7.74407 16.5003 7.89302 16.4883 8.03027C16.4733 8.19902 16.432 8.48727 16.2617 8.79102C16.0927 9.09279 15.8428 9.34177 15.541 9.51074C15.2367 9.68157 14.949 9.72329 14.7803 9.73828C14.6438 9.75028 14.4941 9.75 14.4033 9.75H11.8467C11.7559 9.75 11.607 9.75103 11.4697 9.73828C11.301 9.72328 11.0127 9.68122 10.709 9.51172C10.4072 9.34273 10.1582 9.0928 9.98926 8.79102C9.81918 8.48665 9.77671 8.19896 9.76172 8.03027C9.74972 7.89377 9.75 7.74407 9.75 7.65332V3.59668C9.75 3.50593 9.74972 3.35698 9.76172 3.21973C9.78233 2.95292 9.86011 2.69336 9.98926 2.45898C10.1582 2.15733 10.4073 1.90821 10.709 1.73926C11.0127 1.56901 11.301 1.52672 11.4697 1.51172C11.6062 1.49972 11.7567 1.5 11.8467 1.5H14.4033ZM11.8691 3C11.6402 3 11.5278 3.00008 11.4424 3.04785C11.3821 3.08145 11.3318 3.13132 11.2979 3.19141C11.25 3.27763 11.25 3.3913 11.25 3.61914V7.63086C11.25 7.85929 11.2501 7.97216 11.2979 8.05762C11.3314 8.11788 11.3813 8.16824 11.4414 8.20215C11.5276 8.25005 11.6413 8.25 11.8691 8.25H14.3809C14.6085 8.25 14.7229 8.24995 14.8076 8.20215C14.8679 8.16855 14.9182 8.11868 14.9521 8.05859C15 7.97237 15 7.8587 15 7.63086V3.61914C15 3.39146 14.9999 3.27784 14.9521 3.19238C14.9184 3.13202 14.868 3.08165 14.8076 3.04785C14.7229 3.00005 14.6088 3 14.3818 3H11.8691ZM6.15332 1.5C6.24407 1.5 6.39377 1.49972 6.53027 1.51172C6.69896 1.52671 6.98665 1.56918 7.29102 1.73926C7.5928 1.90823 7.84273 2.15721 8.01172 2.45898C8.18122 2.76273 8.22328 3.05098 8.23828 3.21973C8.25103 3.35698 8.25 3.50593 8.25 3.59668V5.40332C8.25 5.49407 8.25028 5.64377 8.23828 5.78027C8.22329 5.94896 8.18157 6.23665 8.01074 6.54102C7.84177 6.8428 7.59279 7.09273 7.29102 7.26172C7.05658 7.39061 6.79703 7.4679 6.53027 7.48828C6.39302 7.50103 6.24407 7.5 6.15332 7.5H3.59668C3.50668 7.5 3.35623 7.50028 3.21973 7.48828C2.95292 7.46767 2.69336 7.38989 2.45898 7.26074C2.15733 7.09179 1.90821 6.84267 1.73926 6.54102C1.61011 6.30664 1.53233 6.04709 1.51172 5.78027C1.49972 5.64302 1.5 5.49407 1.5 5.40332V3.59668C1.5 3.50668 1.49972 3.35623 1.51172 3.21973C1.52672 3.05098 1.56901 2.76273 1.73926 2.45898C1.90821 2.15733 2.15733 1.90821 2.45898 1.73926C2.69336 1.61011 2.95292 1.53233 3.21973 1.51172C3.35698 1.49972 3.50593 1.5 3.59668 1.5H6.15332ZM3.61914 3C3.3913 3 3.27763 2.99995 3.19141 3.04785C3.13132 3.08176 3.08145 3.13212 3.04785 3.19238C3.00005 3.27784 3 3.39071 3 3.61914V5.38086C3 5.6087 2.99995 5.72311 3.04785 5.80859C3.08176 5.86868 3.13212 5.91855 3.19238 5.95215C3.27784 5.99995 3.39071 6 3.61914 6H6.13086C6.3587 6 6.47311 6.00005 6.55859 5.95215C6.61868 5.91824 6.66855 5.86788 6.70215 5.80762C6.74995 5.72291 6.75 5.60929 6.75 5.38086V3.61914C6.75 3.3913 6.75005 3.27763 6.70215 3.19141C6.66824 3.13132 6.61788 3.08145 6.55762 3.04785C6.47291 3.00005 6.35929 3 6.13086 3H3.61914Z" fill="currentColor"/>
	</symbol>
	<symbol id="icon-custom-domain" viewBox="0 0 18 18" fill="none">
		<path d="M16.5 9C16.5 13.1421 13.1421 16.5 9 16.5M16.5 9C16.5 4.85786 13.1421 1.5 9 1.5M16.5 9H1.5M9 16.5C4.85786 16.5 1.5 13.1421 1.5 9M9 16.5C7.07418 14.4779 6 11.7924 6 9C6 6.20756 7.07418 3.52212 9 1.5M9 16.5C10.9258 14.4779 12 11.7924 12 9C12 6.20756 10.9258 3.52212 9 1.5M1.5 9C1.5 4.85786 4.85786 1.5 9 1.5" stroke="currentColor" stroke-width="1.125" stroke-linecap="round" stroke-linejoin="round"/>
	</symbol>
	<symbol id="icon-video-player" viewBox="0 0 17 17" fill="none">
		<path d="M1.379 2.879C0.5 3.75725 0.5 5.17175 0.5 8C0.5 10.8282 0.50075 12.242 1.379 13.121C2.25725 14 3.67175 14 6.5 14H9.5C12.3282 14 13.742 13.9992 14.621 13.121C15.5 12.2427 15.5 10.8282 15.5 8C15.5 5.17175 15.4992 3.758 14.621 2.879C13.7427 2 12.3282 2 9.5 2H6.5C3.67175 2 2.258 2.00075 1.379 2.879Z" stroke="currentColor" stroke-width="1.3" stroke-linecap="round"/>
		<path d="M6.55053 5.13286L9.91541 7.61221C9.97325 7.65462 10.0207 7.71218 10.0535 7.77978C10.0863 7.84737 10.1035 7.9229 10.1035 7.99961C10.1035 8.07632 10.0863 8.15185 10.0535 8.21944C10.0207 8.28704 9.97325 8.3446 9.91541 8.38701L6.55053 10.8664C6.48715 10.9131 6.41347 10.9399 6.33736 10.944C6.26125 10.948 6.18558 10.9292 6.11842 10.8894C6.05126 10.8496 5.99514 10.7904 5.95605 10.7181C5.91696 10.6458 5.89637 10.5632 5.89648 10.479V5.52026C5.89637 5.43604 5.91696 5.35337 5.95605 5.28108C5.99514 5.20879 6.05126 5.1496 6.11842 5.10982C6.18558 5.07004 6.26125 5.05117 6.33736 5.05523C6.41347 5.05929 6.48715 5.08612 6.55053 5.13286Z" stroke="currentColor" stroke-width="1.3" stroke-linecap="round"/>
	</symbol>
	<symbol id="icon-jumpshare-ai" viewBox="0 0 18 18" fill="none">
		<path d="M7 5L6.55771 6.19486C5.97829 7.76171 5.68857 8.54514 5.11686 9.11686C4.54514 9.68857 3.76171 9.97829 2.19486 10.5577L1 11L2.19486 11.4423C3.76171 12.0217 4.54514 12.3123 5.11686 12.8831C5.68857 13.454 5.97829 14.2383 6.55771 15.8051L7 17L7.44229 15.8051C8.02171 14.2383 8.31229 13.4549 8.88314 12.8831C9.454 12.3114 10.2383 12.0217 11.8051 11.4423L13 11L11.8051 10.5577C10.2383 9.97829 9.45486 9.68857 8.88314 9.11686C8.31143 8.54514 8.02171 7.76171 7.44229 6.19486L7 5Z" stroke="currentColor" stroke-width="1.3" stroke-linecap="round" stroke-linejoin="round"/>
		<path d="M14.5 1L14.3158 1.4975C14.0742 2.15083 13.9533 2.4775 13.7158 2.715C13.4775 2.95333 13.1508 3.07417 12.4975 3.315L12 3.5L12.4983 3.68417C13.1508 3.92583 13.4775 4.04667 13.715 4.28417C13.9533 4.5225 14.0742 4.84917 14.315 5.5025L14.5 6L14.6842 5.5025C14.9258 4.84917 15.0467 4.5225 15.2842 4.285C15.5225 4.04667 15.8492 3.92583 16.5025 3.685L17 3.5L16.5017 3.31583C15.8492 3.07417 15.5225 2.95333 15.285 2.71583C15.0467 2.4775 14.9258 2.15083 14.685 1.4975L14.5 1Z" stroke="currentColor" stroke-width="1" stroke-linecap="round" stroke-linejoin="round"/>
	</symbol>
	<symbol id="icon-account1" viewBox="0 0 18 18" fill="none">
		<path d="M9 9.75C11.0711 9.75 12.75 8.07107 12.75 6C12.75 3.92893 11.0711 2.25 9 2.25C6.92893 2.25 5.25 3.92893 5.25 6C5.25 8.07107 6.92893 9.75 9 9.75ZM9 9.75C10.5913 9.75 12.1174 10.3821 13.2426 11.5074C14.3679 12.6326 15 14.1587 15 15.75M9 9.75C7.4087 9.75 5.88258 10.3821 4.75736 11.5074C3.63214 12.6326 3 14.1587 3 15.75" stroke="currentColor" stroke-width="1.5" stroke-linecap="round" stroke-linejoin="round"/>
	</symbol>
	<symbol id="icon-notifications" viewBox="0 0 18 18" fill="none">
		<path d="M7.70045 15.75C7.83211 15.978 8.02146 16.1674 8.24949 16.299C8.47751 16.4306 8.73616 16.4999 8.99945 16.4999C9.26274 16.4999 9.5214 16.4306 9.74942 16.299C9.97744 16.1674 10.1668 15.978 10.2985 15.75M2.44595 11.4945C2.34798 11.6019 2.28332 11.7354 2.25984 11.8789C2.23637 12.0223 2.25509 12.1695 2.31373 12.3025C2.37237 12.4356 2.4684 12.5487 2.59014 12.6281C2.71188 12.7075 2.85409 12.7499 2.99945 12.75H14.9995C15.1448 12.7501 15.287 12.7079 15.4089 12.6286C15.5307 12.5493 15.6268 12.4363 15.6856 12.3034C15.7444 12.1705 15.7633 12.0233 15.74 11.8798C15.7167 11.7364 15.6523 11.6028 15.5545 11.4952C14.557 10.467 13.4995 9.37425 13.4995 6C13.4995 4.80653 13.0253 3.66193 12.1814 2.81802C11.3375 1.97411 10.1929 1.5 8.99945 1.5C7.80598 1.5 6.66139 1.97411 5.81747 2.81802C4.97356 3.66193 4.49945 4.80653 4.49945 6C4.49945 9.37425 3.4412 10.467 2.44595 11.4945Z" stroke="currentColor" stroke-width="1.5" stroke-linecap="round" stroke-linejoin="round"/>
	</symbol>
</svg>