<svg xmlns="http://www.w3.org/2000/svg" style="display: none;">
	<symbol id="icon-collapse-sidebar" width="24" height="24" viewBox="0 0 24 24" fill="none" xmlns="http://www.w3.org/2000/svg">
		<path d="M9 3.0155V20.9855M19.771 20.8795C21.2165 20.826 22.346 19.705 22.4 18.2595C22.4525 16.857 22.5 14.812 22.5 12C22.5 9.188 22.4525 7.143 22.4 5.74C22.3455 4.295 21.2165 3.174 19.771 3.1205C18.121 3.06 15.59 3 12 3C8.41 3 5.879 3.06 4.229 3.1205C2.7835 3.174 1.654 4.295 1.6 5.7405C1.5475 7.143 1.5 9.188 1.5 12C1.5 14.812 1.5475 16.857 1.6 18.26C1.6545 19.705 2.7835 20.826 4.229 20.8795C5.879 20.94 8.41 21 12 21C15.59 21 18.121 20.94 19.771 20.8795Z" stroke="black" stroke-width="1.5" stroke-linecap="round" stroke-linejoin="round"/>
		<path d="M16.4854 9L13.4854 12L16.4854 15" stroke="black" stroke-width="2" stroke-linecap="round" stroke-linejoin="round"/>
	</symbol>
	<symbol id="icon-logo-small" width="33" height="22" viewBox="0 0 33 22" fill="none" xmlns="http://www.w3.org/2000/svg">
		<path fill-rule="evenodd" clip-rule="evenodd" d="M31.0825 3.61846L30.4335 2.76046C30.3486 2.64796 30.2307 2.56531 30.0966 2.52423C29.7837 2.4292 28.948 2.30465 28.5246 2.28355C28.4501 2.27894 28.3779 2.25653 28.3136 2.21817C28.2494 2.17981 28.1953 2.1266 28.1555 2.06293C27.751 1.43439 26.3274 -0.0624484 25.9957 0.00201829C25.6213 0.0748447 25.7542 0.262748 25.8233 0.625473C26.0211 1.66818 26.9273 3.04513 26.9273 3.04513C26.9273 3.04513 26.3413 4.79825 25.3582 4.98936C23.648 5.322 22.0385 2.01524 17.3568 1.98293C5.50112 1.98293 7.29143 18.576 0.576716 18.576C0.0637947 18.576 0.000723157 18.8587 0.000723157 18.9182C0.000723157 19.0389 -0.0595191 19.3202 0.919673 19.3202C8.40387 19.3202 9.47823 9.70147 11.5514 9.70147C12.3104 9.70147 12.2424 11.9953 12.2424 12.7465C12.2424 16.7593 10.607 17.6527 10.607 18.8069C10.607 19.2455 10.8637 19.5519 11.4669 19.8373C13.0132 20.5684 17.3715 22 18.5168 22C19.6621 22 16.6494 19.6627 15.818 19.6627C14.9866 19.6627 13.1509 19.4028 13.1509 18.21C13.1509 16.8774 18.7556 14.4227 18.7556 11.5428C20.1826 11.5428 21.4102 11.3749 22.4762 11.0878C22.6884 11.6085 23.0535 12.5345 23.1236 12.9049C23.1805 13.2049 23.0063 13.6976 22.538 13.7886C22.0697 13.8796 21.1855 14.5197 21.2391 14.8039C21.2927 15.0881 21.9922 15.33 22.4605 15.239C22.9288 15.1481 24.0663 14.7847 24.2176 13.7067C24.2904 13.1886 24.6322 11.1302 25.0304 10.0297C26.9532 8.90295 28.128 7.33255 29.0604 5.97827C29.0973 5.92431 29.1448 5.87853 29.1999 5.8438C29.255 5.80907 29.3166 5.78611 29.3808 5.77635C29.7434 5.67386 30.1181 5.62159 30.4948 5.62096C31.1146 5.62096 31.6723 5.8659 32.0335 5.8659C32.4471 5.8659 32.6806 5.35709 32.6806 5.12171C32.6809 4.43762 31.0825 3.61846 31.0825 3.61846Z" fill="#2F76FF"/>
	</symbol>
	<symbol id="icon-logo" width="152" height="22" viewBox="0 0 152 22" fill="none" xmlns="http://www.w3.org/2000/svg">
		<path fill-rule="evenodd" clip-rule="evenodd" d="M31.0825 3.61846L30.4335 2.76046C30.3486 2.64796 30.2307 2.56531 30.0966 2.52423C29.7837 2.4292 28.948 2.30465 28.5246 2.28355C28.4501 2.27894 28.3779 2.25653 28.3136 2.21817C28.2494 2.17981 28.1953 2.1266 28.1555 2.06293C27.751 1.43439 26.3274 -0.0624484 25.9957 0.00201829C25.6213 0.0748447 25.7542 0.262748 25.8233 0.625473C26.0211 1.66818 26.9273 3.04513 26.9273 3.04513C26.9273 3.04513 26.3413 4.79825 25.3582 4.98936C23.648 5.322 22.0385 2.01524 17.3568 1.98293C5.50112 1.98293 7.29143 18.576 0.576716 18.576C0.0637947 18.576 0.000723159 18.8587 0.000723159 18.9182C0.000723159 19.0389 -0.0595191 19.3202 0.919673 19.3202C8.40387 19.3202 9.47823 9.70147 11.5514 9.70147C12.3104 9.70147 12.2424 11.9953 12.2424 12.7465C12.2424 16.7593 10.607 17.6527 10.607 18.8069C10.607 19.2455 10.8637 19.5519 11.4669 19.8373C13.0132 20.5684 17.3715 22 18.5168 22C19.6621 22 16.6494 19.6627 15.818 19.6627C14.9866 19.6627 13.1509 19.4028 13.1509 18.21C13.1509 16.8774 18.7556 14.4227 18.7556 11.5428C20.1826 11.5428 21.4102 11.3749 22.4762 11.0878C22.6884 11.6085 23.0535 12.5345 23.1236 12.9049C23.1805 13.2049 23.0063 13.6976 22.538 13.7886C22.0697 13.8796 21.1855 14.5197 21.2391 14.8039C21.2927 15.0881 21.9922 15.33 22.4605 15.239C22.9288 15.1481 24.0663 14.7847 24.2176 13.7067C24.2904 13.1886 24.6322 11.1302 25.0304 10.0297C26.9532 8.90295 28.128 7.33255 29.0604 5.97827C29.0973 5.92431 29.1448 5.87853 29.1999 5.8438C29.255 5.80907 29.3166 5.78611 29.3808 5.77635C29.7434 5.67386 30.1181 5.62159 30.4948 5.62096C31.1146 5.62096 31.6723 5.8659 32.0335 5.8659C32.4471 5.8659 32.6806 5.35709 32.6806 5.12171C32.6809 4.43762 31.0825 3.61846 31.0825 3.61846Z" fill="#2F76FF"/>
		<path d="M41.9383 20.1173L41.8206 17.8407C42.163 17.8977 42.5375 17.9262 42.9442 17.9262C43.7359 17.9262 44.271 17.7231 44.5492 17.317C44.8274 16.9108 44.9665 16.2409 44.9665 15.3075V0.98481H47.8769V15.1151C47.8769 16.013 47.7948 16.7682 47.6308 17.3811C47.4739 18.001 47.2028 18.5248 46.8176 18.9523C46.4395 19.387 45.9331 19.7041 45.2982 19.9036C44.6704 20.1031 43.8893 20.2029 42.9548 20.2029C42.5625 20.2029 42.2237 20.1744 41.9383 20.1173ZM59.4117 15.7671C58.4772 16.5296 57.2467 16.9108 55.7201 16.9108C54.1935 16.9108 52.9631 16.5296 52.0286 15.7671C51.1012 15.0046 50.6376 13.8859 50.6376 12.4109V4.93956H53.4517V12.3041C53.4517 13.1805 53.6336 13.8146 53.9974 14.2066C54.3683 14.5985 54.9533 14.7945 55.7522 14.7945C56.5369 14.7945 57.1076 14.6021 57.4643 14.2173C57.828 13.8254 58.01 13.1876 58.01 12.3041V4.93956H60.8134V12.4109C60.8134 13.8788 60.3462 14.9976 59.4117 15.7671ZM63.3814 16.6864V4.93956H65.6499L65.9709 6.43598C66.1136 6.25784 66.2491 6.10105 66.3775 5.96568C66.513 5.82314 66.6949 5.66643 66.9232 5.49538C67.1586 5.31725 67.4047 5.17117 67.6615 5.05714C67.9254 4.94319 68.2465 4.84695 68.6246 4.7686C69.0098 4.69016 69.4199 4.65103 69.855 4.65103C70.7895 4.65103 71.5349 4.83978 72.0914 5.21747C72.655 5.59516 73.0508 6.03695 73.2791 6.54284C73.7 5.93717 74.2457 5.47042 74.9162 5.14266C75.5868 4.8149 76.3322 4.65103 77.1525 4.65103C78.5008 4.65103 79.4887 5.03226 80.1165 5.79463C80.7514 6.55709 81.0689 7.68653 81.0689 9.18294V16.6864H78.2546V10.0167C78.2546 8.86944 78.1262 8.04279 77.8695 7.53691C77.6198 7.02385 77.1383 6.76736 76.425 6.76736C75.3336 6.76736 74.5488 7.259 74.0709 8.24235C73.8711 8.67706 73.7356 9.20074 73.6643 9.81358V16.6864H70.8609V9.88839C70.8609 8.84093 70.7217 8.06068 70.4435 7.54762C70.1653 7.03456 69.6624 6.77799 68.9349 6.77799C68.3427 6.77799 67.8327 6.9277 67.4047 7.22695C66.9767 7.52619 66.6521 7.91814 66.431 8.40269C66.2669 9.12239 66.1849 9.98463 66.1849 10.9893V16.6864H63.3814ZM83.8403 21.571V4.93956H86.2475L86.5471 6.5856C86.9327 5.96568 87.4423 5.4883 88.0778 5.15337C88.7195 4.81136 89.4329 4.64031 90.2173 4.64031C91.1807 4.64031 92.0254 4.90751 92.753 5.44191C93.4878 5.97639 94.0444 6.7068 94.4228 7.63314C94.8004 8.55231 94.9901 9.59268 94.9901 10.7542C94.9901 12.5713 94.5478 14.0534 93.6633 15.2007C92.7858 16.3407 91.5946 16.9108 90.0888 16.9108C89.347 16.9108 88.6734 16.7647 88.0671 16.4725C87.4671 16.1733 86.9646 15.7706 86.5578 15.2648C86.6154 16.2909 86.6437 16.868 86.6437 16.9963V21.4321L83.8403 21.571ZM89.4897 14.7731C90.3246 14.7731 90.9804 14.4239 91.459 13.7256C91.9438 13.0273 92.1867 12.0297 92.1867 10.7328C92.1867 9.41455 91.9438 8.42402 91.459 7.76134C90.9733 7.09866 90.2997 6.76736 89.4365 6.76736C87.5814 6.76736 86.6437 8.02863 86.6224 10.5511C86.6224 12.0047 86.8609 13.0736 87.3395 13.7576C87.8243 14.4346 88.5413 14.7731 89.4897 14.7731ZM101.036 16.9001C99.302 16.9001 97.914 16.6044 96.8726 16.013L97.1615 13.9073C97.633 14.1638 98.2322 14.3954 98.9598 14.6021C99.6875 14.8015 100.35 14.9013 100.95 14.9013C101.57 14.9013 102.052 14.7874 102.394 14.5593C102.743 14.3242 102.923 13.9821 102.93 13.5332C102.93 13.1271 102.765 12.8064 102.437 12.5713C102.116 12.3361 101.499 12.0439 100.586 11.6948C100.272 11.5807 100.069 11.5059 99.9764 11.4703C98.8916 11.0499 98.1108 10.5831 97.633 10.0701C97.1544 9.54992 96.916 8.84802 96.916 7.96444C96.916 6.89556 97.3007 6.07617 98.0718 5.50609C98.8491 4.93602 99.9295 4.65103 101.314 4.65103C102.812 4.65103 104.128 4.93248 105.261 5.49538L104.567 7.43004C103.446 6.90981 102.38 6.64979 101.367 6.64979C100.803 6.64979 100.361 6.74594 100.04 6.93832C99.7265 7.12362 99.5696 7.40862 99.5696 7.79348C99.5696 8.15683 99.723 8.44191 100.03 8.64855C100.336 8.84802 100.935 9.11167 101.827 9.43952C101.855 9.4466 101.948 9.47865 102.105 9.53567C102.262 9.59268 102.384 9.63899 102.469 9.67467C103.546 10.0665 104.338 10.5368 104.845 11.0856C105.351 11.627 105.604 12.3361 105.604 13.2125C105.597 14.3883 105.198 15.2968 104.406 15.9381C103.614 16.5794 102.491 16.9001 101.036 16.9001ZM107.83 16.6864V0.610716L110.633 0.429007V3.81729C110.633 3.98117 110.623 4.43721 110.601 5.18542C110.58 5.92646 110.57 6.30415 110.57 6.3184C111.504 5.20676 112.759 4.65103 114.335 4.65103C115.648 4.65103 116.665 5.02863 117.385 5.78401C118.113 6.53221 118.476 7.68653 118.476 9.24704V16.6864H115.673V9.55709C115.673 8.59507 115.52 7.88963 115.213 7.44076C114.906 6.9918 114.385 6.76736 113.65 6.76736C113.023 6.76736 112.466 6.9277 111.981 7.24828C111.497 7.56187 111.132 7.96798 110.89 8.46679C110.719 9.12239 110.633 9.97745 110.633 11.0321V16.6864H107.83ZM124.351 16.9108C123.26 16.9108 122.375 16.6115 121.697 16.013C121.027 15.4073 120.691 14.538 120.691 13.4049C120.691 12.1865 121.091 11.285 121.889 10.7007C122.689 10.1093 123.894 9.73522 125.507 9.57843C125.728 9.54992 125.967 9.52141 126.224 9.4929C126.481 9.46439 126.77 9.43589 127.09 9.40738C127.411 9.37887 127.665 9.35399 127.85 9.33257V8.71265C127.85 8.00012 127.686 7.48343 127.358 7.16285C127.029 6.835 126.53 6.67112 125.859 6.67112C124.904 6.67112 123.723 6.93832 122.318 7.47281C122.31 7.45138 122.193 7.12717 121.965 6.50007C121.736 5.87307 121.619 5.5524 121.612 5.53814C122.996 4.94673 124.493 4.65103 126.106 4.65103C127.689 4.65103 128.842 4.99658 129.562 5.68777C130.283 6.37188 130.643 7.48343 130.643 9.02261V16.6864H128.567C128.56 16.6578 128.481 16.4192 128.331 15.9702C128.181 15.5212 128.107 15.2825 128.107 15.254C127.522 15.8241 126.948 16.2446 126.384 16.5153C125.827 16.779 125.15 16.9108 124.351 16.9108ZM125.11 14.9227C125.76 14.9227 126.324 14.7695 126.801 14.4631C127.286 14.1496 127.633 13.7719 127.839 13.3301V11.0641C127.818 11.0641 127.629 11.0784 127.272 11.1069C126.923 11.1354 126.733 11.1497 126.705 11.1497C125.571 11.2494 124.74 11.4632 124.212 11.791C123.684 12.1188 123.42 12.6461 123.42 13.3729C123.42 13.8717 123.566 14.2564 123.859 14.5273C124.151 14.7909 124.569 14.9227 125.11 14.9227ZM133.478 16.6864V4.93956H135.832L136.196 6.73522C136.966 5.50255 138.083 4.88617 139.546 4.88617C139.852 4.88617 140.101 4.90043 140.295 4.92894L140.251 7.26971C139.966 7.22695 139.67 7.20561 139.363 7.20561C138.329 7.20561 137.555 7.47989 137.041 8.02863C136.535 8.57728 136.281 9.33974 136.281 10.3159V16.6864H133.478ZM147.334 16.9108C145.445 16.9108 143.972 16.3692 142.915 15.2861C141.867 14.1959 141.343 12.6924 141.343 10.7755C141.343 8.90857 141.838 7.42287 142.83 6.3184C143.822 5.21393 145.174 4.65811 146.885 4.65103C148.504 4.65103 149.76 5.15691 150.652 6.16878C151.551 7.18064 152 8.5238 152 10.1983C152 10.3195 151.996 10.5155 151.989 10.7862C151.989 11.057 151.989 11.2565 151.989 11.3848H144.168C144.196 12.4822 144.496 13.3337 145.066 13.9394C145.644 14.538 146.436 14.8372 147.442 14.8372C148.726 14.8372 149.96 14.5023 151.144 13.8325L151.54 15.8206C150.363 16.5474 148.962 16.9108 147.334 16.9108ZM144.221 9.62119H149.357C149.357 8.66634 149.14 7.93239 148.705 7.41933C148.27 6.90627 147.667 6.64979 146.896 6.64979C146.176 6.64979 145.565 6.89919 145.066 7.39799C144.575 7.8968 144.293 8.63784 144.221 9.62119Z" fill="#122345"/>
	</symbol>
	<symbol id="icon-history" viewBox="0 0 24 24" fill="none" xmlns="http://www.w3.org/2000/svg">
		<path d="M6.34311 17.6568C7.65195 18.9657 9.37416 19.7802 11.2163 19.9615C13.0583 20.1428 14.9063 19.6798 16.4453 18.6513C17.9842 17.6228 19.1189 16.0924 19.6559 14.3211C20.1929 12.5497 20.0991 10.6469 19.3904 8.93695C18.6817 7.22701 17.4019 5.81573 15.7693 4.94362C14.1366 4.07151 12.252 3.79254 10.4367 4.15424C8.62141 4.51594 6.9877 5.49593 5.81398 6.92722C4.64027 8.3585 3.99919 10.1525 4 12.0035V13.7777M2 12L3.73333 14L5.46667 12M10.6667 8V13H15" stroke="black" stroke-width="1.5" stroke-linecap="round" stroke-linejoin="round"/>
	</symbol>
	<symbol id="icon-spaces" viewBox="0 0 24 24" fill="none">
		<path d="M9.39453 12.4873C9.67433 12.4871 9.94964 12.5429 10.2051 12.6484C10.4625 12.7549 10.6966 12.9115 10.8936 13.1084C11.0905 13.3053 11.2471 13.5395 11.3535 13.7969C11.4597 14.0539 11.5139 14.3293 11.5137 14.6074V17.543C11.5113 18.1034 11.287 18.6399 10.8896 19.0352C10.4924 19.4304 9.9549 19.6527 9.39453 19.6523H6.46192C6.18485 19.6525 5.91036 19.598 5.6543 19.4922C5.39784 19.3861 5.16402 19.2304 4.96777 19.0342C4.77153 18.8379 4.61584 18.6041 4.50977 18.3477C4.40384 18.0913 4.34932 17.8164 4.34961 17.5391V14.6074C4.34962 14.0472 4.57176 13.5096 4.9668 13.1123C5.36176 12.7151 5.89788 12.4906 6.45801 12.4873H9.39453ZM17.5381 12.4873C17.817 12.4871 18.0912 12.5432 18.3457 12.6484C18.6022 12.7545 18.836 12.9102 19.0322 13.1064C19.2283 13.3026 19.3842 13.5357 19.4902 13.792C19.5961 14.048 19.6506 14.3225 19.6504 14.5996V17.5312L19.6396 17.7402C19.5923 18.2243 19.3792 18.6795 19.0332 19.0273C18.6379 19.4247 18.1015 19.6499 17.541 19.6523H14.6055C14.3273 19.6525 14.052 19.5975 13.7949 19.4912C13.5375 19.3848 13.3034 19.2282 13.1064 19.0312C12.9096 18.8344 12.7529 18.601 12.6465 18.3438C12.54 18.0864 12.486 17.8098 12.4863 17.5312V14.5977C12.4884 14.0368 12.7119 13.4991 13.1094 13.1035C13.5067 12.7081 14.0449 12.4869 14.6055 12.4873H17.5381ZM14.6045 13.7871C14.388 13.787 14.1798 13.8727 14.0264 14.0254C13.873 14.1782 13.7869 14.386 13.7861 14.6025V17.5332C13.786 17.6407 13.8066 17.7473 13.8477 17.8467C13.8888 17.9461 13.9494 18.0363 14.0254 18.1123C14.1014 18.1883 14.1917 18.2489 14.291 18.29C14.3903 18.3311 14.497 18.3516 14.6045 18.3516H17.5352C17.7517 18.3507 17.9596 18.2648 18.1123 18.1113C18.265 17.9579 18.3498 17.7497 18.3496 17.5332V14.5996L18.3457 14.5195C18.338 14.4404 18.3186 14.3628 18.2881 14.2891C18.2474 14.1906 18.1877 14.1008 18.1123 14.0254C18.0371 13.9502 17.9479 13.8903 17.8496 13.8496C17.7497 13.8083 17.6438 13.7871 17.5391 13.7871H14.6045ZM9.39453 4.35156V4.35254C9.9549 4.35215 10.4924 4.57352 10.8896 4.96875C11.287 5.36405 11.5113 5.90047 11.5137 6.46094V9.39551C11.514 9.67385 11.4598 9.94979 11.3535 10.207C11.2471 10.4644 11.0905 10.6986 10.8936 10.8955C10.6966 11.0925 10.4625 11.249 10.2051 11.3555C9.94806 11.4617 9.67263 11.5158 9.39453 11.5156H6.45899C5.89852 11.5132 5.3621 11.2889 4.9668 10.8916C4.5714 10.4942 4.34903 9.95613 4.34961 9.39551V6.46387C4.34943 6.1868 4.40394 5.91231 4.50977 5.65625C4.61584 5.39979 4.77153 5.16597 4.96777 4.96973C5.16402 4.77348 5.39784 4.61779 5.6543 4.51172C5.91036 4.40589 6.18485 4.35236 6.46192 4.35254L9.39453 4.35156ZM17.5381 4.35156V4.35254C17.8152 4.35236 18.0896 4.40589 18.3457 4.51172C18.6022 4.61779 18.836 4.77348 19.0322 4.96973C19.2285 5.16597 19.3842 5.39979 19.4902 5.65625C19.5961 5.91231 19.6506 6.1868 19.6504 6.46387V9.39551L19.6396 9.60449C19.5922 10.0885 19.3792 10.5438 19.0332 10.8916C18.6379 11.2889 18.1015 11.5132 17.541 11.5156H14.6055C14.0435 11.5153 13.5048 11.2919 13.1074 10.8945C12.7598 10.5469 12.5445 10.0914 12.4961 9.60645L12.4863 9.39648V6.46094C12.4887 5.90047 12.713 5.36405 13.1104 4.96875C13.5076 4.57352 14.0451 4.35215 14.6055 4.35254L17.5381 4.35156ZM6.46094 5.65234C6.35451 5.65229 6.24875 5.67319 6.15039 5.71387C6.05207 5.7546 5.96295 5.81439 5.8877 5.88965C5.81244 5.9649 5.75265 6.05403 5.71192 6.15234C5.67124 6.2507 5.65034 6.35646 5.65039 6.46289V9.39746C5.65026 9.61369 5.7353 9.82122 5.8877 9.97461C6.04042 10.1281 6.24831 10.2149 6.46484 10.2158H9.39551C9.50297 10.2159 9.60968 10.1954 9.70899 10.1543C9.80834 10.1132 9.89857 10.0526 9.97461 9.97656C10.0506 9.90053 10.1112 9.81029 10.1523 9.71094C10.1934 9.61164 10.2139 9.50492 10.2139 9.39746V6.4668L10.21 6.38574C10.1906 6.19899 10.1069 6.02322 9.97266 5.88965C9.81927 5.73725 9.61174 5.65221 9.39551 5.65234H6.46094ZM5.65039 17.541C5.65034 17.6474 5.67123 17.7532 5.71192 17.8516C5.75265 17.9499 5.81244 18.039 5.8877 18.1143C5.96295 18.1895 6.05207 18.2493 6.15039 18.29C6.24875 18.3307 6.35451 18.3516 6.46094 18.3516H9.39551C9.61174 18.3517 9.81927 18.2667 9.97266 18.1143C10.1255 17.9622 10.2122 17.7556 10.2139 17.54V14.6064C10.2139 14.499 10.1934 14.3923 10.1523 14.293C10.1112 14.1936 10.0506 14.1034 9.97461 14.0273C9.89857 13.9513 9.80834 13.8907 9.70899 13.8496C9.6081 13.8079 9.50127 13.787 9.39551 13.7871H6.46582L6.38477 13.792C6.19784 13.8116 6.02235 13.8949 5.88867 14.0293C5.73592 14.183 5.6504 14.3907 5.65039 14.6074V17.541ZM13.7861 9.39648C13.7863 9.61378 13.8727 9.82193 14.0264 9.97559C14.18 10.1292 14.3882 10.2156 14.6055 10.2158H17.5352C17.7517 10.2149 17.9596 10.1281 18.1123 9.97461C18.2647 9.82122 18.3497 9.61369 18.3496 9.39746V6.46289C18.3497 6.35646 18.3288 6.2507 18.2881 6.15234C18.2474 6.05403 18.1876 5.9649 18.1123 5.88965C18.0371 5.81439 17.9479 5.7546 17.8496 5.71387C17.7513 5.67319 17.6455 5.65229 17.5391 5.65234H14.6045C14.3883 5.65221 14.1807 5.73725 14.0273 5.88965C13.8738 6.04237 13.787 6.25026 13.7861 6.4668V9.39648Z" fill="currentColor"/>
	</symbol>
	<symbol id="icon-integrations" viewBox="0 0 18 18" fill="none">
		<path d="M5.25 8.25V11.25C5.25 11.6478 5.40804 12.0294 5.68934 12.3107C5.97064 12.592 6.35218 12.75 6.75 12.75H9.75M3.75 2.25H6.75C7.57843 2.25 8.25 2.92157 8.25 3.75V6.75C8.25 7.57843 7.57843 8.25 6.75 8.25H3.75C2.92157 8.25 2.25 7.57843 2.25 6.75V3.75C2.25 2.92157 2.92157 2.25 3.75 2.25ZM11.25 9.75H14.25C15.0784 9.75 15.75 10.4216 15.75 11.25V14.25C15.75 15.0784 15.0784 15.75 14.25 15.75H11.25C10.4216 15.75 9.75 15.0784 9.75 14.25V11.25C9.75 10.4216 10.4216 9.75 11.25 9.75Z" stroke="currentColor" stroke-width="1.5" stroke-linecap="round" stroke-linejoin="round"/>
	</symbol>
	<symbol id="icon-data" viewBox="0 0 18 18" fill="none">
		<path d="M10.17 1.5C10.5619 1.50005 10.9383 1.65349 11.2185 1.9275L14.5485 5.184C14.6914 5.32368 14.805 5.49051 14.8825 5.67468C14.96 5.85886 15 6.05667 15 6.2565V15C15 15.3978 14.842 15.7794 14.5607 16.0607C14.2794 16.342 13.8978 16.5 13.5 16.5H4.5C4.10218 16.5 3.72064 16.342 3.43934 16.0607C3.15804 15.7794 3 15.3978 3 15V3C3 2.60218 3.15804 2.22064 3.43934 1.93934C3.72064 1.65804 4.10218 1.5 4.5 1.5H10.17ZM10.17 1.5V5C10.17 5.55228 10.6177 6 11.17 6H15M6.75 9.75H11.25M6.75 12.75H9" stroke="currentColor" stroke-width="1.3" stroke-linecap="round" stroke-linejoin="round"/>
	</symbol>
	<symbol id="icon-sso" viewBox="0 0 18 18" fill="none">
		<path d="M7.0575 15H4.875C3.75 15 2.76 14.625 1.9575 13.8225C1.155 13.035 0.75 12.0675 0.75 10.935C0.75 9.96 1.0425 9.09 1.6275 8.325C2.1981 7.57724 3.01753 7.05844 3.9375 6.8625C4.2525 5.715 4.875 4.785 5.8125 4.0725C6.75 3.375 7.815 3 9 3C10.4625 3 11.7075 3.51 12.72 4.53C13.74 5.5425 14.25 6.7875 14.25 8.25C15.1125 8.3475 15.8325 8.7225 16.395 9.375C16.875 9.9225 17.145 10.545 17.22 11.25H15.72C15.645 10.875 15.48 10.5675 15.2025 10.2975C14.8425 9.93 14.4 9.75 13.875 9.75H12.75V8.25C12.75 7.215 12.375 6.33 11.655 5.595C10.9275 4.875 10.0425 4.5 9 4.5C7.965 4.5 7.08 4.875 6.345 5.595C5.625 6.33 5.25 7.215 5.25 8.25H4.875C4.1475 8.25 3.5325 8.505 3.0225 9.0225C2.505 9.5325 2.25 10.1475 2.25 10.875C2.25 11.6025 2.505 12.225 3.0225 12.75C3.5325 13.2525 4.1475 13.5 4.875 13.5H6.75C6.75 14.04 6.8625 14.5425 7.0575 15ZM17.25 12.75V14.25H15.75V15.75H14.25V14.25H12.6C12.3 15.15 11.475 15.75 10.5 15.75C9.225 15.75 8.25 14.775 8.25 13.5C8.25 12.225 9.225 11.25 10.5 11.25C11.475 11.25 12.3 11.85 12.6 12.75H17.25ZM11.25 13.5C11.25 13.125 10.95 12.75 10.5 12.75C10.05 12.75 9.75 13.125 9.75 13.5C9.75 13.875 10.05 14.25 10.5 14.25C10.95 14.25 11.25 13.875 11.25 13.5Z" fill="currentColor"/>
	</symbol>
	<symbol id="icon-billing" viewBox="0 0 18 18" fill="none">
		<path d="M7.6 12H4.8M10.4 12H9.35M2 7H16M1.5 9C1.5 6.17175 1.5 4.75725 2.379 3.879C3.258 3.00075 4.67175 3 7.5 3H10.5C13.3282 3 14.7427 3 15.621 3.879C16.4992 4.758 16.5 6.17175 16.5 9C16.5 11.8282 16.5 13.2427 15.621 14.121C14.742 14.9992 13.3282 15 10.5 15H7.5C4.67175 15 3.25725 15 2.379 14.121C1.50075 13.242 1.5 11.8282 1.5 9Z" stroke="currentColor" stroke-width="1.3" stroke-linecap="round"/>
	</symbol>
	<symbol id="icon-branding" viewBox="0 0 18 18" fill="none">
		<path d="M8.25134 7.4998L10.5013 9.7498M7.47809 12.7731L16.0348 4.2178C16.3334 3.91923 16.5011 3.51429 16.5011 3.09205C16.5011 2.66981 16.3334 2.26487 16.0348 1.9663C15.7363 1.66773 15.3313 1.5 14.9091 1.5C14.4869 1.5 14.0819 1.66773 13.7833 1.9663L5.22659 10.5231M4.87634 15.7498C5.39552 15.7498 5.90304 15.5958 6.33471 15.3074C6.76639 15.019 7.10285 14.609 7.30153 14.1293C7.50021 13.6497 7.55219 13.1219 7.4509 12.6127C7.34962 12.1035 7.09961 11.6358 6.7325 11.2686C6.36538 10.9015 5.89765 10.6515 5.38845 10.5502C4.87925 10.449 4.35145 10.5009 3.8718 10.6996C3.39214 10.8983 2.98217 11.2348 2.69373 11.6664C2.4053 12.0981 2.25134 12.6056 2.25134 13.1248C2.25148 13.624 2.06163 14.1045 1.72034 14.4688C1.61518 14.5737 1.54354 14.7075 1.51448 14.8531C1.48543 14.9988 1.50029 15.1498 1.55717 15.287C1.61404 15.4242 1.71038 15.5414 1.83396 15.6238C1.95755 15.7062 2.10281 15.7501 2.25134 15.7498H4.87634Z" stroke="currentColor" stroke-width="1.2" stroke-linecap="round" stroke-linejoin="round"/>
	</symbol>
	<symbol id="icon-activity" viewBox="0 0 18 18" fill="none">
		<path d="M15.75 8.9999H13.5285C13.371 8.9999 13.2915 8.9999 13.2247 9.0314C13.1637 9.06029 13.1117 9.10512 13.074 9.16115C13.0282 9.22715 13.005 9.3149 12.9578 9.49115L11.595 14.6257C11.4203 15.2819 11.3332 15.6104 11.202 15.6952C11.1481 15.731 11.0847 15.7501 11.0199 15.7498C10.9551 15.7495 10.8919 15.73 10.8383 15.6937C10.707 15.6074 10.6223 15.2782 10.4528 14.6212L7.548 3.37865C7.37775 2.72165 7.293 2.3924 7.16175 2.30615C7.10812 2.26982 7.04488 2.25027 6.9801 2.25C6.91532 2.24974 6.85193 2.26876 6.798 2.30465C6.66675 2.3894 6.57975 2.71715 6.405 3.37415L5.04225 8.5079C4.995 8.6849 4.97175 8.77265 4.92675 8.8379C4.88899 8.89431 4.83663 8.93942 4.77525 8.9684C4.7085 8.9999 4.62975 8.9999 4.4715 8.9999H2.25" stroke="currentColor" stroke-width="1.3" stroke-linecap="round" stroke-linejoin="round"/>
	</symbol>
	<symbol id="icon-general-settings" viewBox="0 0 18 18" fill="none">
		<path d="M6.15332 8.25C6.24407 8.25 6.39377 8.24972 6.53027 8.26172C6.69896 8.27671 6.98665 8.31918 7.29102 8.48926C7.5928 8.65823 7.84273 8.90721 8.01172 9.20898C8.18122 9.51273 8.22328 9.80098 8.23828 9.96973C8.25103 10.107 8.25 10.2559 8.25 10.3467V14.4033C8.25 14.4941 8.25028 14.6438 8.23828 14.7803C8.22329 14.949 8.18157 15.2367 8.01074 15.541C7.84177 15.8428 7.59279 16.0927 7.29102 16.2617C7.05658 16.3906 6.79703 16.4679 6.53027 16.4883C6.39302 16.5003 6.24407 16.5 6.15332 16.5H3.59668C3.50668 16.5 3.35623 16.5003 3.21973 16.4883C2.95292 16.4677 2.69336 16.3899 2.45898 16.2607C2.15733 16.0918 1.90821 15.8427 1.73926 15.541C1.61011 15.3066 1.53233 15.0471 1.51172 14.7803C1.49972 14.643 1.5 14.4941 1.5 14.4033V10.3467C1.5 10.2567 1.49972 10.1062 1.51172 9.96973C1.52672 9.80098 1.56901 9.51273 1.73926 9.20898C1.90821 8.90733 2.15733 8.65821 2.45898 8.48926C2.69336 8.36011 2.95292 8.28233 3.21973 8.26172C3.35698 8.24972 3.50593 8.25 3.59668 8.25H6.15332ZM14.4033 10.5C14.4941 10.5 14.643 10.4997 14.7803 10.5117C15.0471 10.5323 15.3066 10.6101 15.541 10.7393C15.8427 10.9082 16.0918 11.1573 16.2607 11.459C16.3899 11.6934 16.4677 11.9529 16.4883 12.2197C16.5003 12.3562 16.5 12.5067 16.5 12.5967V14.4033C16.5 14.4941 16.5003 14.643 16.4883 14.7803C16.4733 14.949 16.432 15.2373 16.2617 15.541C16.0927 15.8428 15.8428 16.0918 15.541 16.2607C15.2367 16.4308 14.949 16.4733 14.7803 16.4883C14.6438 16.5003 14.4941 16.5 14.4033 16.5H11.8467C11.7559 16.5 11.607 16.5003 11.4697 16.4883C11.301 16.4733 11.0127 16.432 10.709 16.2617C10.4072 16.0927 10.1582 15.8428 9.98926 15.541C9.81918 15.2367 9.77671 14.949 9.76172 14.7803C9.74972 14.6438 9.75 14.4941 9.75 14.4033V12.5967C9.75 12.5059 9.74972 12.357 9.76172 12.2197C9.78233 11.9529 9.86011 11.6934 9.98926 11.459C10.1582 11.1573 10.4073 10.9082 10.709 10.7393C11.0127 10.569 11.301 10.5267 11.4697 10.5117C11.6062 10.4997 11.7567 10.5 11.8467 10.5H14.4033ZM3.61914 9.75C3.3913 9.75 3.27763 9.74995 3.19141 9.79785C3.13132 9.83176 3.08145 9.88212 3.04785 9.94238C3.00008 10.0278 3 10.1402 3 10.3691V14.3818C3 14.6088 3.00005 14.7229 3.04785 14.8076C3.08165 14.868 3.13202 14.9184 3.19238 14.9521C3.27784 14.9999 3.39146 15 3.61914 15H6.13086C6.3587 15 6.47311 15 6.55859 14.9521C6.61868 14.9182 6.66855 14.8679 6.70215 14.8076C6.74995 14.7229 6.75 14.6093 6.75 14.3809V10.3691C6.75 10.1413 6.75005 10.0276 6.70215 9.94141C6.66824 9.88132 6.61788 9.83145 6.55762 9.79785C6.47291 9.75005 6.35929 9.75 6.13086 9.75H3.61914ZM11.8691 12C11.6409 12 11.5278 12.0001 11.4424 12.0479C11.3821 12.0814 11.3318 12.1313 11.2979 12.1914C11.25 12.2776 11.25 12.3913 11.25 12.6191V14.3809C11.25 14.6093 11.2501 14.7229 11.2979 14.8076C11.3314 14.8679 11.3813 14.9182 11.4414 14.9521C11.5276 15 11.6413 15 11.8691 15H14.3809C14.6085 15 14.7229 14.9999 14.8076 14.9521C14.868 14.9184 14.9184 14.868 14.9521 14.8076C14.9999 14.7229 15 14.6088 15 14.3818V12.6191C15 12.3909 14.9999 12.2778 14.9521 12.1924C14.9184 12.1316 14.8676 12.0816 14.8076 12.0479C14.7229 12.0001 14.6088 12 14.3818 12H11.8691ZM14.4033 1.5C14.4941 1.5 14.643 1.49972 14.7803 1.51172C15.0471 1.53233 15.3066 1.61011 15.541 1.73926C15.8427 1.90821 16.0918 2.15733 16.2607 2.45898C16.3899 2.69336 16.4677 2.95292 16.4883 3.21973C16.5003 3.35623 16.5 3.50668 16.5 3.59668V7.65332C16.5 7.74407 16.5003 7.89302 16.4883 8.03027C16.4733 8.19902 16.432 8.48727 16.2617 8.79102C16.0927 9.09279 15.8428 9.34177 15.541 9.51074C15.2367 9.68157 14.949 9.72329 14.7803 9.73828C14.6438 9.75028 14.4941 9.75 14.4033 9.75H11.8467C11.7559 9.75 11.607 9.75103 11.4697 9.73828C11.301 9.72328 11.0127 9.68122 10.709 9.51172C10.4072 9.34273 10.1582 9.0928 9.98926 8.79102C9.81918 8.48665 9.77671 8.19896 9.76172 8.03027C9.74972 7.89377 9.75 7.74407 9.75 7.65332V3.59668C9.75 3.50593 9.74972 3.35698 9.76172 3.21973C9.78233 2.95292 9.86011 2.69336 9.98926 2.45898C10.1582 2.15733 10.4073 1.90821 10.709 1.73926C11.0127 1.56901 11.301 1.52672 11.4697 1.51172C11.6062 1.49972 11.7567 1.5 11.8467 1.5H14.4033ZM11.8691 3C11.6402 3 11.5278 3.00008 11.4424 3.04785C11.3821 3.08145 11.3318 3.13132 11.2979 3.19141C11.25 3.27763 11.25 3.3913 11.25 3.61914V7.63086C11.25 7.85929 11.2501 7.97216 11.2979 8.05762C11.3314 8.11788 11.3813 8.16824 11.4414 8.20215C11.5276 8.25005 11.6413 8.25 11.8691 8.25H14.3809C14.6085 8.25 14.7229 8.24995 14.8076 8.20215C14.8679 8.16855 14.9182 8.11868 14.9521 8.05859C15 7.97237 15 7.8587 15 7.63086V3.61914C15 3.39146 14.9999 3.27784 14.9521 3.19238C14.9184 3.13202 14.868 3.08165 14.8076 3.04785C14.7229 3.00005 14.6088 3 14.3818 3H11.8691ZM6.15332 1.5C6.24407 1.5 6.39377 1.49972 6.53027 1.51172C6.69896 1.52671 6.98665 1.56918 7.29102 1.73926C7.5928 1.90823 7.84273 2.15721 8.01172 2.45898C8.18122 2.76273 8.22328 3.05098 8.23828 3.21973C8.25103 3.35698 8.25 3.50593 8.25 3.59668V5.40332C8.25 5.49407 8.25028 5.64377 8.23828 5.78027C8.22329 5.94896 8.18157 6.23665 8.01074 6.54102C7.84177 6.8428 7.59279 7.09273 7.29102 7.26172C7.05658 7.39061 6.79703 7.4679 6.53027 7.48828C6.39302 7.50103 6.24407 7.5 6.15332 7.5H3.59668C3.50668 7.5 3.35623 7.50028 3.21973 7.48828C2.95292 7.46767 2.69336 7.38989 2.45898 7.26074C2.15733 7.09179 1.90821 6.84267 1.73926 6.54102C1.61011 6.30664 1.53233 6.04709 1.51172 5.78027C1.49972 5.64302 1.5 5.49407 1.5 5.40332V3.59668C1.5 3.50668 1.49972 3.35623 1.51172 3.21973C1.52672 3.05098 1.56901 2.76273 1.73926 2.45898C1.90821 2.15733 2.15733 1.90821 2.45898 1.73926C2.69336 1.61011 2.95292 1.53233 3.21973 1.51172C3.35698 1.49972 3.50593 1.5 3.59668 1.5H6.15332ZM3.61914 3C3.3913 3 3.27763 2.99995 3.19141 3.04785C3.13132 3.08176 3.08145 3.13212 3.04785 3.19238C3.00005 3.27784 3 3.39071 3 3.61914V5.38086C3 5.6087 2.99995 5.72311 3.04785 5.80859C3.08176 5.86868 3.13212 5.91855 3.19238 5.95215C3.27784 5.99995 3.39071 6 3.61914 6H6.13086C6.3587 6 6.47311 6.00005 6.55859 5.95215C6.61868 5.91824 6.66855 5.86788 6.70215 5.80762C6.74995 5.72291 6.75 5.60929 6.75 5.38086V3.61914C6.75 3.3913 6.75005 3.27763 6.70215 3.19141C6.66824 3.13132 6.61788 3.08145 6.55762 3.04785C6.47291 3.00005 6.35929 3 6.13086 3H3.61914Z" fill="currentColor"/>
	</symbol>
	<symbol id="icon-custom-domain" viewBox="0 0 18 18" fill="none">
		<path d="M16.5 9C16.5 13.1421 13.1421 16.5 9 16.5M16.5 9C16.5 4.85786 13.1421 1.5 9 1.5M16.5 9H1.5M9 16.5C4.85786 16.5 1.5 13.1421 1.5 9M9 16.5C7.07418 14.4779 6 11.7924 6 9C6 6.20756 7.07418 3.52212 9 1.5M9 16.5C10.9258 14.4779 12 11.7924 12 9C12 6.20756 10.9258 3.52212 9 1.5M1.5 9C1.5 4.85786 4.85786 1.5 9 1.5" stroke="currentColor" stroke-width="1.125" stroke-linecap="round" stroke-linejoin="round"/>
	</symbol>
	<symbol id="icon-video-player" viewBox="0 0 17 17" fill="none">
		<path d="M1.379 2.879C0.5 3.75725 0.5 5.17175 0.5 8C0.5 10.8282 0.50075 12.242 1.379 13.121C2.25725 14 3.67175 14 6.5 14H9.5C12.3282 14 13.742 13.9992 14.621 13.121C15.5 12.2427 15.5 10.8282 15.5 8C15.5 5.17175 15.4992 3.758 14.621 2.879C13.7427 2 12.3282 2 9.5 2H6.5C3.67175 2 2.258 2.00075 1.379 2.879Z" stroke="currentColor" stroke-width="1.3" stroke-linecap="round"/>
		<path d="M6.55053 5.13286L9.91541 7.61221C9.97325 7.65462 10.0207 7.71218 10.0535 7.77978C10.0863 7.84737 10.1035 7.9229 10.1035 7.99961C10.1035 8.07632 10.0863 8.15185 10.0535 8.21944C10.0207 8.28704 9.97325 8.3446 9.91541 8.38701L6.55053 10.8664C6.48715 10.9131 6.41347 10.9399 6.33736 10.944C6.26125 10.948 6.18558 10.9292 6.11842 10.8894C6.05126 10.8496 5.99514 10.7904 5.95605 10.7181C5.91696 10.6458 5.89637 10.5632 5.89648 10.479V5.52026C5.89637 5.43604 5.91696 5.35337 5.95605 5.28108C5.99514 5.20879 6.05126 5.1496 6.11842 5.10982C6.18558 5.07004 6.26125 5.05117 6.33736 5.05523C6.41347 5.05929 6.48715 5.08612 6.55053 5.13286Z" stroke="currentColor" stroke-width="1.3" stroke-linecap="round"/>
	</symbol>
	<symbol id="icon-jumpshare-ai" viewBox="0 0 18 18" fill="none">
		<path d="M7 5L6.55771 6.19486C5.97829 7.76171 5.68857 8.54514 5.11686 9.11686C4.54514 9.68857 3.76171 9.97829 2.19486 10.5577L1 11L2.19486 11.4423C3.76171 12.0217 4.54514 12.3123 5.11686 12.8831C5.68857 13.454 5.97829 14.2383 6.55771 15.8051L7 17L7.44229 15.8051C8.02171 14.2383 8.31229 13.4549 8.88314 12.8831C9.454 12.3114 10.2383 12.0217 11.8051 11.4423L13 11L11.8051 10.5577C10.2383 9.97829 9.45486 9.68857 8.88314 9.11686C8.31143 8.54514 8.02171 7.76171 7.44229 6.19486L7 5Z" stroke="currentColor" stroke-width="1.3" stroke-linecap="round" stroke-linejoin="round"/>
		<path d="M14.5 1L14.3158 1.4975C14.0742 2.15083 13.9533 2.4775 13.7158 2.715C13.4775 2.95333 13.1508 3.07417 12.4975 3.315L12 3.5L12.4983 3.68417C13.1508 3.92583 13.4775 4.04667 13.715 4.28417C13.9533 4.5225 14.0742 4.84917 14.315 5.5025L14.5 6L14.6842 5.5025C14.9258 4.84917 15.0467 4.5225 15.2842 4.285C15.5225 4.04667 15.8492 3.92583 16.5025 3.685L17 3.5L16.5017 3.31583C15.8492 3.07417 15.5225 2.95333 15.285 2.71583C15.0467 2.4775 14.9258 2.15083 14.685 1.4975L14.5 1Z" stroke="currentColor" stroke-width="1" stroke-linecap="round" stroke-linejoin="round"/>
	</symbol>
	<symbol id="icon-account1" viewBox="0 0 18 18" fill="none">
		<path d="M9 9.75C11.0711 9.75 12.75 8.07107 12.75 6C12.75 3.92893 11.0711 2.25 9 2.25C6.92893 2.25 5.25 3.92893 5.25 6C5.25 8.07107 6.92893 9.75 9 9.75ZM9 9.75C10.5913 9.75 12.1174 10.3821 13.2426 11.5074C14.3679 12.6326 15 14.1587 15 15.75M9 9.75C7.4087 9.75 5.88258 10.3821 4.75736 11.5074C3.63214 12.6326 3 14.1587 3 15.75" stroke="currentColor" stroke-width="1.5" stroke-linecap="round" stroke-linejoin="round"/>
	</symbol>
	<symbol id="icon-notifications" viewBox="0 0 18 18" fill="none">
		<path d="M7.70045 15.75C7.83211 15.978 8.02146 16.1674 8.24949 16.299C8.47751 16.4306 8.73616 16.4999 8.99945 16.4999C9.26274 16.4999 9.5214 16.4306 9.74942 16.299C9.97744 16.1674 10.1668 15.978 10.2985 15.75M2.44595 11.4945C2.34798 11.6019 2.28332 11.7354 2.25984 11.8789C2.23637 12.0223 2.25509 12.1695 2.31373 12.3025C2.37237 12.4356 2.4684 12.5487 2.59014 12.6281C2.71188 12.7075 2.85409 12.7499 2.99945 12.75H14.9995C15.1448 12.7501 15.287 12.7079 15.4089 12.6286C15.5307 12.5493 15.6268 12.4363 15.6856 12.3034C15.7444 12.1705 15.7633 12.0233 15.74 11.8798C15.7167 11.7364 15.6523 11.6028 15.5545 11.4952C14.557 10.467 13.4995 9.37425 13.4995 6C13.4995 4.80653 13.0253 3.66193 12.1814 2.81802C11.3375 1.97411 10.1929 1.5 8.99945 1.5C7.80598 1.5 6.66139 1.97411 5.81747 2.81802C4.97356 3.66193 4.49945 4.80653 4.49945 6C4.49945 9.37425 3.4412 10.467 2.44595 11.4945Z" stroke="currentColor" stroke-width="1.5" stroke-linecap="round" stroke-linejoin="round"/>
	</symbol>
</svg>