<svg xmlns="http://www.w3.org/2000/svg" style="display: none;">
	<symbol id="icon-collapse-sidebar" width="24" height="24" viewBox="0 0 24 24" fill="none" xmlns="http://www.w3.org/2000/svg">
		<path d="M9 3.0155V20.9855M19.771 20.8795C21.2165 20.826 22.346 19.705 22.4 18.2595C22.4525 16.857 22.5 14.812 22.5 12C22.5 9.188 22.4525 7.143 22.4 5.74C22.3455 4.295 21.2165 3.174 19.771 3.1205C18.121 3.06 15.59 3 12 3C8.41 3 5.879 3.06 4.229 3.1205C2.7835 3.174 1.654 4.295 1.6 5.7405C1.5475 7.143 1.5 9.188 1.5 12C1.5 14.812 1.5475 16.857 1.6 18.26C1.6545 19.705 2.7835 20.826 4.229 20.8795C5.879 20.94 8.41 21 12 21C15.59 21 18.121 20.94 19.771 20.8795Z" stroke="black" stroke-width="1.5" stroke-linecap="round" stroke-linejoin="round"/>
		<path d="M16.4854 9L13.4854 12L16.4854 15" stroke="black" stroke-width="2" stroke-linecap="round" stroke-linejoin="round"/>
	</symbol>
	<symbol id="icon-logo-small" width="33" height="22" viewBox="0 0 33 22" fill="none" xmlns="http://www.w3.org/2000/svg">
		<path fill-rule="evenodd" clip-rule="evenodd" d="M31.0825 3.61846L30.4335 2.76046C30.3486 2.64796 30.2307 2.56531 30.0966 2.52423C29.7837 2.4292 28.948 2.30465 28.5246 2.28355C28.4501 2.27894 28.3779 2.25653 28.3136 2.21817C28.2494 2.17981 28.1953 2.1266 28.1555 2.06293C27.751 1.43439 26.3274 -0.0624484 25.9957 0.00201829C25.6213 0.0748447 25.7542 0.262748 25.8233 0.625473C26.0211 1.66818 26.9273 3.04513 26.9273 3.04513C26.9273 3.04513 26.3413 4.79825 25.3582 4.98936C23.648 5.322 22.0385 2.01524 17.3568 1.98293C5.50112 1.98293 7.29143 18.576 0.576716 18.576C0.0637947 18.576 0.000723157 18.8587 0.000723157 18.9182C0.000723157 19.0389 -0.0595191 19.3202 0.919673 19.3202C8.40387 19.3202 9.47823 9.70147 11.5514 9.70147C12.3104 9.70147 12.2424 11.9953 12.2424 12.7465C12.2424 16.7593 10.607 17.6527 10.607 18.8069C10.607 19.2455 10.8637 19.5519 11.4669 19.8373C13.0132 20.5684 17.3715 22 18.5168 22C19.6621 22 16.6494 19.6627 15.818 19.6627C14.9866 19.6627 13.1509 19.4028 13.1509 18.21C13.1509 16.8774 18.7556 14.4227 18.7556 11.5428C20.1826 11.5428 21.4102 11.3749 22.4762 11.0878C22.6884 11.6085 23.0535 12.5345 23.1236 12.9049C23.1805 13.2049 23.0063 13.6976 22.538 13.7886C22.0697 13.8796 21.1855 14.5197 21.2391 14.8039C21.2927 15.0881 21.9922 15.33 22.4605 15.239C22.9288 15.1481 24.0663 14.7847 24.2176 13.7067C24.2904 13.1886 24.6322 11.1302 25.0304 10.0297C26.9532 8.90295 28.128 7.33255 29.0604 5.97827C29.0973 5.92431 29.1448 5.87853 29.1999 5.8438C29.255 5.80907 29.3166 5.78611 29.3808 5.77635C29.7434 5.67386 30.1181 5.62159 30.4948 5.62096C31.1146 5.62096 31.6723 5.8659 32.0335 5.8659C32.4471 5.8659 32.6806 5.35709 32.6806 5.12171C32.6809 4.43762 31.0825 3.61846 31.0825 3.61846Z" fill="#2F76FF"/>
	</symbol>
	<symbol id="icon-logo" viewBox="0 0 152 22" fill="none">
		<path fill-rule="evenodd" clip-rule="evenodd" d="M31.0825 3.61846L30.4335 2.76046C30.3486 2.64796 30.2307 2.56531 30.0966 2.52423C29.7837 2.4292 28.948 2.30465 28.5246 2.28355C28.4501 2.27894 28.3779 2.25653 28.3136 2.21817C28.2494 2.17981 28.1953 2.1266 28.1555 2.06293C27.751 1.43439 26.3274 -0.0624484 25.9957 0.00201829C25.6213 0.0748447 25.7542 0.262748 25.8233 0.625473C26.0211 1.66818 26.9273 3.04513 26.9273 3.04513C26.9273 3.04513 26.3413 4.79825 25.3582 4.98936C23.648 5.322 22.0385 2.01524 17.3568 1.98293C5.50112 1.98293 7.29143 18.576 0.576716 18.576C0.0637947 18.576 0.000723159 18.8587 0.000723159 18.9182C0.000723159 19.0389 -0.0595191 19.3202 0.919673 19.3202C8.40387 19.3202 9.47823 9.70147 11.5514 9.70147C12.3104 9.70147 12.2424 11.9953 12.2424 12.7465C12.2424 16.7593 10.607 17.6527 10.607 18.8069C10.607 19.2455 10.8637 19.5519 11.4669 19.8373C13.0132 20.5684 17.3715 22 18.5168 22C19.6621 22 16.6494 19.6627 15.818 19.6627C14.9866 19.6627 13.1509 19.4028 13.1509 18.21C13.1509 16.8774 18.7556 14.4227 18.7556 11.5428C20.1826 11.5428 21.4102 11.3749 22.4762 11.0878C22.6884 11.6085 23.0535 12.5345 23.1236 12.9049C23.1805 13.2049 23.0063 13.6976 22.538 13.7886C22.0697 13.8796 21.1855 14.5197 21.2391 14.8039C21.2927 15.0881 21.9922 15.33 22.4605 15.239C22.9288 15.1481 24.0663 14.7847 24.2176 13.7067C24.2904 13.1886 24.6322 11.1302 25.0304 10.0297C26.9532 8.90295 28.128 7.33255 29.0604 5.97827C29.0973 5.92431 29.1448 5.87853 29.1999 5.8438C29.255 5.80907 29.3166 5.78611 29.3808 5.77635C29.7434 5.67386 30.1181 5.62159 30.4948 5.62096C31.1146 5.62096 31.6723 5.8659 32.0335 5.8659C32.4471 5.8659 32.6806 5.35709 32.6806 5.12171C32.6809 4.43762 31.0825 3.61846 31.0825 3.61846Z" fill="#2F76FF"/>
		<path d="M41.9383 20.1173L41.8206 17.8407C42.163 17.8977 42.5375 17.9262 42.9442 17.9262C43.7359 17.9262 44.271 17.7231 44.5492 17.317C44.8274 16.9108 44.9665 16.2409 44.9665 15.3075V0.98481H47.8769V15.1151C47.8769 16.013 47.7948 16.7682 47.6308 17.3811C47.4739 18.001 47.2028 18.5248 46.8176 18.9523C46.4395 19.387 45.9331 19.7041 45.2982 19.9036C44.6704 20.1031 43.8893 20.2029 42.9548 20.2029C42.5625 20.2029 42.2237 20.1744 41.9383 20.1173ZM59.4117 15.7671C58.4772 16.5296 57.2467 16.9108 55.7201 16.9108C54.1935 16.9108 52.9631 16.5296 52.0286 15.7671C51.1012 15.0046 50.6376 13.8859 50.6376 12.4109V4.93956H53.4517V12.3041C53.4517 13.1805 53.6336 13.8146 53.9974 14.2066C54.3683 14.5985 54.9533 14.7945 55.7522 14.7945C56.5369 14.7945 57.1076 14.6021 57.4643 14.2173C57.828 13.8254 58.01 13.1876 58.01 12.3041V4.93956H60.8134V12.4109C60.8134 13.8788 60.3462 14.9976 59.4117 15.7671ZM63.3814 16.6864V4.93956H65.6499L65.9709 6.43598C66.1136 6.25784 66.2491 6.10105 66.3775 5.96568C66.513 5.82314 66.6949 5.66643 66.9232 5.49538C67.1586 5.31725 67.4047 5.17117 67.6615 5.05714C67.9254 4.94319 68.2465 4.84695 68.6246 4.7686C69.0098 4.69016 69.4199 4.65103 69.855 4.65103C70.7895 4.65103 71.5349 4.83978 72.0914 5.21747C72.655 5.59516 73.0508 6.03695 73.2791 6.54284C73.7 5.93717 74.2457 5.47042 74.9162 5.14266C75.5868 4.8149 76.3322 4.65103 77.1525 4.65103C78.5008 4.65103 79.4887 5.03226 80.1165 5.79463C80.7514 6.55709 81.0689 7.68653 81.0689 9.18294V16.6864H78.2546V10.0167C78.2546 8.86944 78.1262 8.04279 77.8695 7.53691C77.6198 7.02385 77.1383 6.76736 76.425 6.76736C75.3336 6.76736 74.5488 7.259 74.0709 8.24235C73.8711 8.67706 73.7356 9.20074 73.6643 9.81358V16.6864H70.8609V9.88839C70.8609 8.84093 70.7217 8.06068 70.4435 7.54762C70.1653 7.03456 69.6624 6.77799 68.9349 6.77799C68.3427 6.77799 67.8327 6.9277 67.4047 7.22695C66.9767 7.52619 66.6521 7.91814 66.431 8.40269C66.2669 9.12239 66.1849 9.98463 66.1849 10.9893V16.6864H63.3814ZM83.8403 21.571V4.93956H86.2475L86.5471 6.5856C86.9327 5.96568 87.4423 5.4883 88.0778 5.15337C88.7195 4.81136 89.4329 4.64031 90.2173 4.64031C91.1807 4.64031 92.0254 4.90751 92.753 5.44191C93.4878 5.97639 94.0444 6.7068 94.4228 7.63314C94.8004 8.55231 94.9901 9.59268 94.9901 10.7542C94.9901 12.5713 94.5478 14.0534 93.6633 15.2007C92.7858 16.3407 91.5946 16.9108 90.0888 16.9108C89.347 16.9108 88.6734 16.7647 88.0671 16.4725C87.4671 16.1733 86.9646 15.7706 86.5578 15.2648C86.6154 16.2909 86.6437 16.868 86.6437 16.9963V21.4321L83.8403 21.571ZM89.4897 14.7731C90.3246 14.7731 90.9804 14.4239 91.459 13.7256C91.9438 13.0273 92.1867 12.0297 92.1867 10.7328C92.1867 9.41455 91.9438 8.42402 91.459 7.76134C90.9733 7.09866 90.2997 6.76736 89.4365 6.76736C87.5814 6.76736 86.6437 8.02863 86.6224 10.5511C86.6224 12.0047 86.8609 13.0736 87.3395 13.7576C87.8243 14.4346 88.5413 14.7731 89.4897 14.7731ZM101.036 16.9001C99.302 16.9001 97.914 16.6044 96.8726 16.013L97.1615 13.9073C97.633 14.1638 98.2322 14.3954 98.9598 14.6021C99.6875 14.8015 100.35 14.9013 100.95 14.9013C101.57 14.9013 102.052 14.7874 102.394 14.5593C102.743 14.3242 102.923 13.9821 102.93 13.5332C102.93 13.1271 102.765 12.8064 102.437 12.5713C102.116 12.3361 101.499 12.0439 100.586 11.6948C100.272 11.5807 100.069 11.5059 99.9764 11.4703C98.8916 11.0499 98.1108 10.5831 97.633 10.0701C97.1544 9.54992 96.916 8.84802 96.916 7.96444C96.916 6.89556 97.3007 6.07617 98.0718 5.50609C98.8491 4.93602 99.9295 4.65103 101.314 4.65103C102.812 4.65103 104.128 4.93248 105.261 5.49538L104.567 7.43004C103.446 6.90981 102.38 6.64979 101.367 6.64979C100.803 6.64979 100.361 6.74594 100.04 6.93832C99.7265 7.12362 99.5696 7.40862 99.5696 7.79348C99.5696 8.15683 99.723 8.44191 100.03 8.64855C100.336 8.84802 100.935 9.11167 101.827 9.43952C101.855 9.4466 101.948 9.47865 102.105 9.53567C102.262 9.59268 102.384 9.63899 102.469 9.67467C103.546 10.0665 104.338 10.5368 104.845 11.0856C105.351 11.627 105.604 12.3361 105.604 13.2125C105.597 14.3883 105.198 15.2968 104.406 15.9381C103.614 16.5794 102.491 16.9001 101.036 16.9001ZM107.83 16.6864V0.610716L110.633 0.429007V3.81729C110.633 3.98117 110.623 4.43721 110.601 5.18542C110.58 5.92646 110.57 6.30415 110.57 6.3184C111.504 5.20676 112.759 4.65103 114.335 4.65103C115.648 4.65103 116.665 5.02863 117.385 5.78401C118.113 6.53221 118.476 7.68653 118.476 9.24704V16.6864H115.673V9.55709C115.673 8.59507 115.52 7.88963 115.213 7.44076C114.906 6.9918 114.385 6.76736 113.65 6.76736C113.023 6.76736 112.466 6.9277 111.981 7.24828C111.497 7.56187 111.132 7.96798 110.89 8.46679C110.719 9.12239 110.633 9.97745 110.633 11.0321V16.6864H107.83ZM124.351 16.9108C123.26 16.9108 122.375 16.6115 121.697 16.013C121.027 15.4073 120.691 14.538 120.691 13.4049C120.691 12.1865 121.091 11.285 121.889 10.7007C122.689 10.1093 123.894 9.73522 125.507 9.57843C125.728 9.54992 125.967 9.52141 126.224 9.4929C126.481 9.46439 126.77 9.43589 127.09 9.40738C127.411 9.37887 127.665 9.35399 127.85 9.33257V8.71265C127.85 8.00012 127.686 7.48343 127.358 7.16285C127.029 6.835 126.53 6.67112 125.859 6.67112C124.904 6.67112 123.723 6.93832 122.318 7.47281C122.31 7.45138 122.193 7.12717 121.965 6.50007C121.736 5.87307 121.619 5.5524 121.612 5.53814C122.996 4.94673 124.493 4.65103 126.106 4.65103C127.689 4.65103 128.842 4.99658 129.562 5.68777C130.283 6.37188 130.643 7.48343 130.643 9.02261V16.6864H128.567C128.56 16.6578 128.481 16.4192 128.331 15.9702C128.181 15.5212 128.107 15.2825 128.107 15.254C127.522 15.8241 126.948 16.2446 126.384 16.5153C125.827 16.779 125.15 16.9108 124.351 16.9108ZM125.11 14.9227C125.76 14.9227 126.324 14.7695 126.801 14.4631C127.286 14.1496 127.633 13.7719 127.839 13.3301V11.0641C127.818 11.0641 127.629 11.0784 127.272 11.1069C126.923 11.1354 126.733 11.1497 126.705 11.1497C125.571 11.2494 124.74 11.4632 124.212 11.791C123.684 12.1188 123.42 12.6461 123.42 13.3729C123.42 13.8717 123.566 14.2564 123.859 14.5273C124.151 14.7909 124.569 14.9227 125.11 14.9227ZM133.478 16.6864V4.93956H135.832L136.196 6.73522C136.966 5.50255 138.083 4.88617 139.546 4.88617C139.852 4.88617 140.101 4.90043 140.295 4.92894L140.251 7.26971C139.966 7.22695 139.67 7.20561 139.363 7.20561C138.329 7.20561 137.555 7.47989 137.041 8.02863C136.535 8.57728 136.281 9.33974 136.281 10.3159V16.6864H133.478ZM147.334 16.9108C145.445 16.9108 143.972 16.3692 142.915 15.2861C141.867 14.1959 141.343 12.6924 141.343 10.7755C141.343 8.90857 141.838 7.42287 142.83 6.3184C143.822 5.21393 145.174 4.65811 146.885 4.65103C148.504 4.65103 149.76 5.15691 150.652 6.16878C151.551 7.18064 152 8.5238 152 10.1983C152 10.3195 151.996 10.5155 151.989 10.7862C151.989 11.057 151.989 11.2565 151.989 11.3848H144.168C144.196 12.4822 144.496 13.3337 145.066 13.9394C145.644 14.538 146.436 14.8372 147.442 14.8372C148.726 14.8372 149.96 14.5023 151.144 13.8325L151.54 15.8206C150.363 16.5474 148.962 16.9108 147.334 16.9108ZM144.221 9.62119H149.357C149.357 8.66634 149.14 7.93239 148.705 7.41933C148.27 6.90627 147.667 6.64979 146.896 6.64979C146.176 6.64979 145.565 6.89919 145.066 7.39799C144.575 7.8968 144.293 8.63784 144.221 9.62119Z" fill="#122345"/>
	</symbol>
	<symbol id="icon-history" viewBox="0 0 24 24" fill="none" xmlns="http://www.w3.org/2000/svg">
		<path d="M6.34311 17.6568C7.65195 18.9657 9.37416 19.7802 11.2163 19.9615C13.0583 20.1428 14.9063 19.6798 16.4453 18.6513C17.9842 17.6228 19.1189 16.0924 19.6559 14.3211C20.1929 12.5497 20.0991 10.6469 19.3904 8.93695C18.6817 7.22701 17.4019 5.81573 15.7693 4.94362C14.1366 4.07151 12.252 3.79254 10.4367 4.15424C8.62141 4.51594 6.9877 5.49593 5.81398 6.92722C4.64027 8.3585 3.99919 10.1525 4 12.0035V13.7777M2 12L3.73333 14L5.46667 12M10.6667 8V13H15" stroke="currentColor" stroke-width="1.5" stroke-linecap="round" stroke-linejoin="round"/>
	</symbol>
	<symbol id="icon-spaces" viewBox="0 0 24 24" fill="none">
		<path d="M9.39453 12.4873C9.67433 12.4871 9.94964 12.5429 10.2051 12.6484C10.4625 12.7549 10.6966 12.9115 10.8936 13.1084C11.0905 13.3053 11.2471 13.5395 11.3535 13.7969C11.4597 14.0539 11.5139 14.3293 11.5137 14.6074V17.543C11.5113 18.1034 11.287 18.6399 10.8896 19.0352C10.4924 19.4304 9.9549 19.6527 9.39453 19.6523H6.46192C6.18485 19.6525 5.91036 19.598 5.6543 19.4922C5.39784 19.3861 5.16402 19.2304 4.96777 19.0342C4.77153 18.8379 4.61584 18.6041 4.50977 18.3477C4.40384 18.0913 4.34932 17.8164 4.34961 17.5391V14.6074C4.34962 14.0472 4.57176 13.5096 4.9668 13.1123C5.36176 12.7151 5.89788 12.4906 6.45801 12.4873H9.39453ZM17.5381 12.4873C17.817 12.4871 18.0912 12.5432 18.3457 12.6484C18.6022 12.7545 18.836 12.9102 19.0322 13.1064C19.2283 13.3026 19.3842 13.5357 19.4902 13.792C19.5961 14.048 19.6506 14.3225 19.6504 14.5996V17.5312L19.6396 17.7402C19.5923 18.2243 19.3792 18.6795 19.0332 19.0273C18.6379 19.4247 18.1015 19.6499 17.541 19.6523H14.6055C14.3273 19.6525 14.052 19.5975 13.7949 19.4912C13.5375 19.3848 13.3034 19.2282 13.1064 19.0312C12.9096 18.8344 12.7529 18.601 12.6465 18.3438C12.54 18.0864 12.486 17.8098 12.4863 17.5312V14.5977C12.4884 14.0368 12.7119 13.4991 13.1094 13.1035C13.5067 12.7081 14.0449 12.4869 14.6055 12.4873H17.5381ZM14.6045 13.7871C14.388 13.787 14.1798 13.8727 14.0264 14.0254C13.873 14.1782 13.7869 14.386 13.7861 14.6025V17.5332C13.786 17.6407 13.8066 17.7473 13.8477 17.8467C13.8888 17.9461 13.9494 18.0363 14.0254 18.1123C14.1014 18.1883 14.1917 18.2489 14.291 18.29C14.3903 18.3311 14.497 18.3516 14.6045 18.3516H17.5352C17.7517 18.3507 17.9596 18.2648 18.1123 18.1113C18.265 17.9579 18.3498 17.7497 18.3496 17.5332V14.5996L18.3457 14.5195C18.338 14.4404 18.3186 14.3628 18.2881 14.2891C18.2474 14.1906 18.1877 14.1008 18.1123 14.0254C18.0371 13.9502 17.9479 13.8903 17.8496 13.8496C17.7497 13.8083 17.6438 13.7871 17.5391 13.7871H14.6045ZM9.39453 4.35156V4.35254C9.9549 4.35215 10.4924 4.57352 10.8896 4.96875C11.287 5.36405 11.5113 5.90047 11.5137 6.46094V9.39551C11.514 9.67385 11.4598 9.94979 11.3535 10.207C11.2471 10.4644 11.0905 10.6986 10.8936 10.8955C10.6966 11.0925 10.4625 11.249 10.2051 11.3555C9.94806 11.4617 9.67263 11.5158 9.39453 11.5156H6.45899C5.89852 11.5132 5.3621 11.2889 4.9668 10.8916C4.5714 10.4942 4.34903 9.95613 4.34961 9.39551V6.46387C4.34943 6.1868 4.40394 5.91231 4.50977 5.65625C4.61584 5.39979 4.77153 5.16597 4.96777 4.96973C5.16402 4.77348 5.39784 4.61779 5.6543 4.51172C5.91036 4.40589 6.18485 4.35236 6.46192 4.35254L9.39453 4.35156ZM17.5381 4.35156V4.35254C17.8152 4.35236 18.0896 4.40589 18.3457 4.51172C18.6022 4.61779 18.836 4.77348 19.0322 4.96973C19.2285 5.16597 19.3842 5.39979 19.4902 5.65625C19.5961 5.91231 19.6506 6.1868 19.6504 6.46387V9.39551L19.6396 9.60449C19.5922 10.0885 19.3792 10.5438 19.0332 10.8916C18.6379 11.2889 18.1015 11.5132 17.541 11.5156H14.6055C14.0435 11.5153 13.5048 11.2919 13.1074 10.8945C12.7598 10.5469 12.5445 10.0914 12.4961 9.60645L12.4863 9.39648V6.46094C12.4887 5.90047 12.713 5.36405 13.1104 4.96875C13.5076 4.57352 14.0451 4.35215 14.6055 4.35254L17.5381 4.35156ZM6.46094 5.65234C6.35451 5.65229 6.24875 5.67319 6.15039 5.71387C6.05207 5.7546 5.96295 5.81439 5.8877 5.88965C5.81244 5.9649 5.75265 6.05403 5.71192 6.15234C5.67124 6.2507 5.65034 6.35646 5.65039 6.46289V9.39746C5.65026 9.61369 5.7353 9.82122 5.8877 9.97461C6.04042 10.1281 6.24831 10.2149 6.46484 10.2158H9.39551C9.50297 10.2159 9.60968 10.1954 9.70899 10.1543C9.80834 10.1132 9.89857 10.0526 9.97461 9.97656C10.0506 9.90053 10.1112 9.81029 10.1523 9.71094C10.1934 9.61164 10.2139 9.50492 10.2139 9.39746V6.4668L10.21 6.38574C10.1906 6.19899 10.1069 6.02322 9.97266 5.88965C9.81927 5.73725 9.61174 5.65221 9.39551 5.65234H6.46094ZM5.65039 17.541C5.65034 17.6474 5.67123 17.7532 5.71192 17.8516C5.75265 17.9499 5.81244 18.039 5.8877 18.1143C5.96295 18.1895 6.05207 18.2493 6.15039 18.29C6.24875 18.3307 6.35451 18.3516 6.46094 18.3516H9.39551C9.61174 18.3517 9.81927 18.2667 9.97266 18.1143C10.1255 17.9622 10.2122 17.7556 10.2139 17.54V14.6064C10.2139 14.499 10.1934 14.3923 10.1523 14.293C10.1112 14.1936 10.0506 14.1034 9.97461 14.0273C9.89857 13.9513 9.80834 13.8907 9.70899 13.8496C9.6081 13.8079 9.50127 13.787 9.39551 13.7871H6.46582L6.38477 13.792C6.19784 13.8116 6.02235 13.8949 5.88867 14.0293C5.73592 14.183 5.6504 14.3907 5.65039 14.6074V17.541ZM13.7861 9.39648C13.7863 9.61378 13.8727 9.82193 14.0264 9.97559C14.18 10.1292 14.3882 10.2156 14.6055 10.2158H17.5352C17.7517 10.2149 17.9596 10.1281 18.1123 9.97461C18.2647 9.82122 18.3497 9.61369 18.3496 9.39746V6.46289C18.3497 6.35646 18.3288 6.2507 18.2881 6.15234C18.2474 6.05403 18.1876 5.9649 18.1123 5.88965C18.0371 5.81439 17.9479 5.7546 17.8496 5.71387C17.7513 5.67319 17.6455 5.65229 17.5391 5.65234H14.6045C14.3883 5.65221 14.1807 5.73725 14.0273 5.88965C13.8738 6.04237 13.787 6.25026 13.7861 6.4668V9.39648Z" fill="currentColor"/>
	</symbol>
	<symbol id="icon-integrations" viewBox="0 0 24 24" fill="none">
		<path d="M19.3496 14.6689C19.3496 14.0462 18.8453 13.5413 18.2227 13.541H14.667C14.0441 13.541 13.5391 14.0461 13.5391 14.6689V18.2246C13.5393 18.8473 14.0443 19.3516 14.667 19.3516H18.2227C18.8452 19.3513 19.3494 18.8471 19.3496 18.2246V14.6689ZM10.4609 5.7793C10.4607 5.15664 9.95572 4.65234 9.33301 4.65234H5.77734C5.15483 4.65258 4.65063 5.15679 4.65039 5.7793V9.33496C4.65039 9.95767 5.15469 10.4627 5.77734 10.4629H9.33301C9.95586 10.4629 10.4609 9.95782 10.4609 9.33496V5.7793ZM11.7607 9.33496C11.7607 10.6758 10.6738 11.7627 9.33301 11.7627H8.20508V14.6689C8.20516 14.9679 8.32471 15.2544 8.53613 15.4658C8.74756 15.6772 9.03402 15.7968 9.33301 15.7969H12.2393V14.6689C12.2393 13.3281 13.3262 12.2412 14.667 12.2412H18.2227C19.5633 12.2414 20.6504 13.3283 20.6504 14.6689V18.2246C20.6502 19.5651 19.5631 20.6521 18.2227 20.6523H14.667C13.3263 20.6523 12.2395 19.5652 12.2393 18.2246V17.0967H9.33301C8.68924 17.0966 8.07143 16.841 7.61621 16.3857C7.16099 15.9305 6.90536 15.3127 6.90527 14.6689V11.7627H5.77734C4.43672 11.7625 3.34961 10.6756 3.34961 9.33496V5.7793C3.34984 4.43882 4.43686 3.3518 5.77734 3.35156H9.33301C10.6737 3.35156 11.7605 4.43867 11.7607 5.7793V9.33496Z" fill="currentColor"/>
	</symbol>
	<symbol id="icon-data" viewBox="0 0 24 24" fill="none">
		<path d="M5.34961 18.4023V5.60156C5.34971 5.01817 5.56698 4.45093 5.96484 4.02637C6.36433 3.60025 6.91575 3.35156 7.5 3.35156H13.1699C13.7453 3.35164 14.2893 3.59261 14.6875 4.00781L18.0176 7.48145C18.2203 7.69282 18.3795 7.94362 18.4873 8.2168C18.5252 8.31276 18.5534 8.41183 18.5781 8.51172C18.6222 8.59938 18.6504 8.69694 18.6504 8.80176C18.6504 8.83133 18.6444 8.86015 18.6406 8.88867C18.6456 8.9507 18.6504 9.01282 18.6504 9.0752V18.4023C18.6503 18.9857 18.433 19.553 18.0352 19.9775C17.6357 20.4037 17.0842 20.6523 16.5 20.6523H7.5C6.91575 20.6523 6.36433 20.4037 5.96484 19.9775C5.56698 19.553 5.34971 18.9857 5.34961 18.4023ZM12 15.3516C12.359 15.3516 12.6504 15.643 12.6504 16.002C12.6504 16.3609 12.359 16.6523 12 16.6523H9.75C9.39102 16.6523 9.09961 16.3609 9.09961 16.002C9.09961 15.643 9.39102 15.3516 9.75 15.3516H12ZM14.25 12.1523C14.6089 12.1523 14.9003 12.4429 14.9004 12.8018C14.9004 13.1607 14.609 13.4521 14.25 13.4521H9.75C9.39102 13.4521 9.09961 13.1607 9.09961 12.8018C9.09971 12.4429 9.39108 12.1523 9.75 12.1523H14.25ZM13.8203 7.80176C13.8203 7.99503 13.9767 8.1523 14.1699 8.15234H16.8594L13.8203 4.98242V7.80176ZM6.65039 18.4023C6.65049 18.6671 6.74881 18.9135 6.91309 19.0889C7.07621 19.2629 7.2886 19.3516 7.5 19.3516H16.5C16.7114 19.3516 16.9238 19.2629 17.0869 19.0889C17.2512 18.9135 17.3495 18.6671 17.3496 18.4023V9.45215H14.1699C13.2587 9.45211 12.5195 8.713 12.5195 7.80176V4.65234H7.5C7.2886 4.65234 7.07621 4.74104 6.91309 4.91504C6.74881 5.09036 6.65049 5.33679 6.65039 5.60156V18.4023Z" fill="currentColor"/>
	</symbol>
	<symbol id="icon-sso" viewBox="0 0 24 24" fill="none">
		<path d="M9.88091 18.1765H7.5C6.27273 18.1765 5.19273 17.7647 4.31727 16.8835C3.44182 16.0188 3 14.9565 3 13.7129C3 12.6424 3.31909 11.6871 3.95727 10.8471C4.57975 10.026 5.47367 9.45633 6.47727 9.24118C6.82091 7.98118 7.5 6.96 8.52273 6.17765C9.54545 5.41176 10.7073 5 12 5C13.5955 5 14.9536 5.56 16.0582 6.68C17.1709 7.79176 17.7273 9.15882 17.7273 10.7647C18.6682 10.8718 19.4536 11.2835 20.0673 12C20.5909 12.6012 20.8855 13.2847 20.9673 14.0588H19.3309C19.2491 13.6471 19.0691 13.3094 18.7664 13.0129C18.3736 12.6094 17.8909 12.4118 17.3182 12.4118H16.0909V10.7647C16.0909 9.62824 15.6818 8.65647 14.8964 7.84941C14.1027 7.05882 13.1373 6.64706 12 6.64706C10.8709 6.64706 9.90545 7.05882 9.10364 7.84941C8.31818 8.65647 7.90909 9.62824 7.90909 10.7647H7.5C6.70636 10.7647 6.03545 11.0447 5.47909 11.6129C4.91455 12.1729 4.63636 12.8482 4.63636 13.6471C4.63636 14.4459 4.91455 15.1294 5.47909 15.7059C6.03545 16.2576 6.70636 16.5294 7.5 16.5294H9.54545C9.54545 17.1224 9.66818 17.6741 9.88091 18.1765ZM21 15.7059V17.3529H19.3636V19H17.7273V17.3529H15.9273C15.6 18.3412 14.7 19 13.6364 19C12.2455 19 11.1818 17.9294 11.1818 16.5294C11.1818 15.1294 12.2455 14.0588 13.6364 14.0588C14.7 14.0588 15.6 14.7176 15.9273 15.7059H21ZM14.4545 16.5294C14.4545 16.1176 14.1273 15.7059 13.6364 15.7059C13.1455 15.7059 12.8182 16.1176 12.8182 16.5294C12.8182 16.9412 13.1455 17.3529 13.6364 17.3529C14.1273 17.3529 14.4545 16.9412 14.4545 16.5294Z" fill="currentColor"/>
	</symbol>
	<symbol id="icon-billing" viewBox="0 0 24 24" fill="none">
		<path d="M20.3496 12.002C20.3496 11.3761 20.3477 10.8184 20.3408 10.3184H3.65918C3.65237 10.8184 3.65039 11.3761 3.65039 12.002C3.65039 13.6706 3.65201 14.8548 3.77637 15.7529C3.89787 16.6303 4.12478 17.138 4.50781 17.5107C4.89316 17.8857 5.42256 18.1103 6.33398 18.2295C7.26235 18.3509 8.48536 18.3516 10.2002 18.3516H13.7998C15.5143 18.3516 16.7368 18.35 17.665 18.2285C18.5764 18.1092 19.1062 17.8847 19.4922 17.5098C19.8752 17.1376 20.1032 16.6304 20.2246 15.7529C20.3488 14.8548 20.3496 13.6704 20.3496 12.002ZM10.3203 14.8516C10.6792 14.8517 10.9697 15.1431 10.9697 15.502C10.9697 15.8608 10.6792 16.1522 10.3203 16.1523H6.95996C6.60099 16.1523 6.30957 15.8609 6.30957 15.502C6.30957 15.143 6.60099 14.8516 6.95996 14.8516H10.3203ZM13.6797 14.8516C14.0387 14.8516 14.3301 15.143 14.3301 15.502C14.3301 15.8609 14.0387 16.1523 13.6797 16.1523H12.4199C12.061 16.1523 11.7695 15.8609 11.7695 15.502C11.7695 15.143 12.061 14.8516 12.4199 14.8516H13.6797ZM10.2002 5.65234C8.48565 5.65234 7.26316 5.65394 6.33496 5.77539C5.42359 5.89468 4.8938 6.1192 4.50781 6.49414C4.12477 6.86631 3.89678 7.3735 3.77539 8.25098C3.74289 8.48602 3.72001 8.74077 3.70215 9.01856H20.2979C20.2799 8.74077 20.2562 8.48601 20.2236 8.25098C20.1021 7.37364 19.8752 6.86591 19.4922 6.49316C19.1068 6.1182 18.5774 5.89361 17.666 5.77441C16.7376 5.65302 15.5146 5.65234 13.7998 5.65234H10.2002ZM21.6504 12.002C21.6504 13.6329 21.6512 14.9237 21.5117 15.9316C21.3694 16.9599 21.0698 17.79 20.3984 18.4424C19.7296 19.0921 18.883 19.3803 17.834 19.5176C16.8018 19.6527 15.4789 19.6523 13.7998 19.6523H10.2002C8.52136 19.6523 7.19824 19.6535 6.16602 19.5186C5.11692 19.3814 4.27009 19.0929 3.60156 18.4424C2.93086 17.7898 2.63073 16.9599 2.48828 15.9316C2.34872 14.9238 2.34961 13.633 2.34961 12.002C2.34961 10.371 2.34884 9.08024 2.48828 8.07227C2.63057 7.04398 2.9302 6.21386 3.60156 5.56152C4.27038 4.91184 5.11696 4.62364 6.16602 4.48633C7.19819 4.35124 8.52108 4.35156 10.2002 4.35156H13.7998C15.4786 4.35156 16.8018 4.35043 17.834 4.48535C18.8831 4.62253 19.7299 4.91105 20.3984 5.56152C21.0691 6.21415 21.3693 7.04399 21.5117 8.07227C21.6513 9.08015 21.6504 10.3709 21.6504 12.002Z" fill="currentColor"/>

	</symbol>
	<symbol id="icon-branding" viewBox="0 0 24 24" fill="none">
		<path d="M19.3494 5.67773C19.3494 5.40847 19.2413 5.14812 19.0457 4.95508C18.8498 4.76189 18.5821 4.65234 18.3015 4.65234C18.0209 4.65239 17.7533 4.76182 17.5574 4.95508L12.1248 10.3164L13.6004 11.7725L19.0457 6.40039C19.2413 6.20733 19.3494 5.94703 19.3494 5.67773ZM9.19216 13.2109C9.50168 13.3702 9.7869 13.5756 10.0369 13.8223C10.2904 14.0725 10.4999 14.3602 10.6629 14.6719L12.6756 12.6855L11.199 11.2295L9.19216 13.2109ZM5.45095 16.2383C5.45115 16.9315 5.18373 17.5971 4.70584 18.1006C4.70078 18.1059 4.69642 18.112 4.69119 18.1172C4.67087 18.1372 4.65729 18.1612 4.65212 18.1865C4.64702 18.2118 4.64979 18.2383 4.65994 18.2627C4.67025 18.2873 4.6888 18.3098 4.71365 18.3262C4.73845 18.3424 4.76823 18.3515 4.79959 18.3516H7.60134C8.02828 18.3515 8.44496 18.2264 8.79861 17.9932C9.15213 17.76 9.42702 17.43 9.58865 17.0449C9.75026 16.6598 9.79201 16.2363 9.70974 15.8281C9.62746 15.4198 9.42383 15.0432 9.1238 14.7471C8.82379 14.4511 8.44064 14.2482 8.02224 14.166C7.60355 14.0838 7.16905 14.1261 6.77517 14.2871C6.38141 14.4481 6.04649 14.721 5.8113 15.0684C5.57635 15.4155 5.45105 15.8225 5.45095 16.2383ZM20.6502 5.67773C20.6502 6.29737 20.4 6.88969 19.9588 7.3252L11.0467 16.1191C11.0639 16.6064 10.9774 17.0938 10.7869 17.5479C10.5247 18.1724 10.0816 18.7051 9.51443 19.0791C8.94746 19.453 8.28162 19.6523 7.60134 19.6523H4.80154V19.6514C4.51655 19.6517 4.23727 19.569 3.9988 19.4121C3.7601 19.255 3.57271 19.0308 3.4617 18.7666C3.3507 18.5023 3.32099 18.2108 3.37771 17.9297C3.43313 17.6555 3.56867 17.4045 3.76443 17.2061H3.76345C4.01348 16.9427 4.15117 16.5968 4.15115 16.2393V16.2383C4.15124 15.5615 4.35507 14.9002 4.73513 14.3389C5.1152 13.7777 5.65473 13.3412 6.28396 13.084C6.74362 12.8962 7.23672 12.81 7.72927 12.8281L16.6443 4.03027C17.0853 3.5951 17.6816 3.35161 18.3015 3.35156C18.9215 3.35156 19.5178 3.5951 19.9588 4.03027C20.4 4.46576 20.6501 5.05813 20.6502 5.67773Z" fill="currentColor"/>
	</symbol>
	<symbol id="icon-activity" viewBox="0 0 24 24" fill="none">
		<path d="M9.76172 3.36427C9.91011 3.38705 10.0518 3.44262 10.1777 3.52637L10.1787 3.5254C10.1802 3.52639 10.1811 3.5283 10.1826 3.5293L10.1855 3.53028L10.1846 3.53126C10.3462 3.63984 10.4436 3.78456 10.501 3.88966C10.5618 4.00122 10.6096 4.12471 10.6494 4.24317C10.6889 4.36066 10.7288 4.49958 10.7715 4.65626L10.9082 5.17677L14.3516 18.502L14.3984 18.6816C14.4136 18.625 14.4304 18.5651 14.4473 18.502L16.0625 12.417V12.416C16.1038 12.2621 16.158 12.0232 16.2891 11.8301L16.3789 11.7139C16.4762 11.6043 16.5952 11.5154 16.7285 11.4522L16.7295 11.4512C16.8653 11.3871 16.9938 11.3666 17.0938 11.3584C17.1832 11.3511 17.2844 11.3516 17.3672 11.3516H20C20.359 11.3516 20.6504 11.643 20.6504 12.002C20.6504 12.3609 20.359 12.6524 20 12.6524H17.3457C17.338 12.6805 17.3285 12.7121 17.3184 12.75L15.7041 18.8359V18.8369C15.6034 19.2152 15.5189 19.5343 15.4385 19.7686C15.3979 19.8867 15.3496 20.01 15.2881 20.1211C15.2302 20.2255 15.1317 20.37 14.9688 20.4775L14.9697 20.4785C14.9679 20.4797 14.9657 20.4803 14.9639 20.4815L14.9619 20.4834L14.9609 20.4824C14.7914 20.5929 14.5941 20.6531 14.3916 20.6524C14.1885 20.6515 13.9902 20.5901 13.8213 20.4775V20.4785C13.8196 20.4774 13.8181 20.4758 13.8164 20.4746L13.8145 20.4736V20.4727C13.6532 20.3641 13.5563 20.2193 13.499 20.1143C13.4381 20.0026 13.3904 19.8784 13.3506 19.7598C13.2718 19.5249 13.1904 19.2054 13.0928 18.8272L9.64941 5.50294L9.60156 5.31934C9.58626 5.3766 9.56975 5.437 9.55273 5.50098L7.9375 11.5859V11.5869C7.89627 11.7414 7.84137 11.979 7.71191 12.1709C7.60172 12.3355 7.44965 12.4681 7.27051 12.5527C7.13523 12.6166 7.00755 12.6372 6.90723 12.6455C6.81776 12.6529 6.71606 12.6524 6.63281 12.6524H4C3.64101 12.6524 3.34961 12.3609 3.34961 12.002C3.34961 11.643 3.64102 11.3516 4 11.3516H6.6543C6.6621 11.323 6.67039 11.2905 6.68066 11.252L8.2959 5.16798V5.167C8.39658 4.78846 8.4811 4.46955 8.56152 4.23536C8.60212 4.11718 8.65131 3.99389 8.71289 3.88282C8.77077 3.77845 8.86795 3.63374 9.03027 3.52637V3.5254C9.03185 3.52435 9.03357 3.52351 9.03516 3.52247C9.03601 3.52192 9.03723 3.52107 9.03809 3.52052V3.52149C9.20772 3.41069 9.40566 3.3508 9.6084 3.35157L9.76172 3.36427Z" fill="currentColor"/>
	</symbol>
	<symbol id="icon-general-settings" viewBox="0 0 24 24" fill="none">
		<path d="M8.96387 11.2002C9.06059 11.2002 9.21973 11.2001 9.36523 11.2129C9.54523 11.2289 9.85293 11.2735 10.1777 11.4551C10.4997 11.6353 10.7651 11.9017 10.9453 12.2236C11.126 12.5474 11.1715 12.8542 11.1875 13.0342C11.2011 13.1804 11.2002 13.3387 11.2002 13.4355V17.7637C11.2002 17.8605 11.2003 18.0204 11.1875 18.166C11.1715 18.3461 11.1266 18.653 10.9443 18.9775C10.7641 19.2994 10.4986 19.5649 10.1768 19.7451C9.92669 19.8826 9.64977 19.9656 9.36523 19.9873C9.21894 20.0001 9.06059 20 8.96387 20H6.23633C6.14033 20 5.97958 20.0001 5.83398 19.9873C5.54965 19.9653 5.27324 19.8827 5.02344 19.7451C4.7015 19.5649 4.43514 19.2985 4.25488 18.9766C4.11729 18.7268 4.03472 18.4504 4.0127 18.166C3.9999 18.0196 4 17.8605 4 17.7637V13.4355C4 13.3395 3.99992 13.1796 4.0127 13.0342C4.0287 12.8542 4.07357 12.5473 4.25488 12.2236C4.43514 11.9017 4.7015 11.6353 5.02344 11.4551C5.27326 11.3175 5.54962 11.2349 5.83398 11.2129C5.98038 11.2001 6.13953 11.2002 6.23633 11.2002H8.96387ZM17.7637 13.5996C17.8605 13.5996 18.0196 13.6005 18.166 13.6133C18.4504 13.6353 18.7267 13.7178 18.9766 13.8555C19.2985 14.0357 19.5649 14.3011 19.7451 14.623C19.8829 14.873 19.9653 15.15 19.9873 15.4346C20.0001 15.5801 20 15.74 20 15.8359V17.7637C20 17.8605 20.0001 18.0196 19.9873 18.166C19.9713 18.3461 19.9266 18.6528 19.7451 18.9766C19.5649 19.2985 19.2995 19.5649 18.9775 19.7451C18.653 19.9265 18.346 19.9713 18.166 19.9873C18.0204 20.0001 17.8605 20 17.7637 20H15.0361C14.9394 20 14.7811 20.0001 14.6348 19.9873C14.4548 19.9713 14.1472 19.9267 13.8232 19.7451C13.5014 19.5649 13.2359 19.2994 13.0557 18.9775C12.8742 18.653 12.8285 18.3461 12.8125 18.166C12.7997 18.0204 12.7998 17.8605 12.7998 17.7637V15.8359C12.7998 15.7392 12.7997 15.5809 12.8125 15.4346C12.8345 15.15 12.9179 14.8731 13.0557 14.623C13.2359 14.3013 13.5014 14.0357 13.8232 13.8555C14.1472 13.6739 14.4548 13.6293 14.6348 13.6133C14.7803 13.6005 14.9402 13.5996 15.0361 13.5996H17.7637ZM6.25977 12.7998C6.01672 12.7998 5.89568 12.8004 5.80371 12.8516C5.73979 12.8877 5.68713 12.9407 5.65137 13.0049C5.60017 13.0961 5.59961 13.2161 5.59961 13.4609V17.7412C5.59961 17.9833 5.6002 18.105 5.65137 18.1953C5.68739 18.2596 5.74042 18.3126 5.80469 18.3486C5.89586 18.3998 6.01672 18.4004 6.25977 18.4004H8.94043C9.18334 18.4004 9.30534 18.3998 9.39648 18.3486C9.46036 18.3125 9.51308 18.2594 9.54883 18.1953C9.60001 18.1049 9.59961 17.9841 9.59961 17.7402V13.46C9.59961 13.2168 9.60003 13.0959 9.54883 13.0039C9.51273 12.94 9.4596 12.8874 9.39551 12.8516C9.30516 12.8004 9.18414 12.7998 8.94043 12.7998H6.25977ZM15.0605 15.2002C14.8167 15.2002 14.6957 15.1998 14.6045 15.251C14.5403 15.2868 14.4873 15.3403 14.4512 15.4043C14.4001 15.4963 14.4004 15.6174 14.4004 15.8604V17.7402C14.4004 17.9841 14.4 18.1049 14.4512 18.1953C14.4869 18.2594 14.5396 18.3125 14.6035 18.3486C14.6955 18.3998 14.8167 18.4004 15.0596 18.4004H17.7402C17.9833 18.4004 18.1049 18.3998 18.1953 18.3486C18.2596 18.3126 18.3126 18.2596 18.3486 18.1953C18.3998 18.105 18.4004 17.9833 18.4004 17.7412V15.8604C18.4004 15.6169 18.3996 15.4964 18.3486 15.4053C18.3126 15.3405 18.2593 15.287 18.1953 15.251C18.105 15.1998 17.9833 15.2002 17.7412 15.2002H15.0605ZM17.7637 4C17.8605 4 18.0196 3.9999 18.166 4.0127C18.4504 4.03472 18.7268 4.11729 18.9766 4.25488C19.2985 4.43514 19.5649 4.7015 19.7451 5.02344C19.8827 5.27324 19.9653 5.54965 19.9873 5.83398C20.0001 5.97958 20 6.14033 20 6.23633V10.5645C20 10.6613 20.0001 10.8196 19.9873 10.9658C19.9713 11.1458 19.9266 11.4525 19.7451 11.7764C19.5649 12.0983 19.2995 12.3647 18.9775 12.5449C18.653 12.7271 18.3461 12.7711 18.166 12.7871C18.0204 12.7999 17.8605 12.7998 17.7637 12.7998H15.0361C14.9394 12.7998 14.7811 12.8007 14.6348 12.7871C14.4548 12.7711 14.1472 12.7266 13.8232 12.5459C13.5013 12.3656 13.2359 12.0993 13.0557 11.7773C12.8741 11.4527 12.8285 11.1458 12.8125 10.9658C12.7997 10.8204 12.7998 10.6613 12.7998 10.5645V6.23633C12.7998 6.13953 12.7997 5.98038 12.8125 5.83398C12.8345 5.54952 12.918 5.27333 13.0557 5.02344C13.2359 4.7015 13.5013 4.43514 13.8232 4.25488C14.1472 4.07336 14.4548 4.02869 14.6348 4.0127C14.7803 3.99993 14.9402 4 15.0361 4H17.7637ZM15.0605 5.59961C14.8159 5.59961 14.6957 5.60018 14.6045 5.65137C14.5404 5.68716 14.4873 5.73981 14.4512 5.80371C14.4 5.89568 14.4004 6.01672 14.4004 6.25977V10.54C14.4004 10.7839 14.4 10.9039 14.4512 10.9951C14.4869 11.0592 14.5397 11.1123 14.6035 11.1484C14.6955 11.1996 14.8167 11.2002 15.0596 11.2002H17.7402C17.9833 11.2002 18.1049 11.1996 18.1953 11.1484C18.2594 11.1126 18.3125 11.06 18.3486 10.9961C18.3998 10.9041 18.4004 10.7832 18.4004 10.54V6.25977C18.4004 6.01672 18.3998 5.89586 18.3486 5.80469C18.3126 5.74042 18.2596 5.68739 18.1953 5.65137C18.105 5.6002 17.9833 5.59961 17.7412 5.59961H15.0605ZM8.96387 4C9.06059 4 9.21974 3.99993 9.36523 4.0127C9.54523 4.02869 9.85295 4.0733 10.1777 4.25488C10.4997 4.43514 10.7651 4.7015 10.9453 5.02344C11.126 5.34718 11.1715 5.65394 11.1875 5.83398C11.2011 5.98038 11.2002 6.13953 11.2002 6.23633V8.16406C11.2002 8.26083 11.2003 8.41991 11.1875 8.56543C11.1715 8.74543 11.1267 9.05313 10.9443 9.37793C10.7641 9.69967 10.4985 9.96533 10.1768 10.1455C9.92669 10.283 9.64977 10.365 9.36523 10.3867C9.21892 10.4003 9.0606 10.4004 8.96387 10.4004H6.23633C6.14033 10.4004 5.97958 10.3995 5.83398 10.3867C5.54957 10.3647 5.27329 10.2822 5.02344 10.1445C4.7015 9.96427 4.43514 9.69889 4.25488 9.37695C4.11713 9.12695 4.03468 8.85002 4.0127 8.56543C3.99991 8.41911 4 8.26083 4 8.16406V6.23633C4 6.14033 3.9999 5.97958 4.0127 5.83398C4.02872 5.65399 4.07357 5.34708 4.25488 5.02344C4.43514 4.7015 4.7015 4.43514 5.02344 4.25488C5.27324 4.11729 5.54965 4.03472 5.83398 4.0127C5.98038 3.9999 6.13953 4 6.23633 4H8.96387ZM6.25977 5.59961C6.01672 5.59961 5.89568 5.60018 5.80371 5.65137C5.7398 5.6875 5.68714 5.74057 5.65137 5.80469C5.60018 5.89586 5.59961 6.01592 5.59961 6.25977V8.13965C5.59961 8.38271 5.60025 8.50452 5.65137 8.5957C5.68754 8.6598 5.74041 8.71319 5.80469 8.74902C5.89586 8.8002 6.01593 8.7998 6.25977 8.7998H8.94043C9.18334 8.7998 9.30534 8.80019 9.39648 8.74902C9.46046 8.71286 9.51305 8.65892 9.54883 8.59473C9.59982 8.50437 9.59961 8.38331 9.59961 8.13965V6.25977C9.59961 6.01672 9.60001 5.89568 9.54883 5.80371C9.51272 5.73981 9.45958 5.68716 9.39551 5.65137C9.30516 5.6002 9.18414 5.59961 8.94043 5.59961H6.25977Z" fill="currentColor"/>
	</symbol>
	<symbol id="icon-custom-domain" viewBox="0 0 24 24" fill="none">
		<path d="M12 3.35156C16.7773 3.35156 20.6504 7.22469 20.6504 12.002C20.6504 16.7792 16.7773 20.6523 12 20.6523C7.22274 20.6523 3.34961 16.7792 3.34961 12.002C3.34961 7.22469 7.22274 3.35156 12 3.35156ZM4.67969 12.6523C4.96445 15.8995 7.35975 18.5396 10.4863 19.1943C9.10335 17.2881 8.29465 15.0177 8.16895 12.6523H4.67969ZM15.8311 12.6523C15.7053 15.0179 14.8959 17.288 13.5127 19.1943C16.6397 18.54 19.0355 15.8998 19.3203 12.6523H15.8311ZM9.47168 12.6523C9.61085 14.9921 10.4976 17.2238 12 19.0215C13.5024 17.2238 14.3892 14.9921 14.5283 12.6523H9.47168ZM13.5127 4.80859C14.8962 6.71501 15.7053 8.98571 15.8311 11.3516H19.3203C19.0355 8.104 16.6398 5.46288 13.5127 4.80859ZM12 4.98145C10.4973 6.77924 9.61086 9.01159 9.47168 11.3516H14.5283C14.3891 9.01159 13.5027 6.77924 12 4.98145ZM10.4863 4.80859C7.35965 5.46322 4.96445 8.10433 4.67969 11.3516H8.16895C8.29466 8.9859 9.10306 6.71492 10.4863 4.80859Z" fill="currentColor"/>
	</symbol>
	<symbol id="icon-members" viewBox="0 0 24 24" fill="none">
		<path d="M13.75 8.89062C13.7499 7.1192 12.2677 5.65255 10.4004 5.65234C8.53293 5.65234 7.04993 7.11907 7.0498 8.89062C7.0498 10.6071 8.44152 12.0375 10.2266 12.125L10.4004 12.1299L10.5742 12.125C12.3589 12.0371 13.75 10.6068 13.75 8.89062ZM19.3496 18.2246C19.3496 15.8449 17.8784 13.593 16.417 12.5273C16.2492 12.405 16.1504 12.2096 16.1504 12.002C16.1504 11.7943 16.2492 11.5989 16.417 11.4766C16.8573 11.1554 17.2076 10.735 17.4385 10.2539C17.6692 9.77292 17.7736 9.24504 17.7441 8.7168C17.7147 8.18851 17.552 7.6744 17.2686 7.21973C16.9851 6.76491 16.5895 6.38287 16.1152 6.10938C15.8043 5.93002 15.6976 5.53263 15.877 5.22168C16.0563 4.91072 16.4537 4.80408 16.7646 4.9834C17.4214 5.36209 17.9741 5.89367 18.3721 6.53223C18.7701 7.17085 19.0012 7.89635 19.043 8.64453C19.0847 9.3928 18.9355 10.1389 18.6104 10.8164C18.4036 11.2472 18.129 11.6406 17.7998 11.9854C19.308 13.3714 20.6504 15.7028 20.6504 18.2246C20.6502 18.5834 20.3588 18.874 20 18.874C19.6412 18.874 19.3498 18.5834 19.3496 18.2246ZM15.0498 8.89062C15.0498 10.4494 14.2485 11.8132 13.0352 12.6289C13.9032 12.9699 14.7025 13.4781 15.3789 14.1357C16.703 15.423 17.4502 17.1733 17.4502 19.002C17.4502 19.3609 17.1588 19.6523 16.7998 19.6523C16.4409 19.6522 16.1504 19.3609 16.1504 19.002C16.1504 17.5302 15.5489 16.1148 14.4727 15.0684C13.3957 14.0213 11.9311 13.4298 10.4004 13.4297C8.86958 13.4297 7.40417 14.0213 6.32715 15.0684C5.25095 16.1148 4.65039 17.5303 4.65039 19.002C4.65039 19.3609 4.35899 19.6523 4 19.6523C3.64101 19.6523 3.34961 19.3609 3.34961 19.002C3.34961 17.1733 4.09781 15.423 5.42188 14.1357C6.09793 13.4786 6.8962 12.9699 7.76367 12.6289C6.55081 11.8131 5.75 10.4491 5.75 8.89062C5.75012 6.36683 7.84972 4.35156 10.4004 4.35156C12.9509 4.35177 15.0497 6.36696 15.0498 8.89062Z" fill="currentColor"/>
	</symbol>
	<symbol id="icon-video-player" viewBox="0 0 24 24" fill="none">
		<path d="M19.3496 12.502C19.3496 10.952 19.3486 9.85378 19.2383 9.02149C19.1303 8.20693 18.9282 7.74512 18.5986 7.41016C18.2708 7.07697 17.8207 6.87357 17.0234 6.76465C16.2062 6.65302 15.1267 6.65234 13.5996 6.65234H10.4004C8.87364 6.65234 7.79457 6.65395 6.97754 6.76563C6.18025 6.87464 5.72883 7.0769 5.40039 7.41016C5.07085 7.74456 4.86961 8.20674 4.76172 9.02149C4.65152 9.85387 4.65039 10.952 4.65039 12.502C4.65039 14.0519 4.65139 15.1501 4.76172 15.9824C4.8697 16.797 5.07184 17.2588 5.40137 17.5938C5.72922 17.9269 6.17932 18.1303 6.97656 18.2393C7.79376 18.3509 8.87333 18.3516 10.4004 18.3516H13.5996C15.1264 18.3516 16.2054 18.35 17.0225 18.2383C17.8198 18.1293 18.2712 17.927 18.5996 17.5938C18.9292 17.2593 19.1304 16.7972 19.2383 15.9824C19.3485 15.15 19.3496 14.0519 19.3496 12.502ZM20.6504 12.502C20.6504 14.0158 20.6515 15.2157 20.5273 16.1533C20.4008 17.1086 20.1334 17.8888 19.5254 18.5059C18.9163 19.1239 18.1444 19.3971 17.1992 19.5264C16.2737 19.6529 15.0895 19.6523 13.5996 19.6523H10.4004C8.91066 19.6523 7.72639 19.6538 6.80078 19.5273C5.85561 19.3982 5.08347 19.1246 4.47461 18.5059C3.86738 17.8886 3.59928 17.1085 3.47266 16.1533C3.34838 15.2158 3.34961 14.0159 3.34961 12.502C3.34961 10.9881 3.3485 9.78819 3.47266 8.85059C3.59916 7.89533 3.86659 7.11507 4.47461 6.49805C5.0837 5.87997 5.85565 5.6068 6.80078 5.47754C7.72631 5.35099 8.91055 5.35156 10.4004 5.35156H13.5996C15.0893 5.35156 16.2736 5.35013 17.1992 5.47656C18.1444 5.60567 18.9165 5.87933 19.5254 6.49805C20.1326 7.11529 20.4007 7.89544 20.5273 8.85059C20.6516 9.78812 20.6504 10.988 20.6504 12.502Z" fill="currentColor"/>
		<path d="M11.1753 14.564L13.9731 12.5025L11.1753 10.4409V14.564ZM15.3823 12.5034C15.3823 12.6761 15.3436 12.8487 15.2671 13.0064C15.1903 13.1645 15.0755 13.3066 14.9282 13.4146L11.5649 15.8931C11.403 16.0125 11.2078 16.0851 11.0005 16.0962C10.793 16.1073 10.5903 16.0552 10.4155 15.9517C10.2418 15.8487 10.1052 15.7008 10.0132 15.5308C9.94428 15.4034 9.90049 15.2648 9.8833 15.1236L9.87451 14.982V10.0239C9.87436 9.83448 9.9214 9.64487 10.0132 9.47512L10.0903 9.35207C10.1758 9.23392 10.2852 9.13143 10.4155 9.05422L10.5513 8.98586C10.6917 8.92808 10.8448 8.90139 11.0005 8.90969L11.1528 8.92922C11.2529 8.94973 11.3483 8.98507 11.437 9.03273L11.5649 9.11281L14.9282 11.5913L15.0327 11.6782C15.098 11.7401 15.154 11.8099 15.2017 11.8843L15.2671 11.9995L15.3169 12.1206C15.3601 12.2439 15.3823 12.3738 15.3823 12.5034Z" fill="currentColor"/>
	</symbol>
	<symbol id="icon-jumpshare-ai" viewBox="0 0 24 24" fill="none">
		<path d="M9.15039 7.34961C9.42234 7.34961 9.66535 7.51938 9.75977 7.77441L10.2393 9.06836C10.8875 10.8213 11.1552 11.5049 11.6504 12C12.1455 12.4951 12.8281 12.7629 14.5811 13.4111L15.876 13.8906C16.131 13.985 16.3008 14.228 16.3008 14.5C16.3008 14.772 16.131 15.015 15.876 15.1094L14.582 15.5889C12.8288 16.2372 12.1444 16.5043 11.6504 16.999C11.1558 17.4944 10.8873 18.1783 10.2393 19.9307L9.75977 21.2256C9.66535 21.4806 9.42234 21.6504 9.15039 21.6504C8.87844 21.6504 8.63543 21.4806 8.54102 21.2256L8.06152 19.9316C7.41319 18.1785 7.14605 17.494 6.65137 17C6.15601 16.5054 5.47212 16.2369 3.71973 15.5889L2.4248 15.1094C2.16977 15.015 2 14.772 2 14.5C2 14.228 2.16977 13.985 2.4248 13.8906L3.71875 13.4111C5.47169 12.7629 6.15525 12.4951 6.65039 12C7.14557 11.5048 7.41319 10.8216 8.06152 9.06836L8.54102 7.77441L8.58301 7.68262C8.69656 7.47948 8.91252 7.34961 9.15039 7.34961ZM9.15039 9.86816C8.61774 11.3073 8.2597 12.2305 7.57031 12.9199C6.88093 13.6093 5.9577 13.9674 4.51855 14.5C5.95801 15.0329 6.88015 15.392 7.56934 16.0801C8.25892 16.7686 8.61804 17.6924 9.15039 19.1309C9.6831 17.6919 10.0425 16.7701 10.7305 16.0811C11.419 15.3915 12.3428 15.0324 13.7812 14.5C12.3426 13.9675 11.4197 13.6092 10.7305 12.9199C10.0411 12.2305 9.68304 11.3073 9.15039 9.86816Z" fill="currentColor"/>
		<path d="M17.6504 1.35156C17.922 1.35156 18.1651 1.5208 18.2598 1.77539L18.5557 2.57129L18.5566 2.57324C18.9623 3.67375 19.1093 4.03115 19.3662 4.28809C19.6221 4.54377 19.9794 4.69034 21.0791 5.09766L21.876 5.39258C22.1307 5.48687 22.3004 5.72938 22.3008 6.00098C22.3011 6.27282 22.1318 6.51658 21.877 6.61133L21.0811 6.90723L21.0791 6.9082C19.9786 7.31388 19.6212 7.46084 19.3643 7.71777C19.1726 7.9096 19.0425 8.15851 18.8174 8.73535L18.5547 9.43164L18.2598 10.2275C18.1654 10.4824 17.9222 10.6521 17.6504 10.6523C17.3788 10.6523 17.1357 10.4831 17.041 10.2285L16.7451 9.43262L16.7441 9.43066C16.3385 8.33016 16.1915 7.97276 15.9346 7.71582C15.6787 7.46014 15.3214 7.31357 14.2217 6.90625L13.4248 6.61133C13.1701 6.51704 13.0004 6.27453 13 6.00293C12.9997 5.73109 13.169 5.48733 13.4238 5.39258L14.2197 5.09668L14.2217 5.0957C15.3222 4.69003 15.6796 4.54307 15.9365 4.28613C16.1921 4.03037 16.3388 3.67325 16.7461 2.57227L17.041 1.77637L17.083 1.68457C17.1965 1.48158 17.4127 1.35174 17.6504 1.35156ZM17.6504 3.85449C17.4252 4.41869 17.2044 4.85708 16.8555 5.20605C16.5056 5.55589 16.0671 5.77621 15.5029 6.00098C16.0671 6.22624 16.5054 6.44778 16.8545 6.79688C17.2042 7.14668 17.4257 7.58448 17.6504 8.14844C17.8754 7.58465 18.0965 7.14666 18.4453 6.79785C18.7951 6.44812 19.2329 6.22665 19.7969 6.00195C19.2333 5.77685 18.7951 5.55589 18.4463 5.20703C18.0964 4.85705 17.8752 4.41886 17.6504 3.85449Z" fill="currentColor"/>
	</symbol>
	<symbol id="icon-account-settings" viewBox="0 0 24 24" fill="none">
		<path d="M15.7246 8.44629C15.7246 6.34104 14.0476 4.65234 12 4.65234C9.95239 4.65234 8.27545 6.34104 8.27539 8.44629C8.27539 10.486 9.84937 12.1355 11.8096 12.2363L12 12.2412L12.1904 12.2363C14.1506 12.1355 15.7246 10.486 15.7246 8.44629ZM17.0254 8.44629C17.0254 10.2478 16.0991 11.8359 14.6992 12.7422C15.7087 13.1285 16.6366 13.7287 17.4131 14.5176C18.8466 15.9738 19.6504 17.9469 19.6504 20.002C19.6504 20.3609 19.359 20.6523 19 20.6523C18.641 20.6523 18.3496 20.3609 18.3496 20.002C18.3496 18.2851 17.6783 16.6406 16.4863 15.4297C15.3692 14.2948 13.881 13.6278 12.3145 13.5488L12 13.541C10.3192 13.541 8.70534 14.2191 7.51367 15.4297C6.32166 16.6406 5.65039 18.2851 5.65039 20.002C5.65039 20.3609 5.35899 20.6523 5 20.6523C4.64101 20.6523 4.34961 20.3609 4.34961 20.002C4.34961 17.9469 5.15343 15.9738 6.58691 14.5176C7.36321 13.729 8.29061 13.1286 9.2998 12.7422C7.90031 11.8358 6.97461 10.2475 6.97461 8.44629C6.97467 5.64244 9.21519 3.35156 12 3.35156C14.7848 3.35156 17.0253 5.64244 17.0254 8.44629Z" fill="currentColor"/>
	</symbol>
	<symbol id="icon-notifications" viewBox="0 0 24 24" fill="none">
		<path d="M12.9741 19.7803C13.152 19.4684 13.549 19.3593 13.8609 19.5371C14.1726 19.7149 14.2808 20.112 14.103 20.4238C13.8909 20.7958 13.5856 21.1064 13.2163 21.3223C12.847 21.5381 12.4271 21.6523 11.9995 21.6523C11.5718 21.6523 11.1512 21.5382 10.7818 21.3223C10.4124 21.1064 10.1072 20.7958 9.89503 20.4238C9.71726 20.112 9.82544 19.715 10.1372 19.5371C10.4491 19.3593 10.8461 19.4684 11.0239 19.7803C11.1238 19.9553 11.2671 20.0992 11.438 20.1992C11.6091 20.2992 11.8031 20.3516 11.9995 20.3516C12.1958 20.3515 12.3892 20.2991 12.5601 20.1992C12.731 20.0992 12.8743 19.9553 12.9741 19.7803ZM16.6821 8.40234C16.6821 7.13997 16.1873 5.93024 15.3081 5.04004C14.4293 4.15025 13.2388 3.65247 11.9995 3.65234C10.76 3.65234 9.56891 4.15014 8.68996 5.04004C7.81073 5.93024 7.31593 7.13998 7.31593 8.40234C7.31589 10.4937 6.99138 11.9331 6.47999 13.0293C5.97285 14.1163 5.30063 14.8179 4.71437 15.4307L4.67433 15.4902C4.66392 15.512 4.65683 15.5359 4.65285 15.5605C4.6449 15.6099 4.65173 15.6609 4.6714 15.7061C4.69108 15.751 4.72276 15.7881 4.76124 15.8135C4.79972 15.8388 4.84377 15.8515 4.8882 15.8516H19.1109C19.1553 15.8515 19.1993 15.8388 19.2378 15.8135C19.2764 15.7881 19.3079 15.7511 19.3277 15.7061C19.3474 15.6609 19.3541 15.61 19.3462 15.5605C19.3385 15.5124 19.3173 15.4686 19.2866 15.4336C18.6986 14.8199 18.0258 14.1173 17.5181 13.0293C17.0066 11.933 16.6822 10.4936 16.6821 8.40234ZM17.9829 8.40234C17.983 10.3596 18.2852 11.6005 18.6958 12.4805C19.0041 13.1411 19.3849 13.6255 19.8052 14.0869L20.2378 14.5469L20.2515 14.5615C20.4513 14.7839 20.5821 15.0597 20.6294 15.3545C20.6767 15.6494 20.6387 15.9527 20.5191 16.2266C20.3994 16.5003 20.2036 16.7347 19.9536 16.8994C19.7034 17.0643 19.4099 17.1525 19.1099 17.1523H4.88722C4.5873 17.1521 4.2944 17.0635 4.04445 16.8984C3.79451 16.7333 3.59836 16.4987 3.47902 16.2246C3.35971 15.9506 3.32199 15.6474 3.36964 15.3525C3.41734 15.0579 3.54851 14.7827 3.74855 14.5605L3.76222 14.5459C4.35239 13.929 4.89123 13.3605 5.30226 12.4795C5.71268 11.5996 6.01511 10.3592 6.01515 8.40234C6.01515 6.80042 6.64402 5.26214 7.76515 4.12695C8.88663 2.99148 10.41 2.35156 11.9995 2.35156C13.5889 2.35169 15.1116 2.99159 16.2329 4.12695C17.3541 5.26214 17.9829 6.80042 17.9829 8.40234Z" fill="currentColor"/>
	</symbol>
	<symbol id="icon-geo" viewBox="0 0 24 24" fill="none">
		<path d="M7.08398 17.8359C5.4074 18.2136 4.33398 18.7929 4.33398 19.4438C4.33398 20.5804 7.61748 21.5026 11.6673 21.5026C15.7172 21.5026 19.0007 20.5804 19.0007 19.4438C19.0007 18.7929 17.9272 18.2136 16.2507 17.8359" stroke="currentColor" stroke-width="1.5" stroke-linecap="round"/>
		<path d="M13.9583 9.58073C13.9583 10.1885 13.7169 10.7714 13.2871 11.2012C12.8573 11.631 12.2745 11.8724 11.6667 11.8724C11.0589 11.8724 10.476 11.631 10.0462 11.2012C9.61644 10.7714 9.375 10.1885 9.375 9.58073C9.375 8.97294 9.61644 8.39005 10.0462 7.96028C10.476 7.53051 11.0589 7.28906 11.6667 7.28906C12.2745 7.28906 12.8573 7.53051 13.2871 7.96028C13.7169 8.39005 13.9583 8.97294 13.9583 9.58073Z" stroke="currentColor" stroke-width="1.5"/>
		<path d="M12.8174 17.3669C12.5078 17.6648 12.0948 17.8312 11.6652 17.8312C11.2355 17.8312 10.8225 17.6648 10.5129 17.3669C7.68132 14.6233 3.88724 11.5589 5.73707 7.1094C6.73899 4.70315 9.14065 3.16406 11.6652 3.16406C14.1897 3.16406 16.5922 4.70406 17.5932 7.1094C19.4412 11.5525 15.6563 14.6325 12.8174 17.3669Z" stroke="currentColor" stroke-width="1.5"/>
	</symbol>
</svg>