<svg xmlns="http://www.w3.org/2000/svg" style="display: none;">
	<symbol id="icon-integrations" viewBox="0 0 18 18" fill="none">
		<path d="M5.25 8.25V11.25C5.25 11.6478 5.40804 12.0294 5.68934 12.3107C5.97064 12.592 6.35218 12.75 6.75 12.75H9.75M3.75 2.25H6.75C7.57843 2.25 8.25 2.92157 8.25 3.75V6.75C8.25 7.57843 7.57843 8.25 6.75 8.25H3.75C2.92157 8.25 2.25 7.57843 2.25 6.75V3.75C2.25 2.92157 2.92157 2.25 3.75 2.25ZM11.25 9.75H14.25C15.0784 9.75 15.75 10.4216 15.75 11.25V14.25C15.75 15.0784 15.0784 15.75 14.25 15.75H11.25C10.4216 15.75 9.75 15.0784 9.75 14.25V11.25C9.75 10.4216 10.4216 9.75 11.25 9.75Z" stroke="currentColor" stroke-width="1.5" stroke-linecap="round" stroke-linejoin="round"/>
	</symbol>
	<symbol id="icon-data" viewBox="0 0 18 18" fill="none">
		<path d="M10.17 1.5C10.5619 1.50005 10.9383 1.65349 11.2185 1.9275L14.5485 5.184C14.6914 5.32368 14.805 5.49051 14.8825 5.67468C14.96 5.85886 15 6.05667 15 6.2565V15C15 15.3978 14.842 15.7794 14.5607 16.0607C14.2794 16.342 13.8978 16.5 13.5 16.5H4.5C4.10218 16.5 3.72064 16.342 3.43934 16.0607C3.15804 15.7794 3 15.3978 3 15V3C3 2.60218 3.15804 2.22064 3.43934 1.93934C3.72064 1.65804 4.10218 1.5 4.5 1.5H10.17ZM10.17 1.5V5C10.17 5.55228 10.6177 6 11.17 6H15M6.75 9.75H11.25M6.75 12.75H9" stroke="currentColor" stroke-width="1.3" stroke-linecap="round" stroke-linejoin="round"/>
	</symbol>
	<symbol id="icon-sso" viewBox="0 0 18 18" fill="none">
		<path d="M7.0575 15H4.875C3.75 15 2.76 14.625 1.9575 13.8225C1.155 13.035 0.75 12.0675 0.75 10.935C0.75 9.96 1.0425 9.09 1.6275 8.325C2.1981 7.57724 3.01753 7.05844 3.9375 6.8625C4.2525 5.715 4.875 4.785 5.8125 4.0725C6.75 3.375 7.815 3 9 3C10.4625 3 11.7075 3.51 12.72 4.53C13.74 5.5425 14.25 6.7875 14.25 8.25C15.1125 8.3475 15.8325 8.7225 16.395 9.375C16.875 9.9225 17.145 10.545 17.22 11.25H15.72C15.645 10.875 15.48 10.5675 15.2025 10.2975C14.8425 9.93 14.4 9.75 13.875 9.75H12.75V8.25C12.75 7.215 12.375 6.33 11.655 5.595C10.9275 4.875 10.0425 4.5 9 4.5C7.965 4.5 7.08 4.875 6.345 5.595C5.625 6.33 5.25 7.215 5.25 8.25H4.875C4.1475 8.25 3.5325 8.505 3.0225 9.0225C2.505 9.5325 2.25 10.1475 2.25 10.875C2.25 11.6025 2.505 12.225 3.0225 12.75C3.5325 13.2525 4.1475 13.5 4.875 13.5H6.75C6.75 14.04 6.8625 14.5425 7.0575 15ZM17.25 12.75V14.25H15.75V15.75H14.25V14.25H12.6C12.3 15.15 11.475 15.75 10.5 15.75C9.225 15.75 8.25 14.775 8.25 13.5C8.25 12.225 9.225 11.25 10.5 11.25C11.475 11.25 12.3 11.85 12.6 12.75H17.25ZM11.25 13.5C11.25 13.125 10.95 12.75 10.5 12.75C10.05 12.75 9.75 13.125 9.75 13.5C9.75 13.875 10.05 14.25 10.5 14.25C10.95 14.25 11.25 13.875 11.25 13.5Z" fill="currentColor"/>
	</symbol>
	<symbol id="icon-billing" viewBox="0 0 18 18" fill="none">
		<path d="M7.6 12H4.8M10.4 12H9.35M2 7H16M1.5 9C1.5 6.17175 1.5 4.75725 2.379 3.879C3.258 3.00075 4.67175 3 7.5 3H10.5C13.3282 3 14.7427 3 15.621 3.879C16.4992 4.758 16.5 6.17175 16.5 9C16.5 11.8282 16.5 13.2427 15.621 14.121C14.742 14.9992 13.3282 15 10.5 15H7.5C4.67175 15 3.25725 15 2.379 14.121C1.50075 13.242 1.5 11.8282 1.5 9Z" stroke="currentColor" stroke-width="1.3" stroke-linecap="round"/>
	</symbol>
	<symbol id="icon-branding" viewBox="0 0 18 18" fill="none">
		<path d="M8.25134 7.4998L10.5013 9.7498M7.47809 12.7731L16.0348 4.2178C16.3334 3.91923 16.5011 3.51429 16.5011 3.09205C16.5011 2.66981 16.3334 2.26487 16.0348 1.9663C15.7363 1.66773 15.3313 1.5 14.9091 1.5C14.4869 1.5 14.0819 1.66773 13.7833 1.9663L5.22659 10.5231M4.87634 15.7498C5.39552 15.7498 5.90304 15.5958 6.33471 15.3074C6.76639 15.019 7.10285 14.609 7.30153 14.1293C7.50021 13.6497 7.55219 13.1219 7.4509 12.6127C7.34962 12.1035 7.09961 11.6358 6.7325 11.2686C6.36538 10.9015 5.89765 10.6515 5.38845 10.5502C4.87925 10.449 4.35145 10.5009 3.8718 10.6996C3.39214 10.8983 2.98217 11.2348 2.69373 11.6664C2.4053 12.0981 2.25134 12.6056 2.25134 13.1248C2.25148 13.624 2.06163 14.1045 1.72034 14.4688C1.61518 14.5737 1.54354 14.7075 1.51448 14.8531C1.48543 14.9988 1.50029 15.1498 1.55717 15.287C1.61404 15.4242 1.71038 15.5414 1.83396 15.6238C1.95755 15.7062 2.10281 15.7501 2.25134 15.7498H4.87634Z" stroke="currentColor" stroke-width="1.2" stroke-linecap="round" stroke-linejoin="round"/>
	</symbol>
	<symbol id="icon-activity" viewBox="0 0 18 18" fill="none">
		<path d="M15.75 8.9999H13.5285C13.371 8.9999 13.2915 8.9999 13.2247 9.0314C13.1637 9.06029 13.1117 9.10512 13.074 9.16115C13.0282 9.22715 13.005 9.3149 12.9578 9.49115L11.595 14.6257C11.4203 15.2819 11.3332 15.6104 11.202 15.6952C11.1481 15.731 11.0847 15.7501 11.0199 15.7498C10.9551 15.7495 10.8919 15.73 10.8383 15.6937C10.707 15.6074 10.6223 15.2782 10.4528 14.6212L7.548 3.37865C7.37775 2.72165 7.293 2.3924 7.16175 2.30615C7.10812 2.26982 7.04488 2.25027 6.9801 2.25C6.91532 2.24974 6.85193 2.26876 6.798 2.30465C6.66675 2.3894 6.57975 2.71715 6.405 3.37415L5.04225 8.5079C4.995 8.6849 4.97175 8.77265 4.92675 8.8379C4.88899 8.89431 4.83663 8.93942 4.77525 8.9684C4.7085 8.9999 4.62975 8.9999 4.4715 8.9999H2.25" stroke="currentColor" stroke-width="1.3" stroke-linecap="round" stroke-linejoin="round"/>
	</symbol>
	<symbol id="icon-general-settings" viewBox="0 0 18 18" fill="none">
		<mask id="path-1-inside-1_14501_2599" fill="white">
		<path fill-rule="evenodd" clip-rule="evenodd" d="M3.61875 8.25H6.15375C6.2445 8.25 6.39375 8.25 6.53025 8.262C6.699 8.277 6.987 8.319 7.2915 8.48925C7.59332 8.65824 7.84251 8.90743 8.0115 9.20925C8.181 9.513 8.223 9.801 8.238 9.96975C8.25075 10.107 8.25 10.2555 8.25 10.3463V14.4037C8.25 14.4945 8.25 14.6438 8.238 14.7803C8.223 14.949 8.18175 15.237 8.01075 15.5415C7.84176 15.8433 7.59257 16.0925 7.29075 16.2615C7.05631 16.3904 6.79701 16.4676 6.53025 16.488C6.393 16.5 6.2445 16.5 6.15375 16.5H3.59625C3.50625 16.5 3.35625 16.5 3.21975 16.488C2.95294 16.4674 2.69363 16.3899 2.45925 16.2607C2.15743 16.0918 1.90824 15.8426 1.73925 15.5408C1.6101 15.3064 1.53261 15.0471 1.512 14.7803C1.5 14.643 1.5 14.4945 1.5 14.4037V10.3463C1.5 10.2563 1.5 10.1062 1.512 9.96975C1.527 9.801 1.569 9.513 1.73925 9.20925C1.90824 8.90743 2.15743 8.65824 2.45925 8.48925C2.69363 8.3601 2.95294 8.28261 3.21975 8.262C3.357 8.25 3.5055 8.25 3.59625 8.25H3.61875ZM3.048 9.942C3 10.0275 3 10.14 3 10.3695V14.382C3 14.6093 3 14.7232 3.048 14.808C3.0818 14.8684 3.13164 14.9182 3.192 14.952C3.2775 15 3.39075 15 3.61875 15H6.13125C6.35925 15 6.47325 15 6.55875 14.952C6.61884 14.9181 6.66841 14.8683 6.702 14.808C6.75 14.7232 6.75 14.61 6.75 14.3812V10.3687C6.75 10.1407 6.75 10.0275 6.702 9.94125C6.66809 9.88116 6.61826 9.83159 6.558 9.798C6.47325 9.75 6.36 9.75 6.13125 9.75H3.61875C3.39075 9.75 3.2775 9.75 3.19125 9.798C3.13116 9.83191 3.08159 9.88174 3.048 9.942ZM3.61875 1.5H6.15375C6.2445 1.5 6.39375 1.5 6.53025 1.512C6.699 1.527 6.987 1.569 7.2915 1.73925C7.59332 1.90824 7.84251 2.15743 8.0115 2.45925C8.181 2.763 8.223 3.051 8.238 3.21975C8.25075 3.357 8.25 3.5055 8.25 3.59625V5.40375C8.25 5.4945 8.25 5.64375 8.238 5.78025C8.223 5.949 8.18175 6.237 8.01075 6.5415C7.84176 6.84332 7.59257 7.09251 7.29075 7.2615C7.05631 7.39039 6.79701 7.46762 6.53025 7.488C6.393 7.50075 6.2445 7.5 6.15375 7.5H3.59625C3.50625 7.5 3.35625 7.5 3.21975 7.488C2.95294 7.46739 2.69363 7.3899 2.45925 7.26075C2.15743 7.09176 1.90824 6.84257 1.73925 6.54075C1.6101 6.30637 1.53261 6.04706 1.512 5.78025C1.5 5.643 1.5 5.4945 1.5 5.40375V3.59625C1.5 3.50625 1.5 3.35625 1.512 3.21975C1.527 3.051 1.569 2.763 1.73925 2.45925C1.90824 2.15743 2.15743 1.90824 2.45925 1.73925C2.69363 1.6101 2.95294 1.53261 3.21975 1.512C3.357 1.5 3.5055 1.5 3.59625 1.5H3.61875ZM3.048 3.192C3 3.2775 3 3.39 3 3.61875V5.38125C3 5.60925 3 5.72325 3.048 5.80875C3.08191 5.86884 3.13174 5.91841 3.192 5.952C3.2775 6 3.39 6 3.61875 6H6.13125C6.35925 6 6.47325 6 6.55875 5.952C6.61884 5.91809 6.66841 5.86826 6.702 5.808C6.75 5.72325 6.75 5.61 6.75 5.38125V3.61875C6.75 3.39075 6.75 3.2775 6.702 3.19125C6.66809 3.13116 6.61826 3.08159 6.558 3.048C6.47325 3 6.36 3 6.13125 3H3.61875C3.39075 3 3.2775 3 3.19125 3.048C3.13116 3.08191 3.08159 3.13174 3.048 3.192ZM11.8687 9.75H14.4037C14.4945 9.75 14.6438 9.75 14.7803 9.738C14.949 9.723 15.237 9.68175 15.5415 9.51075C15.8433 9.34176 16.0925 9.09257 16.2615 8.79075C16.4317 8.487 16.473 8.199 16.488 8.03025C16.5 7.893 16.5 7.7445 16.5 7.65375V3.59625C16.5 3.50625 16.5 3.35625 16.488 3.21975C16.4674 2.95294 16.3899 2.69363 16.2607 2.45925C16.0918 2.15743 15.8426 1.90824 15.5408 1.73925C15.3064 1.6101 15.0471 1.53261 14.7803 1.512C14.643 1.5 14.4945 1.5 14.4037 1.5H11.8463C11.7563 1.5 11.6062 1.5 11.4698 1.512C11.301 1.527 11.013 1.569 10.7093 1.73925C10.4074 1.90824 10.1582 2.15743 9.98925 2.45925C9.8601 2.69363 9.78261 2.95294 9.762 3.21975C9.75 3.357 9.75 3.5055 9.75 3.59625V7.65375C9.75 7.7445 9.75 7.89375 9.762 8.03025C9.777 8.199 9.819 8.487 9.98925 8.7915C10.1582 9.09332 10.4074 9.34251 10.7093 9.5115C11.013 9.681 11.301 9.723 11.4698 9.738C11.607 9.75075 11.7555 9.75 11.8463 9.75H11.8687ZM11.298 8.058C11.25 7.9725 11.25 7.86 11.25 7.63125V3.61875C11.25 3.39075 11.25 3.2775 11.298 3.19125C11.3319 3.13116 11.3817 3.08159 11.442 3.048C11.5275 3 11.64 3 11.8695 3H14.382C14.6093 3 14.7232 3 14.808 3.048C14.8684 3.0818 14.9182 3.13164 14.952 3.192C15 3.2775 15 3.39075 15 3.61875V7.63125C15 7.85925 15 7.9725 14.952 8.05875C14.9181 8.11884 14.8683 8.16841 14.808 8.202C14.7232 8.25 14.6092 8.25 14.3812 8.25H11.8687C11.6407 8.25 11.5275 8.25 11.4412 8.202C11.3812 8.16809 11.3316 8.11826 11.298 8.058ZM11.8687 16.5H14.4037C14.4945 16.5 14.6438 16.5 14.7803 16.488C14.949 16.473 15.237 16.431 15.5415 16.2607C15.8433 16.0918 16.0925 15.8426 16.2615 15.5408C16.4317 15.237 16.473 14.949 16.488 14.7803C16.5 14.643 16.5 14.4945 16.5 14.4037V12.5963C16.5 12.5063 16.5 12.3562 16.488 12.2197C16.4674 11.9529 16.3899 11.6936 16.2607 11.4593C16.0918 11.1574 15.8426 10.9082 15.5408 10.7393C15.3064 10.6101 15.0471 10.5326 14.7803 10.512C14.643 10.5 14.4945 10.5 14.4037 10.5H11.8463C11.7563 10.5 11.6062 10.5 11.4698 10.512C11.301 10.527 11.013 10.569 10.7093 10.7393C10.4074 10.9082 10.1582 11.1574 9.98925 11.4593C9.8601 11.6936 9.78261 11.9529 9.762 12.2197C9.75 12.357 9.75 12.5055 9.75 12.5963V14.4037C9.75 14.4945 9.75 14.6438 9.762 14.7803C9.777 14.949 9.819 15.237 9.98925 15.5415C10.1582 15.8433 10.4074 16.0925 10.7093 16.2615C11.013 16.4317 11.301 16.473 11.4698 16.488C11.607 16.5 11.7555 16.5 11.8463 16.5H11.8687ZM11.298 14.808C11.25 14.7232 11.25 14.61 11.25 14.3812V12.6188C11.25 12.3908 11.25 12.2775 11.298 12.1912C11.3319 12.1312 11.3817 12.0816 11.442 12.048C11.5275 12 11.6407 12 11.8695 12H14.382C14.6093 12 14.7232 12 14.808 12.048C14.868 12.0817 14.9183 12.1313 14.952 12.192C15 12.2775 15 12.3907 15 12.6195V14.382C15 14.6093 15 14.7232 14.952 14.808C14.9182 14.8684 14.8684 14.9182 14.808 14.952C14.7232 15 14.6092 15 14.3812 15H11.8687C11.6407 15 11.5275 15 11.4412 14.952C11.3812 14.9181 11.3316 14.8683 11.298 14.808Z"/>
		</mask>
		<path fill-rule="evenodd" clip-rule="evenodd" d="M3.61875 8.25H6.15375C6.2445 8.25 6.39375 8.25 6.53025 8.262C6.699 8.277 6.987 8.319 7.2915 8.48925C7.59332 8.65824 7.84251 8.90743 8.0115 9.20925C8.181 9.513 8.223 9.801 8.238 9.96975C8.25075 10.107 8.25 10.2555 8.25 10.3463V14.4037C8.25 14.4945 8.25 14.6438 8.238 14.7803C8.223 14.949 8.18175 15.237 8.01075 15.5415C7.84176 15.8433 7.59257 16.0925 7.29075 16.2615C7.05631 16.3904 6.79701 16.4676 6.53025 16.488C6.393 16.5 6.2445 16.5 6.15375 16.5H3.59625C3.50625 16.5 3.35625 16.5 3.21975 16.488C2.95294 16.4674 2.69363 16.3899 2.45925 16.2607C2.15743 16.0918 1.90824 15.8426 1.73925 15.5408C1.6101 15.3064 1.53261 15.0471 1.512 14.7803C1.5 14.643 1.5 14.4945 1.5 14.4037V10.3463C1.5 10.2563 1.5 10.1062 1.512 9.96975C1.527 9.801 1.569 9.513 1.73925 9.20925C1.90824 8.90743 2.15743 8.65824 2.45925 8.48925C2.69363 8.3601 2.95294 8.28261 3.21975 8.262C3.357 8.25 3.5055 8.25 3.59625 8.25H3.61875ZM3.048 9.942C3 10.0275 3 10.14 3 10.3695V14.382C3 14.6093 3 14.7232 3.048 14.808C3.0818 14.8684 3.13164 14.9182 3.192 14.952C3.2775 15 3.39075 15 3.61875 15H6.13125C6.35925 15 6.47325 15 6.55875 14.952C6.61884 14.9181 6.66841 14.8683 6.702 14.808C6.75 14.7232 6.75 14.61 6.75 14.3812V10.3687C6.75 10.1407 6.75 10.0275 6.702 9.94125C6.66809 9.88116 6.61826 9.83159 6.558 9.798C6.47325 9.75 6.36 9.75 6.13125 9.75H3.61875C3.39075 9.75 3.2775 9.75 3.19125 9.798C3.13116 9.83191 3.08159 9.88174 3.048 9.942ZM3.61875 1.5H6.15375C6.2445 1.5 6.39375 1.5 6.53025 1.512C6.699 1.527 6.987 1.569 7.2915 1.73925C7.59332 1.90824 7.84251 2.15743 8.0115 2.45925C8.181 2.763 8.223 3.051 8.238 3.21975C8.25075 3.357 8.25 3.5055 8.25 3.59625V5.40375C8.25 5.4945 8.25 5.64375 8.238 5.78025C8.223 5.949 8.18175 6.237 8.01075 6.5415C7.84176 6.84332 7.59257 7.09251 7.29075 7.2615C7.05631 7.39039 6.79701 7.46762 6.53025 7.488C6.393 7.50075 6.2445 7.5 6.15375 7.5H3.59625C3.50625 7.5 3.35625 7.5 3.21975 7.488C2.95294 7.46739 2.69363 7.3899 2.45925 7.26075C2.15743 7.09176 1.90824 6.84257 1.73925 6.54075C1.6101 6.30637 1.53261 6.04706 1.512 5.78025C1.5 5.643 1.5 5.4945 1.5 5.40375V3.59625C1.5 3.50625 1.5 3.35625 1.512 3.21975C1.527 3.051 1.569 2.763 1.73925 2.45925C1.90824 2.15743 2.15743 1.90824 2.45925 1.73925C2.69363 1.6101 2.95294 1.53261 3.21975 1.512C3.357 1.5 3.5055 1.5 3.59625 1.5H3.61875ZM3.048 3.192C3 3.2775 3 3.39 3 3.61875V5.38125C3 5.60925 3 5.72325 3.048 5.80875C3.08191 5.86884 3.13174 5.91841 3.192 5.952C3.2775 6 3.39 6 3.61875 6H6.13125C6.35925 6 6.47325 6 6.55875 5.952C6.61884 5.91809 6.66841 5.86826 6.702 5.808C6.75 5.72325 6.75 5.61 6.75 5.38125V3.61875C6.75 3.39075 6.75 3.2775 6.702 3.19125C6.66809 3.13116 6.61826 3.08159 6.558 3.048C6.47325 3 6.36 3 6.13125 3H3.61875C3.39075 3 3.2775 3 3.19125 3.048C3.13116 3.08191 3.08159 3.13174 3.048 3.192ZM11.8687 9.75H14.4037C14.4945 9.75 14.6438 9.75 14.7803 9.738C14.949 9.723 15.237 9.68175 15.5415 9.51075C15.8433 9.34176 16.0925 9.09257 16.2615 8.79075C16.4317 8.487 16.473 8.199 16.488 8.03025C16.5 7.893 16.5 7.7445 16.5 7.65375V3.59625C16.5 3.50625 16.5 3.35625 16.488 3.21975C16.4674 2.95294 16.3899 2.69363 16.2607 2.45925C16.0918 2.15743 15.8426 1.90824 15.5408 1.73925C15.3064 1.6101 15.0471 1.53261 14.7803 1.512C14.643 1.5 14.4945 1.5 14.4037 1.5H11.8463C11.7563 1.5 11.6062 1.5 11.4698 1.512C11.301 1.527 11.013 1.569 10.7093 1.73925C10.4074 1.90824 10.1582 2.15743 9.98925 2.45925C9.8601 2.69363 9.78261 2.95294 9.762 3.21975C9.75 3.357 9.75 3.5055 9.75 3.59625V7.65375C9.75 7.7445 9.75 7.89375 9.762 8.03025C9.777 8.199 9.819 8.487 9.98925 8.7915C10.1582 9.09332 10.4074 9.34251 10.7093 9.5115C11.013 9.681 11.301 9.723 11.4698 9.738C11.607 9.75075 11.7555 9.75 11.8463 9.75H11.8687ZM11.298 8.058C11.25 7.9725 11.25 7.86 11.25 7.63125V3.61875C11.25 3.39075 11.25 3.2775 11.298 3.19125C11.3319 3.13116 11.3817 3.08159 11.442 3.048C11.5275 3 11.64 3 11.8695 3H14.382C14.6093 3 14.7232 3 14.808 3.048C14.8684 3.0818 14.9182 3.13164 14.952 3.192C15 3.2775 15 3.39075 15 3.61875V7.63125C15 7.85925 15 7.9725 14.952 8.05875C14.9181 8.11884 14.8683 8.16841 14.808 8.202C14.7232 8.25 14.6092 8.25 14.3812 8.25H11.8687C11.6407 8.25 11.5275 8.25 11.4412 8.202C11.3812 8.16809 11.3316 8.11826 11.298 8.058ZM11.8687 16.5H14.4037C14.4945 16.5 14.6438 16.5 14.7803 16.488C14.949 16.473 15.237 16.431 15.5415 16.2607C15.8433 16.0918 16.0925 15.8426 16.2615 15.5408C16.4317 15.237 16.473 14.949 16.488 14.7803C16.5 14.643 16.5 14.4945 16.5 14.4037V12.5963C16.5 12.5063 16.5 12.3562 16.488 12.2197C16.4674 11.9529 16.3899 11.6936 16.2607 11.4593C16.0918 11.1574 15.8426 10.9082 15.5408 10.7393C15.3064 10.6101 15.0471 10.5326 14.7803 10.512C14.643 10.5 14.4945 10.5 14.4037 10.5H11.8463C11.7563 10.5 11.6062 10.5 11.4698 10.512C11.301 10.527 11.013 10.569 10.7093 10.7393C10.4074 10.9082 10.1582 11.1574 9.98925 11.4593C9.8601 11.6936 9.78261 11.9529 9.762 12.2197C9.75 12.357 9.75 12.5055 9.75 12.5963V14.4037C9.75 14.4945 9.75 14.6438 9.762 14.7803C9.777 14.949 9.819 15.237 9.98925 15.5415C10.1582 15.8433 10.4074 16.0925 10.7093 16.2615C11.013 16.4317 11.301 16.473 11.4698 16.488C11.607 16.5 11.7555 16.5 11.8463 16.5H11.8687ZM11.298 14.808C11.25 14.7232 11.25 14.61 11.25 14.3812V12.6188C11.25 12.3908 11.25 12.2775 11.298 12.1912C11.3319 12.1312 11.3817 12.0816 11.442 12.048C11.5275 12 11.6407 12 11.8695 12H14.382C14.6093 12 14.7232 12 14.808 12.048C14.868 12.0817 14.9183 12.1313 14.952 12.192C15 12.2775 15 12.3907 15 12.6195V14.382C15 14.6093 15 14.7232 14.952 14.808C14.9182 14.8684 14.8684 14.9182 14.808 14.952C14.7232 15 14.6092 15 14.3812 15H11.8687C11.6407 15 11.5275 15 11.4412 14.952C11.3812 14.9181 11.3316 14.8683 11.298 14.808Z" stroke="currentColor" stroke-width="2" mask="url(#path-1-inside-1_14501_2599)"/>
	</symbol>



</svg>